<?xml version="1.0" encoding="UTF-8" standalone="no"?>
<!-- Created with Inkscape (http://www.inkscape.org/) -->

<svg
   xmlns:dc="http://purl.org/dc/elements/1.1/"
   xmlns:cc="http://creativecommons.org/ns#"
   xmlns:rdf="http://www.w3.org/1999/02/22-rdf-syntax-ns#"
   xmlns:svg="http://www.w3.org/2000/svg"
   xmlns="http://www.w3.org/2000/svg"
   xmlns:sodipodi="http://sodipodi.sourceforge.net/DTD/sodipodi-0.dtd"
   xmlns:inkscape="http://www.inkscape.org/namespaces/inkscape"
   viewBox="0 0 744.8189 1052"
   preserveAspectRatio="xMidYMid meet"
   width="100%"
   height="100%"
   id="svg4030"
   version="1.1"
   inkscape:version="0.48.2 r9819"
   sodipodi:docname="New document 10">
  <defs
     id="defs4032" />
  <sodipodi:namedview
     id="base"
     pagecolor="#ffffff"
     bordercolor="#666666"
     borderopacity="1.0"
     inkscape:pageopacity="0.0"
     inkscape:pageshadow="2"
     inkscape:zoom="0.50077816"
     inkscape:cx="184.19874"
     inkscape:cy="530.52254"
     inkscape:document-units="px"
     inkscape:current-layer="layer1"
     showgrid="false"
     inkscape:window-width="1280"
     inkscape:window-height="744"
     inkscape:window-x="-4"
     inkscape:window-y="-4"
     inkscape:window-maximized="1" />
  <metadata
     id="metadata4035">
    <rdf:RDF>
      <cc:Work
         rdf:about="">
        <dc:format>image/svg+xml</dc:format>
        <dc:type
           rdf:resource="http://purl.org/dc/dcmitype/StillImage" />
        <dc:title></dc:title>
      </cc:Work>
    </rdf:RDF>
  </metadata>
  <g
     inkscape:label="Layer 1"
     inkscape:groupmode="layer"
     id="layer1">
    <path
       style="fill:none;stroke:#000080;stroke-width:2.44;stroke-linecap:butt;stroke-linejoin:miter;stroke-opacity:1;stroke-miterlimit:4;stroke-dasharray:none"
       d="m 103.35184,653.59726 c 15.42963,-1.22672 -0.51597,9.11723 2.55618,12.00221 0.6025,0.56578 1.95369,-0.5658 2.55618,0 0.6025,0.56578 -0.60249,1.83465 0,2.40044 1.205,1.13157 3.90737,-1.13159 5.11237,0 0.61509,0.57761 -0.6151,9.02414 0,9.60177 0.0822,0.0772 7.0486,0 7.66854,0 0.93872,0 10.12186,0.0966 10.22473,0 0.60249,-0.56579 -0.6025,-1.83466 0,-2.40044 1.20499,-1.13159 3.90737,1.13157 5.11237,0 0.6025,-0.5658 -0.60251,-1.83466 0,-2.40046 0.6025,-0.56578 1.95369,0.5658 2.55618,0 0.6025,-0.56578 -0.60249,-1.83465 0,-2.40043 1.20499,-1.13158 3.90737,1.13157 5.11236,0 0.60249,-0.56579 -0.6025,-1.83466 0,-2.40044 0.25562,-0.24005 7.41293,-0.24005 7.66855,0 0.60249,0.56578 -0.6025,1.83465 0,2.40044 1.20499,1.13157 3.90737,-1.13158 5.11236,0 0.60249,0.56578 -0.6025,1.83465 0,2.40043 0.60249,0.5658 1.95368,-0.56578 2.55618,0 0.6025,0.5658 -0.6025,1.83466 0,2.40046 0.6025,0.56578 1.95369,-0.5658 2.55619,0 0.60249,0.56578 0,1.60029 0,2.40044 0,0.80014 0,1.60029 0,2.40043 0,0.80015 0.85206,2.40044 0,2.40044 -0.85206,0 0,-3.20058 0,-2.40044 0,1.6003 -0.76211,3.36954 0,4.80088 0.38105,0.71568 1.95368,-0.56578 2.55618,0 1.20499,1.13159 -1.20499,3.66931 0,4.80089 3.40824,3.20059 2.55618,-4.00074 2.55618,2.40044 0,6.40119 -0.85206,-0.80014 2.55618,2.40044 0.6025,0.56579 -0.6025,1.83465 0,2.40044 0.6025,0.5658 1.95368,-0.56579 2.55619,0 0.60249,0.5658 0.60249,1.83467 0,2.40045 -0.60251,0.56579 -2.55619,0.80015 -2.55619,0 0,-0.80014 1.70413,0 2.55619,0 2.55618,0 5.11236,0 7.66854,0 0.85205,0 2.55617,-0.80014 2.55617,0 0,0.80015 -3.40823,0 -2.55617,0 2.55617,0 5.11237,0 7.66855,0 1.70411,0 3.40823,0 5.11235,0 0.85206,0 2.5562,-0.80014 2.5562,0 0,0.80015 -3.40826,0 -2.5562,0 14.48504,0 0.85206,1.6003 5.11237,-2.40045 1.20499,-1.13157 3.90737,1.13159 5.11236,0 0.6025,-0.56579 -0.60249,-1.83465 0,-2.40044 0.6025,-0.56579 1.95369,0.56579 2.55618,0 0.60251,-0.56579 -0.60249,-1.83465 0,-2.40044 0.60251,-0.56578 1.95369,0.56579 2.55619,0 1.20499,-1.13157 -1.205,-3.6693 0,-4.80088 0.6025,-0.5658 2.55618,-0.80014 2.55618,0 0,0.80015 -3.40824,0 -2.55618,0 1.70412,0 3.58814,0.71567 5.11236,0 0.76211,-0.35783 -0.60249,-1.83465 0,-2.40045 0.6025,-0.56578 1.70412,0 2.55618,0 0.93872,0 10.12186,-0.0965 10.22473,0 1.2781,1.20023 -1.27808,6.00111 0,7.20133 0.6025,0.56579 1.95368,-0.56578 2.55618,0 0.0822,0.0772 0,6.61916 0,7.20133 0,0.80015 0.60251,1.83465 0,2.40044 -0.6025,0.56579 -1.95368,-0.56579 -2.55618,0 -1.20499,1.13158 1.205,3.66931 0,4.80088 -0.6025,0.5658 -1.95368,-0.56579 -2.55618,0 -0.60249,0.5658 0.85206,2.40045 0,2.40045 -0.85206,0 0,-3.2006 0,-2.40045 0,1.6003 0,3.2006 0,4.80089 0,0.80015 -0.60249,1.83465 0,2.40044 0.6025,0.56579 1.70412,0 2.55618,0 0.85206,0 1.70412,0 2.55618,0 0.85206,0 1.70413,0 2.55619,0 0.85206,0 2.55618,-0.80015 2.55618,0 0,0.80015 -3.40824,0 -2.55618,0 14.48503,0 0.85206,-1.60029 5.11236,2.40044 0.60249,0.56579 1.95368,-0.56579 2.55618,0 1.205,1.13159 -1.20499,3.6693 0,4.80089 0.60249,0.56579 1.95368,-0.5658 2.55618,0 0.60251,0.56579 0,1.60029 0,2.40044 0,0.80015 0,1.60029 0,2.40044 0,6.6227 0,3.08094 0,12.00221 0,0.58217 -0.0822,7.12413 0,7.20133 0.60251,0.56578 1.95369,-0.56579 2.55619,0 1.20499,1.13157 -1.205,3.6693 0,4.80087 0.60249,0.5658 1.95368,-0.56578 2.55618,0 0.60249,0.5658 -0.6025,1.83466 0,2.40046 0.60249,0.56578 1.95368,-0.5658 2.55618,0 0.60249,0.56578 -0.6025,1.83465 0,2.40043 0.60249,0.56579 1.95368,-0.56578 2.55618,0 0.6025,0.56579 -0.6025,1.83466 0,2.40044 1.205,1.13158 3.90736,-1.13157 5.11237,0 1.27808,1.20023 -1.2781,6.00111 0,7.20133 1.27808,1.20022 6.39045,-1.20022 7.66853,0 0.60251,0.56579 -0.60249,1.83466 0,2.40044 0.11585,0.10879 11.57569,0 12.78093,0 0.85206,0 1.70411,0 2.55617,0 0.85206,0 1.95369,-0.56578 2.55618,0 0.6025,0.56579 -0.60249,1.83466 0,2.40044 0.6025,0.56579 2.55618,-0.80014 2.55618,0 0,0.80015 -1.70412,0 -2.55618,0 0.85206,0.80015 2.01729,1.38833 2.55618,2.40044 0.76211,1.43135 -1.20499,3.66931 0,4.80089 0.6025,0.56579 1.95369,-0.56579 2.55618,0 0.61511,0.57762 -0.61509,9.02414 0,9.60177 0.60251,0.56579 1.95369,-0.5658 2.55619,0 1.20499,1.13158 -1.205,3.66931 0,4.80088 0.6025,0.56579 1.95369,-0.56579 2.55618,0 0.6025,0.56579 -0.60249,1.83465 0,2.40044 1.20499,1.13158 3.90737,-1.13158 5.11236,0 0.60251,0.56579 -0.60249,1.83465 0,2.40044 0.60251,0.5658 1.95368,-0.56579 2.55619,0 0.6025,0.5658 -0.60251,1.83465 0,2.40045 0.6025,0.56579 1.95369,-0.5658 2.55618,0 0.0822,0.0772 0,6.61915 0,7.20132 0,1.60029 0,3.20059 0,4.80089 0,13.6025 0,-16.00296 0,-2.40044 0,6.40117 0,12.80235 0,19.20352 0,1.25525 -0.33607,8.9706 0,9.60177 0.53889,1.01213 2.01729,1.38833 2.55618,2.40044 0.33045,0.62064 0,12.70122 0,14.40266 0,0.80015 -0.60249,1.83465 0,2.40044 0.6025,0.56579 1.79407,-0.35784 2.55618,0 1.07779,0.50606 1.55357,1.77276 2.55618,2.40044 1.58528,0.99246 3.52709,1.40798 5.11237,2.40044 1.00261,0.62769 1.4784,1.89438 2.55618,2.40045 0.76211,0.35783 1.84722,-0.44385 2.55618,0 2.00523,1.25537 2.9568,3.78877 5.11237,4.80088 1.5242,0.71567 3.45912,-0.38813 5.11236,0 12.34366,2.8979 -0.12673,1.14073 7.66855,4.80088 2.40999,1.13158 5.05453,1.78676 7.66853,2.40045 0.82663,0.19406 1.95369,-0.5658 2.5562,0 0.79151,0.74329 -0.79153,11.25892 0,12.00221 0.10291,0.0966 9.28599,0 10.22473,0 0.85206,0 2.55617,-0.80015 2.55617,0 0,0.80014 -1.70411,0 -2.55617,0"
       id="Saco"
       inkscape:connector-curvature="0"
       inkscape:label="#path4049" />
    <path
       style="fill:none;stroke:#000080;stroke-width:2.44;stroke-linecap:butt;stroke-linejoin:miter;stroke-opacity:1;stroke-miterlimit:4;stroke-dasharray:none"
       d="m 172.36876,435.15705 c -2.55619,3.20058 -5.47665,6.17116 -7.66855,9.60177 -0.50261,0.78664 0,8.22393 0,9.60175 0,1.60031 0,6.40119 0,4.80089 0,-1.60029 0,-6.40118 0,-4.80089 0,2.40046 0.80833,4.92407 0,7.20133 -0.26945,0.75909 -1.95369,-0.56578 -2.55618,0 -1.205,1.13158 1.20499,3.66931 0,4.80088 -1.205,1.13159 -3.90737,-1.13157 -5.11237,0 -0.6025,0.5658 0.60249,1.83467 0,2.40045 -0.6025,0.56579 -1.95369,-0.56578 -2.55618,0 -0.6025,0.56579 0.60249,1.83466 0,2.40044 -0.6025,0.56579 -1.95369,-0.56578 -2.55618,0 -0.6025,0.56579 0.60249,1.83465 0,2.40044 -0.6025,0.56579 -1.79408,-0.35784 -2.55618,0 -1.07779,0.50606 -1.4784,1.89439 -2.55619,2.40044 -0.7621,0.35784 -1.95369,-0.56579 -2.55618,0 -0.6025,0.5658 0.60249,1.83465 0,2.40045 -2.52162,2.36797 -5.11236,-4.91869 -5.11236,2.40044 0,0.80015 -0.60249,1.83465 0,2.40044 1.20499,1.13158 3.58816,-0.71567 5.11236,0 1.07779,0.50606 1.4784,1.89438 2.55618,2.40044 0.76211,0.35784 2.55619,-0.80015 2.55619,0 0,0.80015 -2.55619,-0.80015 -2.55619,0 0,1.13159 2.01729,1.38833 2.55619,2.40044 0.69334,1.30221 -0.69944,8.94496 0,9.60177 0.6025,0.5658 1.95368,-0.56579 2.55618,0 1.27808,1.20022 -1.2781,6.0011 0,7.20133 0.60249,0.56579 1.95368,-0.56579 2.55618,0 0.60249,0.56579 -0.6025,1.83465 0,2.40044 0.60249,0.56578 1.95368,-0.56579 2.55618,0 1.205,1.13158 -1.20499,3.6693 0,4.80089 0.60249,0.56578 1.95368,-0.5658 2.55618,0 0.6025,0.56578 0,1.60029 0,2.40044 0,4.80088 0,9.60177 0,14.40264 0,0.80015 0.38105,1.68478 0,2.40044 -0.53889,1.01213 -2.01729,1.38833 -2.55618,2.40045 -0.38106,0.71567 0.60249,1.83466 0,2.40044 -0.6025,0.56579 -1.95369,-0.56578 -2.55618,0 -0.6025,0.56579 0.60249,1.83466 0,2.40044 -0.6025,0.56579 -1.95369,-0.56578 -2.55618,0 -0.6025,0.56579 0.60249,1.83466 0,2.40044 -0.6025,0.56579 -1.95368,-0.56578 -2.55618,0 -1.205,1.13159 1.20499,3.66931 0,4.80089 -0.60251,0.56579 -1.95368,-0.56578 -2.55619,0 -0.10292,0.0967 0,8.72023 0,9.60177 0,0.80015 0,1.60029 0,2.40044 0,0.80015 -0.6025,1.83465 0,2.40044 0.60251,0.56579 1.70413,0 2.55619,0 0.85206,0 1.70412,0 2.55618,0 5.96442,0 11.92885,0 17.89327,0 1.1512,0 6.89062,-0.36527 7.66855,0 1.07777,0.50606 1.4784,1.89438 2.55618,2.40044 2.04495,0.96018 5.6236,-0.96017 7.66855,0 1.07777,0.50606 1.4784,1.89438 2.55617,2.40044 1.52422,0.71567 5.11238,-1.60029 5.11238,0 0,0.80016 -3.40826,0 -2.5562,0 1.70412,0 3.40825,0 5.11237,0 0.85206,0 1.95369,-0.56579 2.55618,0 0.6025,0.5658 -0.60249,1.83465 0,2.40045 0.6025,0.56579 1.70412,0 2.55618,0 5.11237,0 10.22473,0 15.3371,0 0.85206,0 1.70412,0 2.55618,0 0.85206,0 1.95369,0.56579 2.55618,0 1.20499,-1.13159 -1.20499,-3.6693 0,-4.80089 0.6025,-0.56579 1.95368,0.56579 2.55618,0 0.6025,-0.56579 -0.6025,-1.83465 0,-2.40044 0.6025,-0.56579 1.95368,0.56579 2.55618,0 0.60251,-0.56579 -0.6025,-1.83465 0,-2.40044 0.60251,-0.56579 1.95368,0.56579 2.55619,0 0.6025,-0.56579 -0.60251,-1.83465 0,-2.40044 1.99823,-1.87649 4.44686,2.08796 5.11236,2.40044 0.76211,0.35784 1.79407,-0.35784 2.55618,0 1.07779,0.50606 1.4784,1.89439 2.55618,2.40044 0.77717,0.36491 8.45964,0 10.22473,0 0.85206,0 1.95368,0.56579 2.55619,0 0.60249,-0.56579 -0.60251,-1.83465 0,-2.40044 1.27808,-1.20022 6.39045,1.20021 7.66854,0 0.60249,-0.56579 -0.6025,-1.83465 0,-2.40044 0.60249,-0.5658 1.95368,0.56579 2.55617,0 0.60251,-0.5658 -0.60249,-1.83465 0,-2.40045 0.60251,-0.56579 1.95369,0.5658 2.5562,0 0.60249,-0.56579 -0.60251,-1.83465 0,-2.40044 0.60249,-0.56579 1.95368,0.56579 2.55618,0 3.74906,-3.52064 -4.85676,-2.16039 -5.11238,-2.40044 -0.85515,-0.80305 0.85517,-3.99782 0,-4.80089 -0.60249,-0.56579 -1.95368,0.5658 -2.55617,0 -0.6025,-0.56579 0,-1.60029 0,-2.40044 0,-1.1318 -0.11585,-11.89342 0,-12.00221 0.60249,-0.56578 1.95368,0.56579 2.55617,0 0.60251,-0.56578 -0.60249,-1.83465 0,-2.40043 0.60251,-0.56579 1.70414,0 2.5562,0 0.85206,0 1.70412,0 2.55618,0 7.66855,0 15.33708,0 23.00563,0 1.70412,0 3.40824,0 5.11236,0 4.96168,0 10.22461,0 20.44946,0 0.61994,0 7.58634,0.0772 7.66855,0 0.60249,-0.56579 -0.6025,-1.83466 0,-2.40044 0.60249,-0.56579 1.70412,0 2.55618,0 4.2603,0 8.52061,0 12.78091,0 1.70412,0 3.40824,0 5.11235,0 0.85208,0 2.5562,-0.80015 2.5562,0 0,0.80014 -2.5562,-0.80015 -2.5562,0 0,4.99502 3.58472,0.96585 5.11238,2.40044 0.60249,0.56578 -0.6025,1.83465 0,2.40043 0.60249,0.56579 1.95368,-0.56578 2.55617,0 0.6025,0.56579 -0.60249,1.83466 0,2.40044 0.61511,0.57763 9.60964,-0.57761 10.22473,0 0.6025,0.5658 -0.60249,1.83466 0,2.40045 0.6025,0.56579 1.95369,-0.56579 2.55618,0 0.6025,0.56579 -0.60249,1.83466 0,2.40044 1.34724,1.26514 3.5271,1.40799 5.11237,2.40044 1.00261,0.62769 1.47839,1.89439 2.55618,2.40044 0.94767,0.44497 15.33709,-0.39729 15.33709,0 0,0.80015 -2.55618,0.80015 -2.55618,0 0,-1.13157 1.70412,-1.60029 2.55618,-2.40044 0.85206,-0.80014 1.4784,-1.89438 2.55618,-2.40044 0.76211,-0.35783 1.95368,0.56579 2.55619,0 0.6025,-0.56578 -0.60251,-1.83465 0,-2.40044 0.6025,-0.56579 1.70412,0 2.55618,0 0.85206,0 1.79407,0.35784 2.55618,0 1.07778,-0.50606 1.4784,-1.89438 2.55618,-2.40045 0.76211,-0.35783 1.70412,0 2.55618,0 0.85207,0 1.95369,-0.56578 2.55619,0 0.61509,0.57763 -0.6151,9.02416 0,9.60177 0.60249,0.56579 1.95368,-0.56578 2.55618,0 0.60249,0.56579 -0.6025,1.83465 0,2.40044 0.60249,0.5658 1.95368,-0.56579 2.55618,0 1.27809,1.20023 -1.27809,6.00112 0,7.20133 0.60249,0.56579 1.95368,-0.56579 2.55618,0 1.205,1.13159 -1.20499,3.66931 0,4.80089 0.6025,0.56579 1.95368,-0.5658 2.55619,0 0.60249,0.56579 -0.60251,1.83465 0,2.40044 0.60249,0.56579 1.95368,-0.56579 2.55618,0 1.20499,1.13158 -1.20501,3.66931 0,4.80088 0.60249,0.56579 1.95368,-0.56579 2.55618,0 1.20499,1.13159 -1.20499,3.6693 0,4.80089 0.60249,0.56579 1.95368,-0.5658 2.55618,0 0.60249,0.56579 0,1.60029 0,2.40044 0,0.88153 0.10291,9.50517 0,9.60177 -1.20499,1.13157 -3.90737,-1.13159 -5.11236,0 -0.6025,0.56579 0.38105,1.68476 0,2.40044 -0.53889,1.01211 -2.01729,1.38833 -2.55618,2.40044 -0.33607,0.63118 0,8.34653 0,9.60177 0,1.60029 0,3.20058 0,4.80089 0,0.80014 0.85206,2.40044 0,2.40044 -0.85206,0 0,-3.2006 0,-2.40044 0,1.60029 0,3.20058 0,4.80087 0,0.80015 -0.38106,1.68477 0,2.40044 0.53889,1.01213 2.01729,1.38833 2.55618,2.40044 0.76211,1.43135 -1.20501,3.66931 0,4.80089 0.60249,0.56579 1.95368,-0.56578 2.55618,0 0.0822,0.0772 0,6.61916 0,7.20132 0,0.80016 0,1.60031 0,2.40045 0,0.80015 0.60249,1.83465 0,2.40044 -0.6025,0.56579 -1.95369,-0.56579 -2.55618,0 -0.6025,0.56579 0.60249,1.83465 0,2.40044 -1.20501,1.13159 -3.90737,-1.13157 -5.11237,0 -0.6025,0.56579 0.6025,1.83465 0,2.40044 -0.6025,0.5658 -1.95369,-0.56579 -2.55618,0 -0.6025,0.5658 0.60249,1.83465 0,2.40045 -0.6025,0.56579 -1.95369,-0.5658 -2.55618,0 -0.6025,0.56579 0,1.60029 0,2.40044 0,0.80015 0,1.60029 0,2.40044 0,6.40118 0,12.80235 0,19.20354 0,4.80088 0,9.60177 0,14.40265 0,1.60029 0,3.20058 0,4.80089 0,0.80014 0,3.20058 0,2.40044 0,-1.6003 0,-6.40119 0,-4.8009 0,2.40046 0,4.8009 0,7.20133 0,0.80015 0,1.6003 0,2.40044 0,0.80015 -0.6025,1.83466 0,2.40044 0.60249,0.5658 1.95368,-0.56578 2.55618,0 1.205,1.13159 -1.70412,4.80089 0,4.80089 1.205,0 1.35119,-2.40044 2.55618,-2.40044 0.85206,0 0,1.6003 0,2.40044 0,0.80015 0,1.6003 0,2.40044 0,6.64729 2.55619,-1.84639 2.55619,4.80088 0,0.80016 0,3.2006 0,2.40045 0,-1.60029 0,-6.40118 0,-4.80089 0,2.40044 -0.80835,4.92407 0,7.20133 0.26944,0.75908 1.95368,-0.56579 2.55618,0 0.60249,0.56579 -0.6025,1.83465 0,2.40044 0.61509,0.57763 9.60962,-0.57761 10.22473,0 0.60249,0.56579 -0.60251,1.83465 0,2.40044 0.60249,0.5658 1.95368,-0.56579 2.55618,0 0.60249,0.5658 0.85206,2.40045 0,2.40045 -0.85206,0 0,-3.2006 0,-2.40045 0,1.6003 0,3.2006 0,4.80089 0,0.80015 -0.6025,1.83465 0,2.40044 0.60249,0.56579 1.70412,0 2.55617,0 0.61995,0 7.58635,0.0772 7.66856,0 0.60249,-0.56579 -0.6025,-1.83465 0,-2.40044 0.60249,-0.56579 1.70411,0 2.55617,0 0.85206,0 1.70412,0 2.55618,0 4.26031,0 8.52061,0 12.78091,0 0.85206,0 1.95369,-0.56579 2.55619,0 0.61509,0.57762 -0.6151,9.02414 0,9.60177 0.6025,0.56579 1.95369,-0.5658 2.55618,0 0.6025,0.56579 0,1.60029 0,2.40044 0,0.80015 0.85206,2.40044 0,2.40044 -0.85206,0 -0.85206,-2.40044 0,-2.40044 1.20499,0 1.47841,1.89438 2.55618,2.40044 1.56745,0.73596 11.62209,-0.72547 12.78091,0 1.58528,0.99245 1.20896,3.53574 2.55618,4.80089 0.31576,0.29651 8.62177,0 10.22473,0 0.85206,0 1.70412,0 2.55618,0 0.85206,0 1.95368,0.56579 2.55619,0 0.60249,-0.5658 -0.60251,-1.83465 0,-2.40045 0.60249,-0.56579 1.95368,0.5658 2.55618,0 0.60249,-0.56579 -0.6025,-1.83465 0,-2.40044 0.60249,-0.56579 1.95368,0.56579 2.55618,0 0.60249,-0.56579 -0.6025,-1.83465 0,-2.40044 0.60249,-0.56579 2.55618,-0.80015 2.55618,0 0,0.80015 -2.55618,0.80015 -2.55618,0 0,-4.99503 3.58471,-0.96587 5.11236,-2.40044 0.6025,-0.5658 0,-1.60029 0,-2.40045 0,-0.80015 0,-1.60029 0,-2.40044"
       id="Androscoggin"
       inkscape:connector-curvature="0"
       inkscape:label="#path4051" />
    <path
       style="fill:none;stroke:#000080;stroke-width:2.44;stroke-linecap:butt;stroke-linejoin:miter;stroke-opacity:1;stroke-miterlimit:4;stroke-dasharray:none"
       d="m 289.95312,435.15705 c 0,4.00073 0,8.00146 0,12.00221 0,0.80014 -0.6025,1.83465 0,2.40044 0.6025,0.56578 1.95369,-0.56579 2.55618,0 0.6025,0.56578 -0.60249,1.83465 0,2.40043 0.6025,0.56579 1.95369,-0.56578 2.55618,0 0.6025,0.56579 -0.60249,1.83466 0,2.40044 1.20499,1.13159 3.90737,-1.13157 5.11237,0 0.6025,0.5658 0,1.60031 0,2.40046 0,1.60029 0,3.20058 0,4.80087 0,0.80015 0.85206,2.40044 0,2.40044 -0.85207,0 0,-3.20058 0,-2.40044 0,1.6003 0,3.20059 0,4.80088 0,0.80016 -0.60251,1.83467 0,2.40045 0.6025,0.56579 1.95369,-0.56578 2.55618,0 0.6025,0.56579 -0.60249,1.83466 0,2.40044 1.20499,1.13158 3.90737,-1.13157 5.11236,0 0.6025,0.56579 -0.6025,1.83465 0,2.40044 0.6025,0.56579 1.95368,-0.56579 2.55618,0 0.60251,0.56579 -0.6025,1.83465 0,2.40044 0.60251,0.5658 1.95368,-0.56579 2.55619,0 0.6025,0.5658 -0.60251,1.83465 0,2.40045 0.6025,0.56579 2.55618,-0.80014 2.55618,0 0,0.80015 -3.40824,0 -2.55618,0 1.70412,0 3.58814,-0.71567 5.11236,0 0.76211,0.35784 0,1.6003 0,2.40044 0,3.20059 0,6.40117 0,9.60177 0,13.6025 0,-16.00295 0,-2.40045 0,7.20133 0,14.40266 0,21.60398 0,0.80015 -0.6025,1.83465 0,2.40045 0.60249,0.56578 1.95368,-0.5658 2.55618,0 0.60249,0.56578 -0.6025,1.83465 0,2.40044 0.60249,0.56578 1.95368,-0.56579 2.55618,0 0.60251,0.56578 -0.6025,1.83465 0,2.40044 0.60251,0.56578 1.95369,-0.56579 2.55619,0 0.60249,0.56578 0,1.60029 0,2.40044 0,0.80014 0,1.60029 0,2.40045"
       id="Swift"
       inkscape:connector-curvature="0"
       inkscape:label="#path4053" />
    <path
       style="fill:none;stroke:#000080;stroke-width:2.44;stroke-linecap:butt;stroke-linejoin:miter;stroke-opacity:1;stroke-miterlimit:4;stroke-dasharray:none"
       d="m 522.56568,139.90269 c -2.79493,6.02297 -2.5562,10.78415 -2.5562,16.80309 0,0.80015 0,3.20059 0,2.40044 0,-1.60029 0,-6.40118 0,-4.80087 0,2.40043 0,4.80087 0,7.20131 0,0.80015 0,1.6003 0,2.40044 0,0.80016 -0.60249,1.83467 0,2.40045 1.20501,1.13158 5.11238,-1.60029 5.11238,0 0,0.80015 -2.55618,-0.80014 -2.55618,0 0,1.13158 2.01729,1.38833 2.55618,2.40044 0.38105,0.71568 0,1.6003 0,2.40044 0,0.80015 0,1.60031 0,2.40045 0,0.80015 0.85205,2.40044 0,2.40044 -0.85206,0 0,-3.20058 0,-2.40044 0,1.6003 0,3.20059 0,4.80088 0,0.58217 0.0822,7.12413 0,7.20133 -0.6025,0.56579 -1.95369,-0.56579 -2.55618,0 -0.60251,0.56579 0.60249,1.83465 0,2.40044 -0.84923,0.79748 -4.26316,-0.79748 -5.11237,0 -0.6025,0.56579 0.60249,1.83465 0,2.40044 -0.6025,0.5658 -1.95369,-0.56579 -2.55618,0 -0.6025,0.5658 0.60249,1.83465 0,2.40045 -0.85005,0.79826 -4.26231,-0.79827 -5.11237,0 -0.6025,0.56579 0.6025,1.83465 0,2.40044 -0.6025,0.56579 -1.95369,-0.56579 -2.55618,0 -0.6025,0.56579 0.60249,1.83465 0,2.40044 -0.6025,0.56579 -1.95369,-0.56579 -2.55618,0 -0.6025,0.56579 0.38105,1.68476 0,2.40044 -8.47779,7.96127 1.20499,-2.26316 -2.55618,4.80089 -0.53889,1.01211 -2.01729,1.38833 -2.55618,2.40044 -0.76211,1.43135 1.20499,3.6693 0,4.80088 -1.2781,1.20022 -6.39046,-1.20022 -7.66855,0 -0.6025,0.5658 0.60249,1.83465 0,2.40045 -0.6025,0.56579 -1.95369,-0.5658 -2.55618,0 -0.6025,0.56579 0.60249,1.83465 0,2.40044 -0.6025,0.56578 -1.95368,-0.56579 -2.55619,0 -0.6025,0.56578 0.60251,1.83465 0,2.40044 -0.6025,0.56578 -1.95369,-0.56579 -2.55618,0 -0.6025,0.56578 0.85206,2.40044 0,2.40044 -0.85206,0 0,-3.20059 0,-2.40044 0,6.40118 0,12.80235 0,19.20353 0,0.80015 0.60249,1.83466 0,2.40044 -0.6025,0.56579 -1.95369,-0.56578 -2.55618,0 -0.84922,0.79748 0.84922,4.0034 0,4.80088 -0.6025,0.5658 -1.95368,-0.56578 -2.55618,0 -0.60249,0.5658 0.6025,1.83465 0,2.40045 -0.60249,0.56579 -1.95368,-0.5658 -2.55618,0 -0.60251,0.56579 0.6025,1.83466 0,2.40044 -5.28883,4.9666 0.20675,-7.58963 -5.11237,2.40044 -0.4622,0.86808 0,10.3326 0,12.00221 0,5.60104 0,11.20206 0,16.8031 0,0.80015 -0.60249,1.83465 0,2.40044 0.6025,0.56579 1.95368,-0.56579 2.55618,0 0.60251,0.56579 -0.38105,1.68476 0,2.40044 0.5389,1.01211 2.01729,1.38833 2.55619,2.40044 1.76294,3.31107 -3.09568,2.14713 2.55618,4.80089 0.76211,0.35783 1.95368,-0.56579 2.55618,0 0.10292,0.0967 0,8.72023 0,9.60177 0,6.40117 -0.85206,-0.80015 2.55618,2.40044 0.60249,0.56578 -0.6025,1.83465 0,2.40043 0.60249,0.56579 1.95368,-0.56578 2.55618,0 0.60251,0.56579 -0.38104,1.68477 0,2.40044 0.5389,1.01213 2.0173,1.38833 2.55619,2.40046 0.67938,1.27595 -0.67938,3.5249 0,4.80087 0.53889,1.01211 2.01729,1.38833 2.55618,2.40044 0.76211,1.43135 -1.20499,3.66931 0,4.80089 0.60249,0.56579 1.95368,-0.5658 2.55618,0 0.0822,0.0772 0,6.61915 0,7.20132 0,4.00074 0,8.00148 0,12.00221 0,0.80015 0,1.60029 0,2.40045 0,0.80015 -0.38106,1.68476 0,2.40044 0.53889,1.01211 2.01729,1.38833 2.55618,2.40044 0.38105,0.71567 -0.38106,1.68476 0,2.40044 0.5389,1.01212 2.01729,1.38833 2.55619,2.40044 0.38104,0.71567 -0.60251,1.83465 0,2.40045 0.60249,0.56579 1.95368,-0.5658 2.55618,0 0.60249,0.56579 -0.6025,1.83465 0,2.40044 0.60249,0.56578 1.95368,-0.56579 2.55618,0 0.60249,0.56578 -0.6025,1.83465 0,2.40044 0.60249,0.56578 1.95368,-0.56579 2.55618,0 0.60249,0.56578 0.85206,2.40044 0,2.40044 -0.85206,0 -0.85206,-2.40044 0,-2.40044 1.205,0 2.01729,1.38833 2.55618,2.40044 0.38897,0.73054 0,6.12026 0,7.20133 0,0.80014 0.85207,2.40044 0,2.40044 -0.85206,0 0.85207,-2.40044 0,-2.40044 -4.23889,0 -1.79236,3.3663 -2.55618,4.80087 -0.53889,1.01213 -2.01729,1.38833 -2.55618,2.40046 -0.33606,0.63116 0,8.34652 0,9.60176 0,6.40118 0,12.80236 0,19.20353 0,1.25525 0.33606,8.9706 0,9.60177 -0.53889,1.01211 -2.01729,1.38833 -2.55618,2.40044 -0.50676,0.95175 0.52258,6.71059 0,7.20133 -0.6025,0.56579 -1.95369,-0.56579 -2.55618,0 -1.2781,1.20022 1.27808,6.0011 0,7.20133 -0.60251,0.56579 -2.55619,0.80014 -2.55619,0 0,-0.80015 2.55619,-0.80015 2.55619,0 0,1.13157 -2.01729,1.38833 -2.55619,2.40044 -0.38106,0.71567 0,1.60029 0,2.40044 0,0.80014 -0.38106,1.68476 0,2.40044 0.5389,1.01212 2.01729,1.38832 2.55619,2.40045 0.38104,0.71566 -0.60251,1.83465 0,2.40044 0.60249,0.56578 1.95368,-0.56579 2.55618,0 0.60249,0.56578 -0.6025,1.83465 0,2.40044 0.60249,0.56578 1.95368,-0.56579 2.55618,0 0.60249,0.56578 -0.6025,1.83465 0,2.40043 0.0822,0.0772 7.0486,0 7.66855,0 9.65668,0 -11.36082,0 5.11236,0 0.85205,0 2.55617,-0.80014 2.55617,0 0,0.80015 -3.40823,0 -2.55617,0 2.55617,0 5.11237,0 7.66855,0 1.77792,0 11.85651,0.43404 12.7809,0 1.07778,-0.50605 1.70412,-1.60029 2.55618,-2.40043 0.85206,-0.80015 2.01729,-1.38833 2.55618,-2.40044 0.38106,-0.71568 -0.38105,-1.68478 0,-2.40044 0.33935,-0.63735 6.98985,-6.88266 7.66855,-7.20133 0.76211,-0.35784 1.95369,0.56578 2.55618,0 0.6025,-0.56579 -0.60249,-1.83465 0,-2.40044 0.6025,-0.5658 1.70412,0 2.55618,0 2.55619,0 5.11237,0 7.66855,0 0.85206,0 1.70412,0 2.55618,0 0.85206,0 1.95368,-0.5658 2.55618,0 0.0822,0.0772 0,6.61914 0,7.20132 0,11.24751 0,17.86751 0,24.00441 0,0.58217 -0.0822,7.12413 0,7.20133 1.205,1.13159 3.90738,-1.13157 5.11237,0 0.60249,0.56579 -0.6025,1.83465 0,2.40044 0.60249,0.5658 1.95368,-0.56579 2.55618,0 1.205,1.13159 -1.20499,3.66931 0,4.80089 0.60249,0.56579 1.95368,-0.56579 2.55618,0 0.60251,0.56579 0,1.60029 0,2.40044 0,0.80015 0,1.60029 0,2.40044 0,4.00074 0,8.00148 0,12.00221 0,0.80014 0.60251,1.83465 0,2.40045 -0.6025,0.56579 -1.79407,-0.35784 -2.55618,0 -10.63822,4.99503 2.73265,-0.16572 -2.55618,4.80088 -0.6025,0.56579 -1.95368,-0.56579 -2.55618,0 -0.6025,0.56579 0.6025,1.83465 0,2.40044 -0.6025,0.56578 -2.55619,0.80014 -2.55619,0 0,-1.13158 2.55619,-3.53202 2.55619,-2.40044 0,12.12656 -1.96449,1.8448 -5.11237,4.80088 -0.6025,0.5658 0.60249,1.83465 0,2.40045 -0.6025,0.56578 -1.95368,-0.5658 -2.55618,0 -0.6025,0.56578 0.6025,1.83465 0,2.40044 -0.6025,0.56578 -1.95368,-0.56579 -2.55618,0 -0.60249,0.56578 0.6025,1.83465 0,2.40044 -0.60249,0.56578 -1.95368,-0.56579 -2.55618,0 -0.60251,0.56578 0.6025,1.83465 0,2.40044 -1.205,1.13158 -3.58815,-0.71568 -5.11237,0 -1.07778,0.50605 -1.4784,1.89438 -2.55618,2.40045 -0.76211,0.35782 -1.95368,-0.5658 -2.55618,0 -1.205,1.13157 1.20499,3.6693 0,4.80088 -0.60249,0.56578 -1.95368,-0.56579 -2.55618,0 -0.0822,0.0772 0,6.61915 0,7.20132 0,7.20132 0,14.40265 0,21.60398 0,1.25524 0.33606,8.97059 0,9.60176 -0.5389,1.01212 -2.0173,1.38833 -2.55619,2.40045 -0.38105,0.71568 0.60251,1.83465 0,2.40044 -0.60249,0.56579 -1.95368,-0.56579 -2.55618,0 -0.60249,0.56579 0.6025,1.83465 0,2.40044 -0.60249,0.56579 -1.95368,-0.56579 -2.55618,0 -0.60249,0.56579 0.6025,1.83465 0,2.40044 -0.60249,0.5658 -1.95368,-0.56579 -2.55618,0 -0.6025,0.5658 0.6025,1.83465 0,2.40045 -0.6025,0.56579 -1.95368,-0.5658 -2.55619,0 -0.60249,0.56579 0.60251,1.83465 0,2.40044 -0.60249,0.56579 -1.95368,-0.56579 -2.55618,0 -0.60249,0.56579 0.6025,1.83465 0,2.40044 -5.28883,4.9666 0.20675,-7.58962 -5.11235,2.40044 -0.38106,0.71567 0.60249,1.83465 0,2.40044 -0.6025,0.5658 -1.95369,-0.56579 -2.55618,0 -0.60251,0.5658 0,1.6003 0,2.40045 0,1.1318 0.11584,11.8934 0,12.00221 -0.60251,0.56578 -1.95369,-0.56579 -2.5562,0 -0.60249,0.56578 0.85206,2.40043 0,2.40043 -0.85206,0 0,-3.20058 0,-2.40043 0,5.60102 0,11.20206 0,16.80308 0,0.80015 -0.60249,1.83465 0,2.40044 0.60251,0.5658 1.70412,0 2.5562,0 0.85206,1.60031 1.95368,3.10352 2.55618,4.80089 0.26944,0.75908 0,1.60029 0,2.40044 0,0.80015 0.85205,2.40044 0,2.40044 -0.85206,0 0,-3.20059 0,-2.40044 0,1.60029 0,3.20059 0,4.80089 0,0.80015 -0.6025,1.83465 0,2.40044 0.60249,0.56579 1.95368,-0.56579 2.55617,0 0.0822,0.0772 0,6.61915 0,7.20132 0,5.60104 0,11.20206 0,16.8031 0,0.80014 0,1.60029 0,2.40044 0,0.80014 0.85206,2.40044 0,2.40044 -0.85206,0 0,-3.20059 0,-2.40044 0,1.60029 0,3.20059 0,4.80089 0,0.80014 0.85206,2.40044 0,2.40044 -0.85206,0 0,-3.20059 0,-2.40044 0,1.60029 0,3.20058 0,4.80088 0,0.80014 0.85206,2.40043 0,2.40043 -0.85206,0 0,-3.20058 0,-2.40043 0,3.20058 0,6.40118 0,9.60176 0,0.80015 0.6025,1.83466 0,2.40044 -0.79151,0.74329 -11.98939,-0.74328 -12.7809,0 -0.6025,0.56579 0,1.6003 0,2.40044 0,0.80015 0,1.60031 0,2.40045 0,2.40044 0,4.80088 0,7.20132 0,0.80015 0.85206,2.40044 0,2.40044 -0.85206,0 0,-3.20058 0,-2.40044 0,1.60029 0.7621,3.36954 0,4.80089 -0.38106,0.71568 -1.95369,-0.56578 -2.55618,0 -0.79153,0.74329 0.79151,11.25892 0,12.00221 -0.60251,0.56579 -1.70412,0 -2.55619,0 -0.85206,0 -2.55618,0.80015 -2.55618,0 0,-0.80015 2.55618,-0.80015 2.55618,0 0,1.13157 -2.0173,1.38833 -2.55618,2.40044 -0.38897,0.73053 0,6.12027 0,7.20133 0,0.80015 -0.6025,1.83465 0,2.40044 0.60249,0.56579 1.79408,-0.35784 2.55618,0 1.07778,0.50605 1.55356,1.77276 2.55619,2.40044 1.58527,0.99245 3.76513,1.1353 5.11236,2.40044 0.60249,0.5658 -0.6025,1.83465 0,2.40045 0.60249,0.56579 1.70411,0 2.55617,0 1.70412,0 3.58816,-0.71568 5.11238,0 1.5242,0.71566 -1.20501,3.6693 0,4.80088 0.60249,0.56578 1.95368,-0.56579 2.55617,0 0.6025,0.56578 0,1.60029 0,2.40044 0,0.80014 0,1.60029 0,2.40044 0,5.60103 0,11.20206 0,16.80309 0,0.80015 0.6025,1.83466 0,2.40044 -0.60249,0.56579 -1.95368,-0.56578 -2.55617,0 -0.6025,0.56579 0,1.6003 0,2.40044 0,1.13181 -0.11585,11.89342 0,12.00221 0.60249,0.5658 1.95368,-0.56579 2.55617,0 0.6025,0.5658 -0.60249,1.83466 0,2.40045 0.6025,0.56579 1.95369,-0.56579 2.55618,0 0.6025,0.56579 0,1.60029 0,2.40044 0,0.80015 0,1.60029 0,2.40044 0,0.88153 0.10292,9.50517 0,9.60177 -0.60249,0.56579 -1.95368,-0.56579 -2.55618,0 -0.60249,0.56579 0.85206,2.40044 0,2.40044 -0.85206,0 0,-3.20059 0,-2.40044 0,1.60029 0,3.20058 0,4.80088"
       id="Kennebec"
       inkscape:connector-curvature="0"
       inkscape:label="#path4055" />
    <path
       style="fill:none;stroke:#000080;stroke-width:2.14;stroke-linecap:butt;stroke-linejoin:miter;stroke-opacity:1;stroke-miterlimit:4;stroke-dasharray:none"
       d="m 629.92531,339.13937 c -3.40825,2.40044 -6.81649,4.80088 -10.22473,7.20133 0,0.80015 0.6025,1.83465 0,2.40044 -0.60249,0.56579 -1.95368,-0.56579 -2.55618,0 -0.6025,0.56579 0.38106,1.68476 0,2.40044 -0.5389,1.01211 -2.01729,1.38833 -2.55619,2.40044 -0.38104,0.71567 0.60251,1.83465 0,2.40044 -1.20499,1.13158 -3.90736,-1.13158 -5.11236,0 -1.20499,1.13158 1.205,3.6693 0,4.80089 -1.20499,1.13157 -3.90736,-1.13159 -5.11235,0 -0.60251,0.56578 0.60249,1.83465 0,2.40044 -0.60251,0.56578 -1.95369,-0.56579 -2.5562,0 -0.60249,0.56578 0.60251,1.83465 0,2.40044 -0.60249,0.5658 -1.95368,-0.56579 -2.55617,0 -0.6025,0.5658 0.60249,1.83465 0,2.40045 -0.6025,0.56578 -1.95369,-0.5658 -2.55618,0 -0.25562,0.24003 -0.25562,6.96127 0,7.20132 0.60249,0.56578 1.95368,-0.56579 2.55618,0 0.60249,0.56578 0,1.60029 0,2.40043 0,0.80015 0,1.60031 0,2.40046 0,6.40117 -0.85206,-0.80015 2.55617,2.40043 0.60251,0.56579 -0.60249,1.83466 0,2.40044 0.60251,0.56579 1.95369,-0.56578 2.5562,0 0.60249,0.56579 -0.60251,1.83466 0,2.40044 0.60249,0.56579 1.95368,-0.56578 2.55618,0 0.11584,0.10879 0,10.87041 0,12.00221 0,0.80015 -0.6025,1.83465 0,2.40045 0.60249,0.56579 1.95368,-0.5658 2.55617,0 1.205,1.13158 -0.7621,3.36953 0,4.80088 0.53889,1.01211 2.0173,1.38833 2.55618,2.40044 0.76211,1.43135 -1.20499,3.6693 0,4.80089 0.6025,0.56579 1.95369,-0.5658 2.55618,0 1.2781,1.20021 -1.27808,6.00111 0,7.20132 0.60251,0.5658 1.70413,0 2.55619,0 0.85206,0 1.70412,0 2.55618,0 1.20524,0 12.66506,-0.10879 12.78091,0 0.6025,0.5658 -0.60249,1.83465 0,2.40045 1.20499,1.13157 3.90737,-1.13159 5.11236,0 0.10292,0.0967 0,8.72023 0,9.60176 0,1.6003 0,3.20059 0,4.80089 0,0.80014 0.85206,2.40044 0,2.40044 -0.85206,0 0,-3.20059 0,-2.40044 0,1.60029 0,3.20058 0,4.80088 0,0.80014 0.60251,1.83465 0,2.40045 -0.6025,0.56578 -1.95368,-0.5658 -2.55618,0 -0.60249,0.56578 0.6025,1.83465 0,2.40044 -0.60249,0.56578 -1.95368,-0.56579 -2.55618,0 -0.60249,0.56578 0.6025,1.83465 0,2.40044 -0.84922,0.79747 -4.26314,-0.79748 -5.11236,0 -0.6025,0.56578 0.6025,1.83465 0,2.40043 -0.6025,0.56579 -1.95368,-0.56578 -2.55619,0 -0.60249,0.56579 0.60251,1.83466 0,2.40044 -1.20499,1.13159 -3.90737,-1.13157 -5.11236,0 -0.60249,0.5658 0.38106,1.68478 0,2.40046 -0.53888,1.01211 -2.01729,1.38831 -2.55618,2.40043 -0.7621,1.43134 1.70412,4.80088 0,4.80088 -0.85206,0 0,-3.20058 0,-2.40044 0,1.6003 0,3.20059 0,4.80088 0,1.60031 0,3.2006 0,4.80089 0,0.80015 0.85206,2.40044 0,2.40044 -0.85206,0 0,-3.20058 0,-2.40044 0,3.20059 0,6.40119 0,9.60177 0,0.80015 0.85206,2.40044 0,2.40044 -0.85206,0 0,-3.20058 0,-2.40044 0,1.60029 0.7621,3.36954 0,4.80088 -0.38105,0.71568 -1.70413,0 -2.55619,0 -0.85206,0 -1.70412,0 -2.55618,0 -1.20523,0 -12.66506,-0.10879 -12.7809,0 -0.6025,0.56579 0.60249,1.83465 0,2.40044 -0.6025,0.5658 -1.95369,-0.56579 -2.55618,0 -0.61201,0.57472 0.58108,9.60177 0,9.60177 -0.85206,0 0,-3.20059 0,-2.40044 0,1.60029 0,3.20058 0,4.80089 0,0.80015 0.60249,1.83465 0,2.40044 -0.6025,0.56579 -1.95369,-0.56579 -2.55618,0 -0.60251,0.56579 0.85206,2.40044 0,2.40044 -0.85206,0 0,-3.20059 0,-2.40044 0,1.60029 0.76209,3.36954 0,4.80088 -0.38106,0.71567 -1.95369,-0.56579 -2.55619,0 -0.6025,0.56578 0.6025,1.83465 0,2.40044 -0.84922,0.79749 -4.26314,-0.79748 -5.11236,0 -0.6025,0.5658 0.60249,1.83465 0,2.40045 -0.10292,0.0967 -9.28601,0 -10.22473,0 -0.61994,0 -7.58635,-0.0772 -7.66855,0 -0.6025,0.56578 0.60251,1.83465 0,2.40044 -0.6025,0.56578 -1.95369,-0.56579 -2.55618,0 -0.6025,0.56578 0.60249,1.83465 0,2.40044 -0.6025,0.56578 -1.95368,-0.56579 -2.55618,0 -0.6025,0.56578 0.6025,1.83465 0,2.40044 -0.6025,0.56579 -1.95368,-0.56579 -2.55618,0 -0.60249,0.56579 0.6025,1.83465 0,2.40045 -0.60249,0.56578 -1.95368,-0.5658 -2.55618,0 -0.60251,0.56578 0,1.60029 0,2.40044 0,0.80014 0,1.60029 0,2.40044 0,3.20058 0,6.40118 0,9.60176 0,0.80015 0,3.20059 0,2.40044 0,-1.60029 0,-6.40118 0,-4.80088 0,2.40044 0,4.80088 0,7.20132 0,0.80015 0.6025,1.83465 0,2.40044 -0.0822,0.0772 -7.04861,0 -7.66855,0 -0.85206,0 -1.70412,0 -2.55618,0 -0.85206,0 -2.55618,0.80016 -2.55618,0 0,-0.80014 1.70412,0 2.55618,0"
       id="Sebasticook"
       inkscape:connector-curvature="0"
       inkscape:label="#path4057" />
    <path
       style="fill:none;stroke:#000080;stroke-width:2.44;stroke-linecap:butt;stroke-linejoin:miter;stroke-opacity:1;stroke-miterlimit:4;stroke-dasharray:none"
       d="m 422.87458,360.74335 c 2.76283,10.37802 2.55618,6.30267 2.55618,12.00221 0,4.80087 0,9.60176 0,14.40264 0,0.80015 -0.6025,1.83466 0,2.40045 1.205,1.13158 3.90736,-1.13158 5.11237,0 0.60249,0.56579 -0.60251,1.83466 0,2.40044 0.10292,0.0967 9.28599,0 10.22473,0 0.85206,0 2.55618,-0.80014 2.55618,0 0,0.80015 -3.40826,0 -2.55618,0 1.76109,0 5.50949,0 7.66853,0 0.85206,0 2.55618,-0.80014 2.55618,0 0,0.80015 -3.40824,0 -2.55618,0 1.70412,0 3.40825,0 5.11237,0 0.93873,0 10.12187,-0.0966 10.22473,0 0.6025,0.56579 -0.6025,1.83466 0,2.40044 0.6025,0.56579 1.95369,-0.56578 2.55618,0 1.20499,1.13158 -1.205,3.66931 0,4.80088 0.6025,0.5658 1.95369,-0.56579 2.55618,0 0.6025,0.5658 -0.60249,1.83465 0,2.40045 0.6025,0.56579 1.95369,-0.5658 2.55618,0 0.6025,0.56579 -0.60249,1.83465 0,2.40044 0.6025,0.56579 1.95368,-0.56579 2.55618,0 0.60251,0.56579 -0.6025,1.83465 0,2.40044 0.60251,0.56579 1.95368,-0.56579 2.55619,0 0.6025,0.56579 -0.60251,1.83465 0,2.40044 0.6025,0.56579 2.55618,-0.80015 2.55618,0 0,0.80015 -3.40824,0 -2.55618,0 11.85674,0 5.24487,0 15.33709,0 0.85206,0 1.70412,0 2.55618,0 0.85206,0 2.55618,-0.80015 2.55618,0 0,0.80015 -2.55618,-0.80015 -2.55618,0 0,3.40874 5.85113,2.40044 7.66855,2.40044"
       id="Carrabasett"
       inkscape:connector-curvature="0"
       inkscape:label="#path4059" />
    <path
       style="fill:none;stroke:#000080;stroke-width:2.44;stroke-linecap:butt;stroke-linejoin:miter;stroke-opacity:1;stroke-miterlimit:4;stroke-dasharray:none"
       d="m 353.85766,406.35174 c 6.41373,2.62463 11.48382,2.40044 17.89328,2.40044 0.85206,0 1.95369,-0.56579 2.55618,0 0.6025,0.56579 0,1.60029 0,2.40044 0,1.13181 -0.11584,11.89342 0,12.00222 1.27809,1.20021 6.39046,-1.20023 7.66855,0 5.28883,4.9666 -8.08204,-0.19415 2.55618,4.80088 0.76211,0.35784 1.70412,0 2.55618,0 0.85206,0 1.70412,0 2.55618,0 4.26031,0 8.52061,0 12.78091,0 0.85206,0 1.70412,0 2.55618,0 0.85207,0 1.95369,-0.56579 2.55619,0 0.60249,0.56579 0,1.60029 0,2.40044 0,0.80014 0,1.60029 0,2.40044 0,1.6003 0,3.20059 0,4.80089 0,0.80014 0.85206,2.40044 0,2.40044 -0.85206,0 0,-3.20059 0,-2.40044 0,1.60029 0,3.20058 0,4.80088 0,2.40045 0,4.80089 0,7.20133 0,0.80014 0,3.20058 0,2.40043 0,-1.60029 -1.70412,-4.80087 0,-4.80087 7.03887,0 0.72188,5.47877 2.55618,7.20131 0.60249,0.5658 1.79407,-0.35783 2.55618,0 2.15556,1.01213 2.9568,3.78877 5.11237,4.80089 1.5242,0.71568 3.90737,-1.13158 5.11236,0 0.60249,0.56579 -0.6025,1.83466 0,2.40044 0.60249,0.56579 1.95368,-0.56578 2.55618,0 0.79151,0.74329 -0.79152,11.25892 0,12.00221 0.60249,0.56579 1.95368,-0.56579 2.55617,0 0.60251,0.56579 -0.60249,1.83465 0,2.40044 0.60251,0.5658 1.95369,-0.56579 2.5562,0 0.60249,0.5658 -0.60251,1.83465 0,2.40045 0.60249,0.56579 1.95368,-0.5658 2.55618,0 0.60249,0.56579 -0.6025,1.83465 0,2.40044 0.60249,0.56579 1.95368,-0.56579 2.55617,0 0.6025,0.56579 -0.60249,1.83465 0,2.40044 0.0822,0.0772 7.04861,0 7.66856,0 11.07678,0 22.15357,0 33.23036,0 0.85206,0 1.70412,0 2.55618,0 0.85206,0 1.95368,0.56579 2.55618,0 0.60249,-0.56579 0,-1.60029 0,-2.40044 0,-1.1318 -0.11585,-11.89342 0,-12.00221 0.60249,-0.56578 1.95368,0.56579 2.55618,0 0.60249,-0.56578 0,-1.60029 0,-2.40045 0,-0.80014 0,-1.60029 0,-2.40044 0,-0.80014 0,-1.60029 0,-2.40044 0,-0.80014 -0.6025,-1.83465 0,-2.40044 1.205,-1.13158 3.90737,1.13158 5.11237,0 0.60249,-0.56578 -0.6025,-1.83465 0,-2.40043 1.20499,-1.13159 3.90737,1.13157 5.11236,0 3.40824,-3.2006 -4.2603,-2.40046 2.55618,-2.40046 0.85206,0 2.55619,-0.80014 2.55619,0 0,0.80015 -2.55619,0.80015 -2.55619,0 0,-1.13157 1.4784,-1.89438 2.55619,-2.40044 3.21543,-1.50976 5.11236,3.44751 5.11236,-2.40043"
       id="Sandy"
       inkscape:connector-curvature="0"
       inkscape:label="#path4061" />
    <path
       sodipodi:type="arc"
       style="fill:#008000;fill-opacity:1;stroke:none"
       id="CNWN3_dot"
       sodipodi:cx="349.28571"
       sodipodi:cy="344.50504"
       sodipodi:rx="10.714286"
       sodipodi:ry="12.142858"
       d="m 359.99999,344.50504 a 10.714286,12.142858 0 1 1 -0.004,-0.3232 l -10.71049,0.3232 z"
       sodipodi:start="0"
       sodipodi:end="6.2565659"
       transform="matrix(1.2066919,0,0,1.0155353,-249.74751,347.05835)" />
    <path
       sodipodi:type="arc"
       style="fill:#008000;fill-opacity:1;stroke:none"
       id="CNHM1_dot"
       sodipodi:cx="349.28571"
       sodipodi:cy="344.50504"
       sodipodi:rx="10.714286"
       sodipodi:ry="12.142858"
       d="m 359.99999,344.50504 a 10.714286,12.142858 0 1 1 -0.004,-0.3232 l -10.71049,0.3232 z"
       sodipodi:start="0"
       sodipodi:end="6.2565659"
       transform="matrix(1.2066919,0,0,1.0155353,-165.25274,409.61278)" />
    <path
       sodipodi:type="arc"
       style="fill:#008000;fill-opacity:1;stroke:none"
       id="GRMN3_dot"
       sodipodi:cx="349.28571"
       sodipodi:cy="344.50504"
       sodipodi:rx="10.714286"
       sodipodi:ry="12.142858"
       d="m 359.99999,344.50504 a 10.714286,12.142858 0 1 1 -0.004,-0.3232 l -10.71049,0.3232 z"
       sodipodi:start="0"
       sodipodi:end="6.2565659"
       transform="matrix(1.2066919,0,0,1.0155353,-273.71021,195.29454)" />
    <path
       sodipodi:type="arc"
       style="fill:#008000;fill-opacity:1;stroke:none"
       id="ROXM1_dot"
       sodipodi:cx="349.28571"
       sodipodi:cy="344.50504"
       sodipodi:rx="10.714286"
       sodipodi:ry="12.142858"
       d="m 359.99999,344.50504 a 10.714286,12.142858 0 1 1 -0.004,-0.3232 l -10.71049,0.3232 z"
       sodipodi:start="0"
       sodipodi:end="6.2565659"
       transform="matrix(1.2066919,0,0,1.0155353,-111.96194,129.3971)" />
    <path
       sodipodi:type="arc"
       style="fill:#008000;fill-opacity:1;stroke:none"
       id="RMFM1_dot"
       sodipodi:cx="349.28571"
       sodipodi:cy="344.50504"
       sodipodi:rx="10.714286"
       sodipodi:ry="12.142858"
       d="m 359.99999,344.50504 a 10.714286,12.142858 0 1 1 -0.004,-0.3232 l -10.71049,0.3232 z"
       sodipodi:start="0"
       sodipodi:end="6.2565659"
       transform="matrix(1.2066919,0,0,1.0155353,-86.002342,177.32251)" />
    <path
       sodipodi:type="arc"
       style="fill:#008000;fill-opacity:1;stroke:none"
       id="AUBM1_dot"
       sodipodi:cx="349.28571"
       sodipodi:cy="344.50504"
       sodipodi:rx="10.714286"
       sodipodi:ry="12.142858"
       d="m 359.99999,344.50504 a 10.714286,12.142858 0 1 1 -0.004,-0.3232 l -10.71049,0.3232 z"
       sodipodi:start="0"
       sodipodi:end="6.2565659"
       transform="matrix(1.2066919,0,0,1.0155353,-12.117338,329.08632)" />
    <path
       sodipodi:type="arc"
       style="fill:#b3b3b3;fill-opacity:1;stroke:none"
       id="RKWM1_dot"
       sodipodi:cx="349.28571"
       sodipodi:cy="344.50504"
       sodipodi:rx="10.714286"
       sodipodi:ry="12.142858"
       d="m 359.99999,344.50504 a 10.714286,12.142858 0 1 1 -0.004,-0.3232 l -10.71049,0.3232 z"
       sodipodi:start="0"
       sodipodi:end="6.2565659"
       transform="matrix(1.2066919,0,0,1.0155353,103.70241,-190.10565)" />
    <path
       sodipodi:type="arc"
       style="fill:#b3b3b3;fill-opacity:1;stroke:none"
       id="FRKM1_dot"
       sodipodi:cx="349.28571"
       sodipodi:cy="344.50504"
       sodipodi:rx="10.714286"
       sodipodi:ry="12.142858"
       d="m 359.99999,344.50504 a 10.714286,12.142858 0 1 1 -0.004,-0.3232 l -10.71049,0.3232 z"
       sodipodi:start="0"
       sodipodi:end="6.2565659"
       transform="matrix(1.2066919,0,0,1.0155353,57.773896,-112.22686)" />
    <path
       sodipodi:type="arc"
       style="fill:#008000;fill-opacity:1;stroke:none"
       id="WYMM1_dot"
       sodipodi:cx="349.28571"
       sodipodi:cy="344.50504"
       sodipodi:rx="10.714286"
       sodipodi:ry="12.142858"
       d="m 359.99999,344.50504 a 10.714286,12.142858 0 1 1 -0.004,-0.3232 l -10.71049,0.3232 z"
       sodipodi:start="0"
       sodipodi:end="6.2565659"
       transform="matrix(1.2066919,0,0,1.0155353,73.749033,-22.366707)"
       inkscape:label="#WYMM1_dot" />
    <path
       sodipodi:type="arc"
       style="fill:#008000;fill-opacity:1;stroke:none"
       id="NANM1_dot"
       sodipodi:cx="349.28571"
       sodipodi:cy="344.50504"
       sodipodi:rx="10.714286"
       sodipodi:ry="12.142858"
       d="m 359.99999,344.50504 a 10.714286,12.142858 0 1 1 -0.004,-0.3232 l -10.71049,0.3232 z"
       sodipodi:start="0"
       sodipodi:end="6.2565659"
       transform="matrix(1.2066919,0,0,1.0155353,49.786328,53.515193)" />
    <path
       sodipodi:type="arc"
       style="fill:#008000;fill-opacity:1;stroke:none"
       id="MERM1_dot"
       sodipodi:cx="349.28571"
       sodipodi:cy="344.50504"
       sodipodi:rx="10.714286"
       sodipodi:ry="12.142858"
       d="m 359.99999,344.50504 a 10.714286,12.142858 0 1 1 -0.004,-0.3232 l -10.71049,0.3232 z"
       sodipodi:start="0"
       sodipodi:end="6.2565659"
       transform="matrix(1.2066919,0,0,1.0155353,63.764572,115.41886)" />
    <path
       sodipodi:type="arc"
       style="fill:#008000;fill-opacity:1;stroke:none"
       id="SKOM1_dot"
       sodipodi:cx="349.28571"
       sodipodi:cy="344.50504"
       sodipodi:rx="10.714286"
       sodipodi:ry="12.142858"
       d="m 359.99999,344.50504 a 10.714286,12.142858 0 1 1 -0.004,-0.3232 l -10.71049,0.3232 z"
       sodipodi:start="0"
       sodipodi:end="6.2565659"
       transform="matrix(1.2066919,0,0,1.0155353,125.66823,87.462367)" />
    <path
       sodipodi:type="arc"
       style="fill:#008000;fill-opacity:1;stroke:none"
       id="PITM1_dot"
       sodipodi:cx="349.28571"
       sodipodi:cy="344.50504"
       sodipodi:rx="10.714286"
       sodipodi:ry="12.142858"
       d="m 359.99999,344.50504 a 10.714286,12.142858 0 1 1 -0.004,-0.3232 l -10.71049,0.3232 z"
       sodipodi:start="0"
       sodipodi:end="6.2565659"
       transform="matrix(1.2066919,0,0,1.0155353,203.54702,101.44061)" />
    <path
       sodipodi:type="arc"
       style="fill:#008000;fill-opacity:1;stroke:none"
       id="SIDM1_dot"
       sodipodi:cx="349.28571"
       sodipodi:cy="344.50504"
       sodipodi:rx="10.714286"
       sodipodi:ry="12.142858"
       d="m 359.99999,344.50504 a 10.714286,12.142858 0 1 1 -0.004,-0.3232 l -10.71049,0.3232 z"
       sodipodi:start="0"
       sodipodi:end="6.2565659"
       transform="matrix(1.2066919,0,0,1.0155353,125.66823,189.30386)" />
    <path
       sodipodi:type="arc"
       style="fill:#008000;fill-opacity:1;stroke:none"
       id="ASTM1_dot"
       sodipodi:cx="349.28571"
       sodipodi:cy="344.50504"
       sodipodi:rx="10.714286"
       sodipodi:ry="12.142858"
       d="m 359.99999,344.50504 a 10.714286,12.142858 0 1 1 -0.004,-0.3232 l -10.71049,0.3232 z"
       sodipodi:start="0"
       sodipodi:end="6.2565659"
       transform="matrix(1.2066919,0,0,1.0155353,101.70552,251.20753)"
       inkscape:label="#ASTM1_dot" />
    <path
       sodipodi:type="arc"
       style="fill:#b3b3b3;fill-opacity:1;stroke:none"
       id="CASM1_dot"
       sodipodi:cx="349.28571"
       sodipodi:cy="344.50504"
       sodipodi:rx="10.714286"
       sodipodi:ry="12.142858"
       d="m 359.99999,344.50504 a 10.714286,12.142858 0 1 1 -0.004,-0.3232 l -10.71049,0.3232 z"
       sodipodi:start="0"
       sodipodi:end="6.2565659"
       transform="matrix(1.2066919,0,0,1.0155353,113.68688,448.89985)" />
    <text
       xml:space="preserve"
       style="font-size:24px;font-style:normal;font-weight:normal;line-height:125%;letter-spacing:0px;word-spacing:0px;fill:#000000;fill-opacity:1;stroke:none;font-family:Sans"
       x="312.01636"
       y="842.75305"
       id="text3903-1-3-17-6"
       sodipodi:linespacing="125%"
       inkscape:transform-center-x="118.74965"
       inkscape:transform-center-y="-298.99466"><tspan
         sodipodi:role="line"
         id="tspan3905-7-4-77-14"
         x="312.01636"
         y="842.75305"
         style="font-size:22px;font-style:normal;font-variant:normal;font-weight:normal;font-stretch:normal;text-align:start;line-height:125%;writing-mode:lr-tb;text-anchor:start;font-family:Sans;-inkscape-font-specification:Sans">WBXM1</tspan></text>
    <rect
       style="opacity:0.97000002;fill:#cccccc;fill-opacity:1;stroke:#1a1a1a;stroke-width:2.33980727;stroke-miterlimit:4;stroke-dasharray:none"
       id="WBXM1_fcst_box"
       width="60.82011"
       height="25.339258"
       x="395.91364"
       y="837.83435"
       inkscape:label="#WBXM1_fcst_box" />
    <text
       id="WBXM1ME"
       x="402.67218"
       y="857.38251"
       style="font-size:18px;line-height:125%;fill:#000000;font-family:Arial"
       inkscape:label="#WBXM1ME_SQIN"
       sodipodi:linespacing="125%">
      <tspan
         style="font-size:22px;font-style:normal;font-variant:normal;font-weight:normal;font-stretch:normal;text-align:start;line-height:125%;writing-mode:lr-tb;text-anchor:start;fill:#000000;font-family:Arial;-inkscape-font-specification:Arial"
         id="tspan163-3">%LASTVALUE(NF1)%</tspan>
    </text>
    <rect
       style="opacity:0.97000002;fill:#cccccc;fill-opacity:1;stroke:#1a1a1a;stroke-width:2.33980727;stroke-miterlimit:4;stroke-dasharray:none"
       id="WBXM1_obs_box"
       width="60.82011"
       height="25.339258"
       x="395.3219"
       y="807.52979"
       inkscape:label="#WBXM1_obs_box" />
    <text
       id="WBXM1"
       x="401.48859"
       y="828.50647"
       style="font-size:18px;line-height:125%;fill:#000000;font-family:Arial"
       inkscape:label="#WBXM1_RQOT"
       sodipodi:linespacing="125%">
      <tspan
         style="font-size:22px;font-style:normal;font-variant:normal;font-weight:normal;font-stretch:normal;text-align:start;line-height:125%;writing-mode:lr-tb;text-anchor:start;fill:#000000;font-family:Arial;-inkscape-font-specification:Arial"
         id="tspan6282-2-6-4-3-2-13-6-2">%LASTVALUE(NF1)%</tspan>
    </text>
    <path
       sodipodi:type="arc"
       style="fill:#008000;fill-opacity:1;stroke:none"
       id="WBXM1_dot"
       sodipodi:cx="349.28571"
       sodipodi:cy="344.50504"
       sodipodi:rx="10.714286"
       sodipodi:ry="12.142858"
       d="m 359.99999,344.50504 a 10.714286,12.142858 0 1 1 -0.004,-0.3232 l -10.71049,0.3232 z"
       sodipodi:start="0"
       sodipodi:end="6.2565659"
       transform="matrix(1.2066919,0,0,1.0155353,-121.9464,462.87809)" />
    <text
       xml:space="preserve"
       style="font-size:24px;font-style:normal;font-weight:normal;line-height:125%;letter-spacing:0px;word-spacing:0px;fill:#000000;fill-opacity:1;stroke:none;font-family:Sans"
       x="174.60396"
       y="792.17999"
       id="text3903-1-3-17-6-8"
       sodipodi:linespacing="125%"
       inkscape:transform-center-x="118.74965"
       inkscape:transform-center-y="-298.99466"><tspan
         sodipodi:role="line"
         id="tspan3905-7-4-77-14-2"
         x="174.60396"
         y="792.17999"
         style="font-size:22px;font-style:normal;font-variant:normal;font-weight:normal;font-stretch:normal;text-align:start;line-height:125%;writing-mode:lr-tb;text-anchor:start;font-family:Sans;-inkscape-font-specification:Sans">CNHM1</tspan></text>
    <rect
       style="opacity:0.97000002;fill:#cccccc;fill-opacity:1;stroke:#1a1a1a;stroke-width:2.33980727;stroke-miterlimit:4;stroke-dasharray:none"
       id="CNHM1_fcst_box"
       width="60.82011"
       height="25.339258"
       x="106.73743"
       y="795.24884"
       inkscape:label="#CNHM1_fcst_box" />
    <text
       id="CNHM1ME"
       x="113.49597"
       y="814.79706"
       style="font-size:18px;line-height:125%;fill:#000000;font-family:Arial"
       inkscape:label="#CNHM1ME_SSTG"
       sodipodi:linespacing="125%">
      <tspan
         style="font-size:22px;font-style:normal;font-variant:normal;font-weight:normal;font-stretch:normal;text-align:start;line-height:125%;writing-mode:lr-tb;text-anchor:start;fill:#000000;font-family:Arial;-inkscape-font-specification:Arial"
         id="tspan163-3-9">%LASTVALUE(NF1)%</tspan>
    </text>
    <rect
       style="opacity:0.97000002;fill:#cccccc;fill-opacity:1;stroke:#1a1a1a;stroke-width:2.33980727;stroke-miterlimit:4;stroke-dasharray:none"
       id="CNHM1_obs_box"
       width="60.82011"
       height="25.339258"
       x="106.14569"
       y="764.94427"
       inkscape:label="#CNHM1_obs_box" />
    <text
       id="CNHM1"
       x="112.31238"
       y="785.92096"
       style="font-size:18px;line-height:125%;fill:#000000;font-family:Arial"
       inkscape:label="#CNHM1_STG"
       sodipodi:linespacing="125%">
      <tspan
         style="font-size:22px;font-style:normal;font-variant:normal;font-weight:normal;font-stretch:normal;text-align:start;line-height:125%;writing-mode:lr-tb;text-anchor:start;fill:#000000;font-family:Arial;-inkscape-font-specification:Arial"
         id="tspan6282-2-6-4-3-2-13-6-2-1">%LASTVALUE(NF1)%</tspan>
    </text>
    <text
       xml:space="preserve"
       style="font-size:24px;font-style:normal;font-weight:normal;line-height:125%;letter-spacing:0px;word-spacing:0px;fill:#000000;fill-opacity:1;stroke:none;font-family:Sans"
       x="106.70963"
       y="728.27948"
       id="text3903-1-3-17-6-3"
       sodipodi:linespacing="125%"
       inkscape:transform-center-x="118.74965"
       inkscape:transform-center-y="-298.99466"><tspan
         sodipodi:role="line"
         id="tspan3905-7-4-77-14-5"
         x="106.70963"
         y="728.27948"
         style="font-size:22px;font-style:normal;font-variant:normal;font-weight:normal;font-stretch:normal;text-align:start;line-height:125%;writing-mode:lr-tb;text-anchor:start;font-family:Sans;-inkscape-font-specification:Sans">CNWN3</tspan></text>
    <rect
       style="opacity:0.97000002;fill:#cccccc;fill-opacity:1;stroke:#1a1a1a;stroke-width:2.33980727;stroke-miterlimit:4;stroke-dasharray:none"
       id="CNWN3_fcst_box"
       width="60.82011"
       height="25.339258"
       x="34.849339"
       y="723.36078"
       inkscape:label="#CNWN3_fcst_box" />
    <text
       id="CNWN3ME"
       x="41.607883"
       y="742.90894"
       style="font-size:18px;line-height:125%;fill:#000000;font-family:Arial"
       inkscape:label="#CNWN3ME_SSTG"
       sodipodi:linespacing="125%">
      <tspan
         style="font-size:22px;font-style:normal;font-variant:normal;font-weight:normal;font-stretch:normal;text-align:start;line-height:125%;writing-mode:lr-tb;text-anchor:start;fill:#000000;font-family:Arial;-inkscape-font-specification:Arial"
         id="tspan163-3-98">%LASTVALUE(NF1)%</tspan>
    </text>
    <rect
       style="opacity:0.97000002;fill:#cccccc;fill-opacity:1;stroke:#1a1a1a;stroke-width:2.33980727;stroke-miterlimit:4;stroke-dasharray:none"
       id="CNWN3_obs_box"
       width="60.82011"
       height="25.339258"
       x="34.257603"
       y="693.05621"
       inkscape:label="#CNWN3_obs_box" />
    <text
       id="CNWN3"
       x="40.42429"
       y="714.0329"
       style="font-size:18px;line-height:125%;fill:#000000;font-family:Arial"
       inkscape:label="#CNWN3_STG"
       sodipodi:linespacing="125%">
      <tspan
         style="font-size:22px;font-style:normal;font-variant:normal;font-weight:normal;font-stretch:normal;text-align:start;line-height:125%;writing-mode:lr-tb;text-anchor:start;fill:#000000;font-family:Arial;-inkscape-font-specification:Arial"
         id="tspan6282-2-6-4-3-2-13-6-2-4">%LASTVALUE(NF1)%</tspan>
    </text>
    <text
       xml:space="preserve"
       style="font-size:24px;font-style:normal;font-weight:normal;line-height:125%;letter-spacing:0px;word-spacing:0px;fill:#000000;fill-opacity:1;stroke:none;font-family:Sans"
       x="104.71272"
       y="582.50629"
       id="text3903-1-3-17-6-0"
       sodipodi:linespacing="125%"
       inkscape:transform-center-x="118.74965"
       inkscape:transform-center-y="-298.99466"><tspan
         sodipodi:role="line"
         id="tspan3905-7-4-77-14-7"
         x="104.71272"
         y="582.50629"
         style="font-size:22px;font-style:normal;font-variant:normal;font-weight:normal;font-stretch:normal;text-align:start;line-height:125%;writing-mode:lr-tb;text-anchor:start;font-family:Sans;-inkscape-font-specification:Sans">GRMN3</tspan></text>
    <rect
       style="opacity:0.97000002;fill:#cccccc;fill-opacity:1;stroke:#1a1a1a;stroke-width:2.33980727;stroke-miterlimit:4;stroke-dasharray:none"
       id="GRMN3_fcst_box"
       width="60.82011"
       height="25.339258"
       x="36.846207"
       y="575.5907"
       inkscape:label="#GRMN3_fcst_box" />
    <text
       id="GRMN3ME"
       x="43.604752"
       y="595.13885"
       style="font-size:18px;line-height:125%;fill:#000000;font-family:Arial"
       inkscape:label="#GRMN3ME_SSTG"
       sodipodi:linespacing="125%">
      <tspan
         style="font-size:22px;font-style:normal;font-variant:normal;font-weight:normal;font-stretch:normal;text-align:start;line-height:125%;writing-mode:lr-tb;text-anchor:start;fill:#000000;font-family:Arial;-inkscape-font-specification:Arial"
         id="tspan163-3-6">%LASTVALUE(NF1)%</tspan>
    </text>
    <rect
       style="opacity:0.97000002;fill:#cccccc;fill-opacity:1;stroke:#1a1a1a;stroke-width:2.33980727;stroke-miterlimit:4;stroke-dasharray:none"
       id="GRMN3_obs_box"
       width="60.82011"
       height="25.339258"
       x="36.254471"
       y="545.28613"
       inkscape:label="#GRMN3_obs_box" />
    <text
       id="GRMN3"
       x="42.421158"
       y="566.26282"
       style="font-size:18px;line-height:125%;fill:#000000;font-family:Arial"
       inkscape:label="#GRMN3_STG"
       sodipodi:linespacing="125%">
      <tspan
         style="font-size:22px;font-style:normal;font-variant:normal;font-weight:normal;font-stretch:normal;text-align:start;line-height:125%;writing-mode:lr-tb;text-anchor:start;fill:#000000;font-family:Arial;-inkscape-font-specification:Arial"
         id="tspan6282-2-6-4-3-2-13-6-2-3">%LASTVALUE(NF1)%</tspan>
    </text>
<!--    <flowRoot
       xml:space="preserve"
       id="flowRoot5726"
       style="fill:black;stroke:none;stroke-opacity:1;stroke-width:1px;stroke-linejoin:miter;stroke-linecap:butt;fill-opacity:1;font-family:Sans;font-style:normal;font-weight:normal;font-size:40px;line-height:125%;letter-spacing:0px;word-spacing:0px"><flowRegion
         id="flowRegion5728"><rect
           id="rect5730"
           width="371.42194"
           height="125.80421"
           x="-367.42816"
           y="481.25101" /></flowRegion><flowPara
         id="flowPara5732"></flowPara></flowRoot>-->    <text
       xml:space="preserve"
       style="font-size:24px;font-style:normal;font-weight:normal;line-height:125%;letter-spacing:0px;word-spacing:0px;fill:#000000;fill-opacity:1;stroke:none;font-family:Sans"
       x="212.54488"
       y="466.68655"
       id="text3903-1-3-17-6-6"
       sodipodi:linespacing="125%"
       inkscape:transform-center-x="118.74965"
       inkscape:transform-center-y="-298.99466"><tspan
         sodipodi:role="line"
         id="tspan3905-7-4-77-14-1"
         x="212.54488"
         y="466.68655"
         style="font-size:22px;font-style:normal;font-variant:normal;font-weight:normal;font-stretch:normal;text-align:start;line-height:125%;writing-mode:lr-tb;text-anchor:start;font-family:Sans;-inkscape-font-specification:Sans">ROXM1</tspan></text>
    <rect
       style="opacity:0.97000002;fill:#cccccc;fill-opacity:1;stroke:#1a1a1a;stroke-width:2.33980727;stroke-miterlimit:4;stroke-dasharray:none"
       id="ROXM1_fcst_box"
       width="60.82011"
       height="25.339258"
       x="140.68456"
       y="463.76474"
       inkscape:label="#ROXM1_fcst_box" />
    <text
       id="ROXM1ME"
       x="147.4431"
       y="483.3129"
       style="font-size:18px;line-height:125%;fill:#000000;font-family:Arial"
       inkscape:label="#ROXM1ME_SSTG"
       sodipodi:linespacing="125%">
      <tspan
         style="font-size:22px;font-style:normal;font-variant:normal;font-weight:normal;font-stretch:normal;text-align:start;line-height:125%;writing-mode:lr-tb;text-anchor:start;fill:#000000;font-family:Arial;-inkscape-font-specification:Arial"
         id="tspan163-3-5">%LASTVALUE(NF1)%</tspan>
    </text>
    <rect
       style="opacity:0.97000002;fill:#cccccc;fill-opacity:1;stroke:#1a1a1a;stroke-width:2.33980727;stroke-miterlimit:4;stroke-dasharray:none"
       id="ROXM1_obs_box"
       width="60.82011"
       height="25.339258"
       x="140.09282"
       y="433.46017"
       inkscape:label="#ROXM1_obs_box" />
    <text
       id="ROXM1"
       x="146.25951"
       y="454.43686"
       style="font-size:18px;line-height:125%;fill:#000000;font-family:Arial"
       inkscape:label="#ROXM1_STG"
       sodipodi:linespacing="125%">
      <tspan
         style="font-size:22px;font-style:normal;font-variant:normal;font-weight:normal;font-stretch:normal;text-align:start;line-height:125%;writing-mode:lr-tb;text-anchor:start;fill:#000000;font-family:Arial;-inkscape-font-specification:Arial"
         id="tspan6282-2-6-4-3-2-13-6-2-42">%LASTVALUE(NF1)%</tspan>
    </text>
    <text
       xml:space="preserve"
       style="font-size:24px;font-style:normal;font-weight:normal;line-height:125%;letter-spacing:0px;word-spacing:0px;fill:#000000;fill-opacity:1;stroke:none;font-family:Sans"
       x="340.34601"
       y="564.5343"
       id="text3903-1-3-17-6-09"
       sodipodi:linespacing="125%"
       inkscape:transform-center-x="118.74965"
       inkscape:transform-center-y="-298.99466"><tspan
         sodipodi:role="line"
         id="tspan3905-7-4-77-14-73"
         x="340.34601"
         y="564.5343"
         style="font-size:22px;font-style:normal;font-variant:normal;font-weight:normal;font-stretch:normal;text-align:start;line-height:125%;writing-mode:lr-tb;text-anchor:start;font-family:Sans;-inkscape-font-specification:Sans">RMFM1</tspan></text>
    <rect
       style="opacity:0.97000002;fill:#cccccc;fill-opacity:1;stroke:#1a1a1a;stroke-width:2.33980727;stroke-miterlimit:4;stroke-dasharray:none"
       id="RMFM1_fcst_box"
       width="60.82011"
       height="25.339258"
       x="270.48257"
       y="577.58759"
       inkscape:label="#RMFM1_fcst_box" />
    <text
       id="RMFM1ME"
       x="277.24112"
       y="597.13574"
       style="font-size:18px;line-height:125%;fill:#000000;font-family:Arial"
       inkscape:label="#RMFM1ME_SSTG"
       sodipodi:linespacing="125%">
      <tspan
         style="font-size:22px;font-style:normal;font-variant:normal;font-weight:normal;font-stretch:normal;text-align:start;line-height:125%;writing-mode:lr-tb;text-anchor:start;fill:#000000;font-family:Arial;-inkscape-font-specification:Arial"
         id="tspan163-3-7">%LASTVALUE(NF1)%</tspan>
    </text>
    <rect
       style="opacity:0.97000002;fill:#cccccc;fill-opacity:1;stroke:#1a1a1a;stroke-width:2.33980727;stroke-miterlimit:4;stroke-dasharray:none"
       id="RMFM1_obs_box"
       width="60.82011"
       height="25.339258"
       x="269.89084"
       y="547.28302"
       inkscape:label="#RMFM1_obs_box" />
    <text
       id="RMFM1"
       x="276.05753"
       y="568.2597"
       style="font-size:18px;line-height:125%;fill:#000000;font-family:Arial"
       inkscape:label="#RMFM1_STG"
       sodipodi:linespacing="125%">
      <tspan
         style="font-size:22px;font-style:normal;font-variant:normal;font-weight:normal;font-stretch:normal;text-align:start;line-height:125%;writing-mode:lr-tb;text-anchor:start;fill:#000000;font-family:Arial;-inkscape-font-specification:Arial"
         id="tspan6282-2-6-4-3-2-13-6-2-6">%LASTVALUE(NF1)%</tspan>
    </text>
    <text
       xml:space="preserve"
       style="font-size:24px;font-style:normal;font-weight:normal;line-height:125%;letter-spacing:0px;word-spacing:0px;fill:#000000;fill-opacity:1;stroke:none;font-family:Sans"
       x="316.3833"
       y="684.34778"
       id="text3903-1-3-17-6-01"
       sodipodi:linespacing="125%"
       inkscape:transform-center-x="118.74965"
       inkscape:transform-center-y="-298.99466"><tspan
         sodipodi:role="line"
         id="tspan3905-7-4-77-14-6"
         x="316.3833"
         y="684.34778"
         style="font-size:22px;font-style:normal;font-variant:normal;font-weight:normal;font-stretch:normal;text-align:start;line-height:125%;writing-mode:lr-tb;text-anchor:start;font-family:Sans;-inkscape-font-specification:Sans">AUBM1</tspan></text>
    <rect
       style="opacity:0.97000002;fill:#cccccc;fill-opacity:1;stroke:#1a1a1a;stroke-width:2.33980727;stroke-miterlimit:4;stroke-dasharray:none"
       id="AUBM1_fcst_box"
       width="60.82011"
       height="25.339258"
       x="248.51677"
       y="675.4353"
       inkscape:label="#AUBM1_fcst_box" />
    <text
       id="AUBM1ME"
       x="255.27531"
       y="694.98346"
       style="font-size:18px;line-height:125%;fill:#000000;font-family:Arial"
       inkscape:label="#AUBM1ME_SSTG"
       sodipodi:linespacing="125%">
      <tspan
         style="font-size:22px;font-style:normal;font-variant:normal;font-weight:normal;font-stretch:normal;text-align:start;line-height:125%;writing-mode:lr-tb;text-anchor:start;fill:#000000;font-family:Arial;-inkscape-font-specification:Arial"
         id="tspan163-3-57">%LASTVALUE(NF1)%</tspan>
    </text>
    <rect
       style="opacity:0.97000002;fill:#cccccc;fill-opacity:1;stroke:#1a1a1a;stroke-width:2.33980727;stroke-miterlimit:4;stroke-dasharray:none"
       id="AUBM1_obs_box"
       width="60.82011"
       height="25.339258"
       x="247.92503"
       y="645.13074"
       inkscape:label="#AUBM1_obs_box" />
    <text
       id="AUBM1"
       x="254.09172"
       y="666.10742"
       style="font-size:18px;line-height:125%;fill:#000000;font-family:Arial"
       inkscape:label="#AUBM1_STG"
       sodipodi:linespacing="125%">
      <tspan
         style="font-size:22px;font-style:normal;font-variant:normal;font-weight:normal;font-stretch:normal;text-align:start;line-height:125%;writing-mode:lr-tb;text-anchor:start;fill:#000000;font-family:Arial;-inkscape-font-specification:Arial"
         id="tspan6282-2-6-4-3-2-13-6-2-5">%LASTVALUE(NF1)%</tspan>
    </text>
    <text
       xml:space="preserve"
       style="font-size:24px;font-style:normal;font-weight:normal;line-height:125%;letter-spacing:0px;word-spacing:0px;fill:#000000;fill-opacity:1;stroke:none;font-family:Sans"
       x="528.05389"
       y="652.39752"
       id="text3903-1-3-17-6-4"
       sodipodi:linespacing="125%"
       inkscape:transform-center-x="118.74965"
       inkscape:transform-center-y="-298.99466"><tspan
         sodipodi:role="line"
         id="tspan3905-7-4-77-14-12"
         x="528.05389"
         y="652.39752"
         style="font-size:22px;font-style:normal;font-variant:normal;font-weight:normal;font-stretch:normal;text-align:start;line-height:125%;writing-mode:lr-tb;text-anchor:start;font-family:Sans;-inkscape-font-specification:Sans">ASTM1</tspan></text>
    <rect
       style="opacity:0.97000002;fill:#cccccc;fill-opacity:1;stroke:#1a1a1a;stroke-width:2.33980727;stroke-miterlimit:4;stroke-dasharray:none"
       id="ASTM1_fcst_box"
       width="60.82011"
       height="25.339258"
       x="617.94189"
       y="657.46332"
       inkscape:label="#ASTM1_fcst_box" />
    <text
       id="ASTM1ME"
       x="624.70044"
       y="677.01141"
       style="font-size:18px;line-height:125%;fill:#000000;font-family:Arial"
       inkscape:label="#ASTM1ME_SSTG"
       sodipodi:linespacing="125%">
      <tspan
         style="font-size:22px;font-style:normal;font-variant:normal;font-weight:normal;font-stretch:normal;text-align:start;line-height:125%;writing-mode:lr-tb;text-anchor:start;fill:#000000;font-family:Arial;-inkscape-font-specification:Arial"
         id="tspan163-3-0">%LASTVALUE(NF1)%</tspan>
    </text>
    <rect
       style="opacity:0.97000002;fill:#cccccc;fill-opacity:1;stroke:#1a1a1a;stroke-width:2.33980727;stroke-miterlimit:4;stroke-dasharray:none"
       id="ASTM1_obs_box"
       width="60.82011"
       height="25.339258"
       x="617.35016"
       y="627.15875"
       inkscape:label="#ASTM1_obs_box" />
    <text
       id="ASTM1"
       x="623.51685"
       y="648.13544"
       style="font-size:18px;line-height:125%;fill:#000000;font-family:Arial"
       inkscape:label="#ASTM1_STG"
       sodipodi:linespacing="125%">
      <tspan
         style="font-size:22px;font-style:normal;font-variant:normal;font-weight:normal;font-stretch:normal;text-align:start;line-height:125%;writing-mode:lr-tb;text-anchor:start;fill:#000000;font-family:Arial;-inkscape-font-specification:Arial"
         id="tspan6282-2-6-4-3-2-13-6-2-0">%LASTVALUE(NF1)%</tspan>
    </text>
    <text
       xml:space="preserve"
       style="font-size:24px;font-style:normal;font-weight:normal;line-height:125%;letter-spacing:0px;word-spacing:0px;fill:#000000;fill-opacity:1;stroke:none;font-family:Sans"
       x="546.02594"
       y="822.1333"
       id="text3903-1-3-17-6-1"
       sodipodi:linespacing="125%"
       inkscape:transform-center-x="118.74965"
       inkscape:transform-center-y="-298.99466"><tspan
         sodipodi:role="line"
         id="tspan3905-7-4-77-14-4"
         x="546.02594"
         y="822.1333"
         style="font-size:22px;font-style:normal;font-variant:normal;font-weight:normal;font-stretch:normal;text-align:start;line-height:125%;writing-mode:lr-tb;text-anchor:start;font-family:Sans;-inkscape-font-specification:Sans">CASM1</tspan></text>
    <rect
       style="opacity:0.97000002;fill:#cccccc;fill-opacity:1;stroke:#1a1a1a;stroke-width:2.33980727;stroke-miterlimit:4;stroke-dasharray:none"
       id="CASM1_fcst_box"
       width="60.82011"
       height="25.339258"
       x="629.92322"
       y="817.2146"
       inkscape:label="#CASM1_fcst_box" />
    <text
       id="CASM1ME"
       x="636.68176"
       y="836.76282"
       style="font-size:18px;line-height:125%;fill:#000000;font-family:Arial"
       inkscape:label="#CASM1ME_SSTG"
       sodipodi:linespacing="125%">
      <tspan
         style="font-size:22px;font-style:normal;font-variant:normal;font-weight:normal;font-stretch:normal;text-align:start;line-height:125%;writing-mode:lr-tb;text-anchor:start;fill:#000000;font-family:Arial;-inkscape-font-specification:Arial"
         id="tspan163-3-60">%LASTVALUE(NF1)%</tspan>
    </text>
    <rect
       style="opacity:0.97000002;fill:#cccccc;fill-opacity:1;stroke:#1a1a1a;stroke-width:2.33980727;stroke-miterlimit:4;stroke-dasharray:none"
       id="CASM1_obs_box"
       width="60.82011"
       height="25.339258"
       x="629.33142"
       y="786.9101"
       inkscape:label="#CASM1_obs_box" />
    <text
       id="CASM1"
       x="635.49817"
       y="807.88672"
       style="font-size:18px;line-height:125%;fill:#000000;font-family:Arial"
       inkscape:label="#CASM1_STG"
       sodipodi:linespacing="125%">
      <tspan
         style="font-size:22px;font-style:normal;font-variant:normal;font-weight:normal;font-stretch:normal;text-align:start;line-height:125%;writing-mode:lr-tb;text-anchor:start;fill:#000000;font-family:Arial;-inkscape-font-specification:Arial"
         id="tspan6282-2-6-4-3-2-13-6-2-7">%LASTVALUE(NF1)%</tspan>
    </text>
    <text
       xml:space="preserve"
       style="font-size:24px;font-style:normal;font-weight:normal;line-height:125%;letter-spacing:0px;word-spacing:0px;fill:#000000;fill-opacity:1;stroke:none;font-family:Sans"
       x="530.05072"
       y="404.78287"
       id="text3903-1-3-17-6-17"
       sodipodi:linespacing="125%"
       inkscape:transform-center-x="118.74965"
       inkscape:transform-center-y="-298.99466"><tspan
         sodipodi:role="line"
         id="tspan3905-7-4-77-14-77"
         x="530.05072"
         y="404.78287"
         style="font-size:22px;font-style:normal;font-variant:normal;font-weight:normal;font-stretch:normal;text-align:start;line-height:125%;writing-mode:lr-tb;text-anchor:start;font-family:Sans;-inkscape-font-specification:Sans">SKOM1</tspan></text>
    <rect
       style="opacity:0.97000002;fill:#cccccc;fill-opacity:1;stroke:#1a1a1a;stroke-width:2.33980727;stroke-miterlimit:4;stroke-dasharray:none"
       id="SKOM1_fcst_box"
       width="60.82011"
       height="25.339258"
       x="611.95111"
       y="389.87973"
       inkscape:label="#SKOM1_fcst_box" />
    <text
       id="SKOM1ME"
       x="618.70966"
       y="409.42783"
       style="font-size:18px;line-height:125%;fill:#000000;font-family:Arial"
       inkscape:label="#SKOM1ME_SQIN"
       sodipodi:linespacing="125%">
      <tspan
         style="font-size:22px;font-style:normal;font-variant:normal;font-weight:normal;font-stretch:normal;text-align:start;line-height:125%;writing-mode:lr-tb;text-anchor:start;fill:#000000;font-family:Arial;-inkscape-font-specification:Arial"
         id="tspan163-3-73">%LASTVALUE(NF1)%</tspan>
    </text>
    <rect
       style="opacity:0.97000002;fill:#cccccc;fill-opacity:1;stroke:#1a1a1a;stroke-width:2.33980727;stroke-miterlimit:4;stroke-dasharray:none"
       id="SKOM1_obs_box"
       width="60.82011"
       height="25.339258"
       x="611.35931"
       y="359.57516"
       inkscape:label="#SKOM1_obs_box" />
    <text
       id="SKOM1"
       x="617.52606"
       y="380.55185"
       style="font-size:18px;line-height:125%;fill:#000000;font-family:Arial"
       inkscape:label="#SKOM1_RQOT"
       sodipodi:linespacing="125%">
      <tspan
         style="font-size:22px;font-style:normal;font-variant:normal;font-weight:normal;font-stretch:normal;text-align:start;line-height:125%;writing-mode:lr-tb;text-anchor:start;fill:#000000;font-family:Arial;-inkscape-font-specification:Arial"
         id="tspan6282-2-6-4-3-2-13-6-2-35">%LASTVALUE(NF1)%</tspan>
    </text>
    <text
       xml:space="preserve"
       style="font-size:24px;font-style:normal;font-weight:normal;line-height:125%;letter-spacing:0px;word-spacing:0px;fill:#000000;fill-opacity:1;stroke:none;font-family:Sans"
       x="562.0011"
       y="570.52496"
       id="text3903-1-3-17-6-9"
       sodipodi:linespacing="125%"
       inkscape:transform-center-x="118.74965"
       inkscape:transform-center-y="-298.99466"><tspan
         sodipodi:role="line"
         id="tspan3905-7-4-77-14-9"
         x="562.0011"
         y="570.52496"
         style="font-size:22px;font-style:normal;font-variant:normal;font-weight:normal;font-stretch:normal;text-align:start;line-height:125%;writing-mode:lr-tb;text-anchor:start;font-family:Sans;-inkscape-font-specification:Sans">SIDM1</tspan></text>
    <rect
       style="opacity:0.97000002;fill:#cccccc;fill-opacity:1;stroke:#1a1a1a;stroke-width:2.33980727;stroke-miterlimit:4;stroke-dasharray:none"
       id="SIDM1_fcst_box"
       width="60.82011"
       height="25.339258"
       x="633.91693"
       y="571.59692"
       inkscape:label="#SIDM1_fcst_box" />
    <text
       id="SIDM1ME"
       x="640.67548"
       y="591.14508"
       style="font-size:18px;line-height:125%;fill:#000000;font-family:Arial"
       inkscape:label="#SIDM1ME_SSTG"
       sodipodi:linespacing="125%">
      <tspan
         style="font-size:22px;font-style:normal;font-variant:normal;font-weight:normal;font-stretch:normal;text-align:start;line-height:125%;writing-mode:lr-tb;text-anchor:start;fill:#000000;font-family:Arial;-inkscape-font-specification:Arial"
         id="tspan163-3-8">%LASTVALUE(NF1)%</tspan>
    </text>
    <rect
       style="opacity:0.97000002;fill:#cccccc;fill-opacity:1;stroke:#1a1a1a;stroke-width:2.33980727;stroke-miterlimit:4;stroke-dasharray:none"
       id="SIDM1_obs_box"
       width="60.82011"
       height="25.339258"
       x="633.32526"
       y="541.29236"
       inkscape:label="#SIDM1_obs_box" />
    <text
       id="SIDM1"
       x="639.49188"
       y="562.26904"
       style="font-size:18px;line-height:125%;fill:#000000;font-family:Arial"
       inkscape:label="#SIDM1_STG"
       sodipodi:linespacing="125%">
      <tspan
         style="font-size:22px;font-style:normal;font-variant:normal;font-weight:normal;font-stretch:normal;text-align:start;line-height:125%;writing-mode:lr-tb;text-anchor:start;fill:#000000;font-family:Arial;-inkscape-font-specification:Arial"
         id="tspan6282-2-6-4-3-2-13-6-2-18">%LASTVALUE(NF1)%</tspan>
    </text>
    <text
       xml:space="preserve"
       style="font-size:24px;font-style:normal;font-weight:normal;line-height:125%;letter-spacing:0px;word-spacing:0px;fill:#000000;fill-opacity:1;stroke:none;font-family:Sans"
       x="585.96375"
       y="482.66174"
       id="text3903-1-3-17-6-2"
       sodipodi:linespacing="125%"
       inkscape:transform-center-x="118.74965"
       inkscape:transform-center-y="-298.99466"><tspan
         sodipodi:role="line"
         id="tspan3905-7-4-77-14-66"
         x="585.96375"
         y="482.66174"
         style="font-size:22px;font-style:normal;font-variant:normal;font-weight:normal;font-stretch:normal;text-align:start;line-height:125%;writing-mode:lr-tb;text-anchor:start;font-family:Sans;-inkscape-font-specification:Sans">PITM1</tspan></text>
    <rect
       style="opacity:0.97000002;fill:#cccccc;fill-opacity:1;stroke:#1a1a1a;stroke-width:2.33980727;stroke-miterlimit:4;stroke-dasharray:none"
       id="PITM1_fcst_box"
       width="60.82011"
       height="25.339258"
       x="659.87653"
       y="479.73993"
       inkscape:label="#PITM1_fcst_box" />
    <text
       id="PITM1ME"
       x="666.63507"
       y="499.28809"
       style="font-size:18px;line-height:125%;fill:#000000;font-family:Arial"
       inkscape:label="#PITM1ME_SSTG"
       sodipodi:linespacing="125%">
      <tspan
         style="font-size:22px;font-style:normal;font-variant:normal;font-weight:normal;font-stretch:normal;text-align:start;line-height:125%;writing-mode:lr-tb;text-anchor:start;fill:#000000;font-family:Arial;-inkscape-font-specification:Arial"
         id="tspan163-3-03">%LASTVALUE(NF1)%</tspan>
    </text>
    <rect
       style="opacity:0.97000002;fill:#cccccc;fill-opacity:1;stroke:#1a1a1a;stroke-width:2.33980727;stroke-miterlimit:4;stroke-dasharray:none"
       id="PITM1_obs_box"
       width="60.82011"
       height="25.339258"
       x="659.28485"
       y="449.43536"
       inkscape:label="#PITM1_obs_box" />
    <text
       id="PITM1"
       x="665.45148"
       y="470.41205"
       style="font-size:18px;line-height:125%;fill:#000000;font-family:Arial"
       inkscape:label="#PITM1_STG"
       sodipodi:linespacing="125%">
      <tspan
         style="font-size:22px;font-style:normal;font-variant:normal;font-weight:normal;font-stretch:normal;text-align:start;line-height:125%;writing-mode:lr-tb;text-anchor:start;fill:#000000;font-family:Arial;-inkscape-font-specification:Arial"
         id="tspan6282-2-6-4-3-2-13-6-2-8">%LASTVALUE(NF1)%</tspan>
    </text>
    <text
       xml:space="preserve"
       style="font-size:24px;font-style:normal;font-weight:normal;line-height:125%;letter-spacing:0px;word-spacing:0px;fill:#000000;fill-opacity:1;stroke:none;font-family:Sans"
       x="470.14401"
       y="502.63058"
       id="text3903-1-3-17-6-012"
       sodipodi:linespacing="125%"
       inkscape:transform-center-x="118.74965"
       inkscape:transform-center-y="-298.99466"><tspan
         sodipodi:role="line"
         id="tspan3905-7-4-77-14-50"
         x="470.14401"
         y="502.63058"
         style="font-size:22px;font-style:normal;font-variant:normal;font-weight:normal;font-stretch:normal;text-align:start;line-height:125%;writing-mode:lr-tb;text-anchor:start;font-family:Sans;-inkscape-font-specification:Sans">MERM1</tspan></text>
    <rect
       style="opacity:0.97000002;fill:#cccccc;fill-opacity:1;stroke:#1a1a1a;stroke-width:2.33980727;stroke-miterlimit:4;stroke-dasharray:none"
       id="MERM1_fcst_box"
       width="60.82011"
       height="25.339258"
       x="402.2774"
       y="515.6839"
       inkscape:label="#MERM1_fcst_box" />
    <text
       id="MERM1ME"
       x="409.03595"
       y="535.23212"
       style="font-size:18px;line-height:125%;fill:#000000;font-family:Arial"
       inkscape:label="#MERM1ME_SSTG"
       sodipodi:linespacing="125%">
      <tspan
         style="font-size:22px;font-style:normal;font-variant:normal;font-weight:normal;font-stretch:normal;text-align:start;line-height:125%;writing-mode:lr-tb;text-anchor:start;fill:#000000;font-family:Arial;-inkscape-font-specification:Arial"
         id="tspan163-3-94">%LASTVALUE(NF1)%</tspan>
    </text>
    <rect
       style="opacity:0.97000002;fill:#cccccc;fill-opacity:1;stroke:#1a1a1a;stroke-width:2.33980727;stroke-miterlimit:4;stroke-dasharray:none"
       id="MERM1_obs_box"
       width="60.82011"
       height="25.339258"
       x="401.68573"
       y="485.37933"
       inkscape:label="#MERM1_obs_box" />
    <text
       id="MERM1"
       x="407.85236"
       y="506.35602"
       style="font-size:18px;line-height:125%;fill:#000000;font-family:Arial"
       inkscape:label="#MERM1_STG"
       sodipodi:linespacing="125%">
      <tspan
         style="font-size:22px;font-style:normal;font-variant:normal;font-weight:normal;font-stretch:normal;text-align:start;line-height:125%;writing-mode:lr-tb;text-anchor:start;fill:#000000;font-family:Arial;-inkscape-font-specification:Arial"
         id="tspan6282-2-6-4-3-2-13-6-2-78">%LASTVALUE(NF1)%</tspan>
    </text>
    <text
       xml:space="preserve"
       style="font-size:24px;font-style:normal;font-weight:normal;line-height:125%;letter-spacing:0px;word-spacing:0px;fill:#000000;fill-opacity:1;stroke:none;font-family:Sans"
       x="368.30252"
       y="410.77356"
       id="text3903-1-3-17-6-35"
       sodipodi:linespacing="125%"
       inkscape:transform-center-x="118.74965"
       inkscape:transform-center-y="-298.99466"><tspan
         sodipodi:role="line"
         id="tspan3905-7-4-77-14-120"
         x="368.30252"
         y="410.77356"
         style="font-size:22px;font-style:normal;font-variant:normal;font-weight:normal;font-stretch:normal;text-align:start;line-height:125%;writing-mode:lr-tb;text-anchor:start;font-family:Sans;-inkscape-font-specification:Sans">NANM1</tspan></text>
    <rect
       style="opacity:0.97000002;fill:#cccccc;fill-opacity:1;stroke:#1a1a1a;stroke-width:2.33980727;stroke-miterlimit:4;stroke-dasharray:none"
       id="NANM1_fcst_box"
       width="60.82011"
       height="25.339258"
       x="298.43903"
       y="409.84863"
       inkscape:label="#NANM1_fcst_box" />
    <text
       id="NANM1ME"
       x="305.19757"
       y="429.39679"
       style="font-size:18px;line-height:125%;fill:#000000;font-family:Arial"
       inkscape:label="#NANM1ME_SSTG"
       sodipodi:linespacing="125%">
      <tspan
         style="font-size:22px;font-style:normal;font-variant:normal;font-weight:normal;font-stretch:normal;text-align:start;line-height:125%;writing-mode:lr-tb;text-anchor:start;fill:#000000;font-family:Arial;-inkscape-font-specification:Arial"
         id="tspan163-3-1">%LASTVALUE(NF1)%</tspan>
    </text>
    <rect
       style="opacity:0.97000002;fill:#cccccc;fill-opacity:1;stroke:#1a1a1a;stroke-width:2.33980727;stroke-miterlimit:4;stroke-dasharray:none"
       id="NANM1_obs_box"
       width="60.82011"
       height="25.339258"
       x="297.84735"
       y="379.54407"
       inkscape:label="#NANM1_obs_box" />
    <text
       id="NANM1"
       x="304.01398"
       y="400.52075"
       style="font-size:18px;line-height:125%;fill:#000000;font-family:Arial"
       inkscape:label="#NANM1_STG"
       sodipodi:linespacing="125%">
      <tspan
         style="font-size:22px;font-style:normal;font-variant:normal;font-weight:normal;font-stretch:normal;text-align:start;line-height:125%;writing-mode:lr-tb;text-anchor:start;fill:#000000;font-family:Arial;-inkscape-font-specification:Arial"
         id="tspan6282-2-6-4-3-2-13-6-2-64">%LASTVALUE(NF1)%</tspan>
    </text>
    <text
       xml:space="preserve"
       style="font-size:24px;font-style:normal;font-weight:normal;line-height:125%;letter-spacing:0px;word-spacing:0px;fill:#000000;fill-opacity:1;stroke:none;font-family:Sans"
       x="394.26208"
       y="316.91965"
       id="text3903-1-3-17-6-06"
       sodipodi:linespacing="125%"
       inkscape:transform-center-x="118.74965"
       inkscape:transform-center-y="-298.99466"><tspan
         sodipodi:role="line"
         id="tspan3905-7-4-77-14-18"
         x="394.26208"
         y="316.91965"
         style="font-size:22px;font-style:normal;font-variant:normal;font-weight:normal;font-stretch:normal;text-align:start;line-height:125%;writing-mode:lr-tb;text-anchor:start;font-family:Sans;-inkscape-font-specification:Sans">WYMM1</tspan></text>
    <rect
       style="opacity:0.97000002;fill:#cccccc;fill-opacity:1;stroke:#1a1a1a;stroke-width:2.33980727;stroke-miterlimit:4;stroke-dasharray:none"
       id="WYMM1_fcst_box"
       width="60.82011"
       height="25.339258"
       x="318.40796"
       y="308.00714"
       inkscape:label="#WYMM1_fcst_box" />
    <text
       id="WYMM1ME"
       x="325.1665"
       y="327.55524"
       style="font-size:18px;line-height:125%;fill:#000000;font-family:Arial"
       inkscape:label="#WYMM1ME_SSTG"
       sodipodi:linespacing="125%">
      <tspan
         style="font-size:22px;font-style:normal;font-variant:normal;font-weight:normal;font-stretch:normal;text-align:start;line-height:125%;writing-mode:lr-tb;text-anchor:start;fill:#000000;font-family:Arial;-inkscape-font-specification:Arial"
         id="tspan163-3-984">%LASTVALUE(NF1)%</tspan>
    </text>
    <rect
       style="opacity:0.97000002;fill:#cccccc;fill-opacity:1;stroke:#1a1a1a;stroke-width:2.33980727;stroke-miterlimit:4;stroke-dasharray:none"
       id="WYMM1_obs_box"
       width="60.82011"
       height="25.339258"
       x="317.81628"
       y="277.70258"
       inkscape:label="#WYMM1_obs_box" />
    <text
       id="WYMM1"
       x="323.98291"
       y="298.67926"
       style="font-size:18px;line-height:125%;fill:#000000;font-family:Arial"
       inkscape:label="#WYMM1_STG"
       sodipodi:linespacing="125%">
      <tspan
         style="font-size:22px;font-style:normal;font-variant:normal;font-weight:normal;font-stretch:normal;text-align:start;line-height:125%;writing-mode:lr-tb;text-anchor:start;fill:#000000;font-family:Arial;-inkscape-font-specification:Arial"
         id="tspan6282-2-6-4-3-2-13-6-2-14">%LASTVALUE(NF1)%</tspan>
    </text>
    <text
       xml:space="preserve"
       style="font-size:24px;font-style:normal;font-weight:normal;line-height:125%;letter-spacing:0px;word-spacing:0px;fill:#000000;fill-opacity:1;stroke:none;font-family:Sans"
       x="498.10046"
       y="237.04401"
       id="text3903-1-3-17-6-7"
       sodipodi:linespacing="125%"
       inkscape:transform-center-x="118.74965"
       inkscape:transform-center-y="-298.99466"><tspan
         sodipodi:role="line"
         id="tspan3905-7-4-77-14-83"
         x="498.10046"
         y="237.04401"
         style="font-size:22px;font-style:normal;font-variant:normal;font-weight:normal;font-stretch:normal;text-align:start;line-height:125%;writing-mode:lr-tb;text-anchor:start;font-family:Sans;-inkscape-font-specification:Sans">FRKM1</tspan></text>
    <rect
       style="opacity:0.97000002;fill:#cccccc;fill-opacity:1;stroke:#1a1a1a;stroke-width:2.33980727;stroke-miterlimit:4;stroke-dasharray:none"
       id="FRKM1_obs_box"
       width="60.82011"
       height="25.339258"
       x="579.409"
       y="213.80211"
       inkscape:label="#FRKM1_obs_box" />
    <text
       id="FRKM1"
       x="585.57574"
       y="234.77879"
       style="font-size:18px;line-height:125%;fill:#000000;font-family:Arial"
       inkscape:label="#FRKM1_STG"
       sodipodi:linespacing="125%">
      <tspan
         style="font-size:22px;font-style:normal;font-variant:normal;font-weight:normal;font-stretch:normal;text-align:start;line-height:125%;writing-mode:lr-tb;text-anchor:start;fill:#000000;font-family:Arial;-inkscape-font-specification:Arial"
         id="tspan6282-2-6-4-3-2-13-6-2-34">%LASTVALUE(NF1)%</tspan>
    </text>
    <text
       xml:space="preserve"
       style="font-size:24px;font-style:normal;font-weight:normal;line-height:125%;letter-spacing:0px;word-spacing:0px;fill:#000000;fill-opacity:1;stroke:none;font-family:Sans"
       x="417.78598"
       y="174.3174"
       id="text3903-1-3-17-6-7-9"
       sodipodi:linespacing="125%"
       inkscape:transform-center-x="118.74965"
       inkscape:transform-center-y="-298.99466"><tspan
         sodipodi:role="line"
         id="tspan3905-7-4-77-14-83-6"
         x="417.78598"
         y="174.3174"
         style="font-size:22px;font-style:normal;font-variant:normal;font-weight:normal;font-stretch:normal;text-align:start;line-height:125%;writing-mode:lr-tb;text-anchor:start;font-family:Sans;-inkscape-font-specification:Sans">RKWM1</tspan></text>
    <rect
       style="opacity:0.97000002;fill:#cccccc;fill-opacity:1;stroke:#1a1a1a;stroke-width:2.33980727;stroke-miterlimit:4;stroke-dasharray:none"
       id="RKWM1_obs_box"
       width="60.82011"
       height="25.339258"
       x="339.34311"
       y="151.07552"
       inkscape:label="#RKWM1_obs_box" />
    <text
       id="RKWM1"
       x="347.50668"
       y="172.0522"
       style="font-size:18px;line-height:125%;fill:#000000;font-family:Arial"
       inkscape:label="#RKWM1_STG"
       sodipodi:linespacing="125%">
      <tspan
         style="font-size:22px;font-style:normal;font-variant:normal;font-weight:normal;font-stretch:normal;text-align:start;line-height:125%;writing-mode:lr-tb;text-anchor:start;fill:#000000;font-family:Arial;-inkscape-font-specification:Arial"
         id="tspan6282-2-6-4-3-2-13-6-2-34-0">%LASTVALUE(NF1)%</tspan>
    </text>
    <rect
       style="opacity:0.97309415;fill:#cccccc;fill-opacity:1;stroke:#4d4d4d;stroke-width:3.05733991;stroke-miterlimit:4;stroke-dasharray:none"
       id="rect4363-1-5"
       width="353.33044"
       height="98.53894"
       x="368.97101"
       y="937.84607" />
    <text
       xml:space="preserve"
       style="font-size:36.20770645px;font-style:normal;font-weight:normal;line-height:125%;letter-spacing:0px;word-spacing:0px;fill:#000000;fill-opacity:1;stroke:none;font-family:Sans"
       x="405.64432"
       y="1014.5052"
       id="Deviation_text-5"
       sodipodi:linespacing="125%"
       inkscape:label="#text3305"
       transform="scale(1.055761,0.94718406)"><tspan
         sodipodi:role="line"
         id="tspan3307-3"
         x="405.64432"
         y="1014.5052"
         style="font-size:21.72462463px;font-style:normal;font-variant:normal;font-weight:normal;font-stretch:normal;text-align:start;line-height:125%;writing-mode:lr-tb;text-anchor:start;font-family:Sans;-inkscape-font-specification:Sans">Deviation from Forecast</tspan></text>
    <path
       transform="matrix(0.68768714,0,0,0.55685875,297.81008,627.73133)"
       sodipodi:type="arc"
       style="fill:#008000;fill-opacity:1;stroke:none"
       id="good_dot"
       sodipodi:cx="145.91983"
       sodipodi:cy="629.09808"
       sodipodi:rx="16.428059"
       sodipodi:ry="16.428061"
       d="m 162.34789,629.09808 a 16.428059,16.428061 0 1 1 -1.39421,-6.62302"
       sodipodi:start="0"
       sodipodi:end="5.8682257"
       sodipodi:open="true"
       inkscape:label="#path6199" />
    <text
       xml:space="preserve"
       style="font-size:15.80000019px;font-style:normal;font-weight:normal;line-height:125%;letter-spacing:0px;word-spacing:0px;fill:#000000;fill-opacity:1;stroke:none;font-family:Sans"
       x="386.53793"
       y="1039.7118"
       id="text3412-3"
       sodipodi:linespacing="125%"
       transform="scale(1.055761,0.94718406)"><tspan
         sodipodi:role="line"
         id="tspan3414-74"
         x="386.53793"
         y="1039.7118">&lt;0.5 ft</tspan></text>
    <text
       xml:space="preserve"
       style="font-size:15.80000019px;font-style:normal;font-weight:normal;line-height:125%;letter-spacing:0px;word-spacing:0px;fill:#000000;fill-opacity:1;stroke:none;font-family:Sans"
       x="475.90784"
       y="1041.0049"
       id="text3416-3"
       sodipodi:linespacing="125%"
       transform="scale(1.055761,0.94718406)"><tspan
         sodipodi:role="line"
         id="tspan3418-8"
         x="475.90784"
         y="1041.0049">0.5-1 ft</tspan></text>
    <path
       transform="matrix(0.68768714,0,0,0.55685875,386.41108,630.75458)"
       sodipodi:type="arc"
       style="fill:#ffff00;fill-opacity:1;stroke:none"
       id="0.5_dot"
       sodipodi:cx="145.91983"
       sodipodi:cy="629.09808"
       sodipodi:rx="16.428059"
       sodipodi:ry="16.428061"
       d="m 162.34789,629.09808 a 16.428059,16.428061 0 1 1 -1.39421,-6.62302"
       sodipodi:start="0"
       sodipodi:end="5.8682257"
       sodipodi:open="true"
       inkscape:label="#path6199" />
    <text
       xml:space="preserve"
       style="font-size:15.80000019px;font-style:normal;font-weight:normal;line-height:125%;letter-spacing:0px;word-spacing:0px;fill:#000000;fill-opacity:1;stroke:none;font-family:Sans"
       x="565.69965"
       y="1041.6542"
       id="text3420-8"
       sodipodi:linespacing="125%"
       transform="scale(1.055761,0.94718406)"><tspan
         sodipodi:role="line"
         id="tspan3422-8"
         x="565.69965"
         y="1041.6542">1-2 ft</tspan></text>
    <path
       transform="matrix(0.68768714,0,0,0.55685875,480.51679,630.75458)"
       sodipodi:type="arc"
       style="fill:#ff6600;fill-opacity:1;stroke:none"
       id="1.0_dot"
       sodipodi:cx="145.91983"
       sodipodi:cy="629.09808"
       sodipodi:rx="16.428059"
       sodipodi:ry="16.428061"
       d="m 162.34789,629.09808 a 16.428059,16.428061 0 1 1 -1.39421,-6.62302"
       sodipodi:start="0"
       sodipodi:end="5.8682257"
       sodipodi:open="true"
       inkscape:label="#path6199" />
    <path
       transform="matrix(0.68768714,0,0,0.55685875,555.60499,630.75459)"
       sodipodi:type="arc"
       style="fill:#ff0000;fill-opacity:1;stroke:none"
       id="2.0_dot"
       sodipodi:cx="145.91983"
       sodipodi:cy="629.09808"
       sodipodi:rx="16.428059"
       sodipodi:ry="16.428061"
       d="m 162.34789,629.09808 a 16.428059,16.428061 0 1 1 -1.39421,-6.62302"
       sodipodi:start="0"
       sodipodi:end="5.8682257"
       sodipodi:open="true"
       inkscape:label="#path6199" />
    <text
       xml:space="preserve"
       style="font-size:15.80000019px;font-style:normal;font-weight:normal;line-height:125%;letter-spacing:0px;word-spacing:0px;fill:#000000;fill-opacity:1;stroke:none;font-family:Sans"
       x="636.21863"
       y="1041.0009"
       id="text3424-8"
       sodipodi:linespacing="125%"
       transform="scale(1.055761,0.94718406)"><tspan
         sodipodi:role="line"
         id="tspan3426-1"
         x="636.21863"
         y="1041.0009">2-3 ft</tspan></text>
    <text
       xml:space="preserve"
       style="font-size:15.80000019px;font-style:normal;font-weight:normal;line-height:125%;letter-spacing:0px;word-spacing:0px;fill:#000000;fill-opacity:1;stroke:none;font-family:Sans"
       x="438.08969"
       y="1073.3292"
       id="text3428-9"
       sodipodi:linespacing="125%"
       transform="scale(1.055761,0.94718406)"><tspan
         sodipodi:role="line"
         id="tspan3430-8"
         x="438.08969"
         y="1073.3292">3-4 ft </tspan></text>
    <path
       transform="matrix(0.68768714,0,0,0.55685875,346.76725,662.02669)"
       sodipodi:type="arc"
       style="fill:#800000;fill-opacity:1;stroke:none"
       id="3.0_dot"
       sodipodi:cx="145.91983"
       sodipodi:cy="629.09808"
       sodipodi:rx="16.428059"
       sodipodi:ry="16.428061"
       d="m 162.34789,629.09808 a 16.428059,16.428061 0 1 1 -1.39421,-6.62302"
       sodipodi:start="0"
       sodipodi:end="5.8682257"
       sodipodi:open="true"
       inkscape:label="#path6199" />
    <path
       transform="matrix(0.68768714,0,0,0.55685875,430.04681,662.02669)"
       sodipodi:type="arc"
       style="fill:#8e35ef;fill-opacity:1;stroke:none"
       id="4.0_dot"
       sodipodi:cx="145.91983"
       sodipodi:cy="629.09808"
       sodipodi:rx="16.428059"
       sodipodi:ry="16.428061"
       d="m 162.34789,629.09808 a 16.428059,16.428061 0 1 1 -1.39421,-6.62302"
       sodipodi:start="0"
       sodipodi:end="5.8682257"
       sodipodi:open="true"
       inkscape:label="#path6199" />
    <text
       xml:space="preserve"
       style="font-size:15.80000019px;font-style:normal;font-weight:normal;line-height:125%;letter-spacing:0px;word-spacing:0px;fill:#000000;fill-opacity:1;stroke:none;font-family:Sans"
       x="513.83313"
       y="1073.3334"
       id="text3412-1-2"
       sodipodi:linespacing="125%"
       transform="scale(1.055761,0.94718406)"><tspan
         sodipodi:role="line"
         id="tspan3414-7-2"
         x="513.83313"
         y="1073.3334">&gt; 4.0 ft</tspan></text>
    <path
       transform="matrix(0.68768714,0,0,0.55685875,528.34399,662.0267)"
       sodipodi:type="arc"
       style="fill:#0000ff;fill-opacity:1;stroke:none"
       id="Ice_dot"
       sodipodi:cx="145.91983"
       sodipodi:cy="629.09808"
       sodipodi:rx="16.428059"
       sodipodi:ry="16.428061"
       d="m 162.34789,629.09808 a 16.428059,16.428061 0 1 1 -1.39421,-6.62302"
       sodipodi:start="0"
       sodipodi:end="5.8682257"
       sodipodi:open="true"
       inkscape:label="#path6199" />
    <text
       xml:space="preserve"
       style="font-size:15.80000019px;font-style:normal;font-weight:normal;line-height:125%;letter-spacing:0px;word-spacing:0px;fill:#000000;fill-opacity:1;stroke:none;font-family:Sans"
       x="613.90161"
       y="1073.8434"
       id="text3412-1-7-2"
       sodipodi:linespacing="125%"
       transform="scale(1.055761,0.94718406)"><tspan
         sodipodi:role="line"
         id="tspan3414-7-4-8"
         x="613.90161"
         y="1073.8434">Ice</tspan></text>
    <rect
       style="opacity:0.97000002;fill:#cccccc;fill-opacity:1;stroke:#4d4d4d;stroke-width:2.21285057;stroke-miterlimit:4;stroke-dasharray:none"
       id="legendbox"
       width="206.87338"
       height="81.976685"
       x="20.370623"
       y="959.45465"
       inkscape:label="#rect4363" />
    <text
       xml:space="preserve"
       style="font-size:27.84248352px;font-style:normal;font-variant:normal;font-weight:normal;font-stretch:normal;text-align:start;line-height:125%;letter-spacing:0px;word-spacing:0px;writing-mode:lr-tb;text-anchor:start;fill:#000000;fill-opacity:1;stroke:none;font-family:Sans;-inkscape-font-specification:Sans"
       x="27.040941"
       y="1009.0635"
       id="legend_text"
       sodipodi:linespacing="125%"
       transform="scale(1.0143758,0.98582794)"><tspan
         sodipodi:role="line"
         id="tspan4359"
         x="27.040941"
         y="1009.0635"
         style="font-size:20.88186264px">Top - obs value</tspan><tspan
         sodipodi:role="line"
         x="27.040941"
         y="1035.1659"
         id="tspan4361"
         style="font-size:20.88186264px">Bottom - sim value</tspan></text>
    <rect
       style="opacity:0.97309415;fill:#e6e6e6;fill-opacity:1;stroke:#4d4d4d;stroke-width:1.42419267;stroke-miterlimit:4;stroke-dasharray:none"
       id="labelbox"
       width="604.36603"
       height="104.06229"
       x="79.864227"
       y="15.863192"
       inkscape:label="#rect4120" />
    <text
       xml:space="preserve"
       style="font-size:48px;font-style:normal;font-weight:normal;line-height:125%;letter-spacing:0px;word-spacing:0px;fill:#000000;fill-opacity:1;stroke:none;font-family:Sans"
       x="107.03064"
       y="81.733063"
       id="labeltext"
       sodipodi:linespacing="125%"
       inkscape:label="#text4122"
       inkscape:transform-center-x="-108.57143"
       inkscape:transform-center-y="277.14286"><tspan
         sodipodi:role="line"
         id="tspan4124"
         x="107.03064"
         y="81.733063"
         style="font-size:36px;font-style:normal;font-variant:normal;font-weight:normal;font-stretch:normal;text-align:start;line-height:125%;writing-mode:lr-tb;text-anchor:start;font-family:Sans;-inkscape-font-specification:Sans">Kennebec, Androscoggin &amp; Saco</tspan></text>
  </g>
</svg>
