<?xml version="1.0" encoding="UTF-8" standalone="no"?>
<!-- Created with Inkscape (http://www.inkscape.org/) -->

<svg
   xmlns:dc="http://purl.org/dc/elements/1.1/"
   xmlns:cc="http://creativecommons.org/ns#"
   xmlns:rdf="http://www.w3.org/1999/02/22-rdf-syntax-ns#"
   xmlns:svg="http://www.w3.org/2000/svg"
   xmlns="http://www.w3.org/2000/svg"
   xmlns:sodipodi="http://sodipodi.sourceforge.net/DTD/sodipodi-0.dtd"
   xmlns:inkscape="http://www.inkscape.org/namespaces/inkscape"
   viewBox="0 0 1052.8189 744.09448"
   preserveAspectRatio="xMidYMid meet"
   width="100%"
   height="100%"
   id="svg2"
   version="1.1"
   inkscape:version="0.48.2 r9819"
   sodipodi:docname="LowerMerrimack.svg">
  <defs
     id="defs4" />
  <sodipodi:namedview
     id="base"
     pagecolor="#ffffff"
     bordercolor="#666666"
     borderopacity="1.0"
     inkscape:pageopacity="0.0"
     inkscape:pageshadow="2"
     inkscape:zoom="0.52647353"
     inkscape:cx="89.395098"
     inkscape:cy="424.42284"
     inkscape:document-units="px"
     inkscape:current-layer="layer1"
     showgrid="false"
     inkscape:window-width="1280"
     inkscape:window-height="712"
     inkscape:window-x="-4"
     inkscape:window-y="-4"
     inkscape:window-maximized="1" />
  <metadata
     id="metadata7">
    <rdf:RDF>
      <cc:Work
         rdf:about="">
        <dc:format>image/svg+xml</dc:format>
        <dc:type
           rdf:resource="http://purl.org/dc/dcmitype/StillImage" />
        <dc:title />
      </cc:Work>
    </rdf:RDF>
  </metadata>
  <g
     inkscape:label="Layer 1"
     inkscape:groupmode="layer"
     id="layer1"
     transform="translate(0,-308.2677)">
    <rect
       style="opacity:0.97000002;fill:#cccccc;fill-opacity:1;stroke:#1a1a1a;stroke-width:2.12900329;stroke-miterlimit:4;stroke-dasharray:none"
       id="SOHN3_fcst_box"
       width="53.119751"
       height="24.020248"
       x="195.21092"
       y="472.8002"
       inkscape:label="#SOHN3_fcst_box" />
    <text
       id="SOHN3MER"
       x="206.33771"
       y="470.97806"
       style="font-size:16.3782959px;line-height:125%;fill:#000000;font-family:Arial"
       inkscape:label="#SOHN3MER_SSTG"
       sodipodi:linespacing="125%"
       transform="scale(0.95987041,1.0418073)">
      <tspan
         style="font-size:20.01791954px;font-style:normal;font-variant:normal;font-weight:normal;font-stretch:normal;text-align:start;line-height:125%;writing-mode:lr-tb;text-anchor:start;fill:#000000;font-family:Arial;-inkscape-font-specification:Arial"
         id="tspan6282-2-6-4-3-2-5-7">%LASTVALUE(NF1)%</tspan>
    </text>
    <rect
       style="opacity:0.97000002;fill:#cccccc;fill-opacity:1;stroke:#1a1a1a;stroke-width:2.12900329;stroke-miterlimit:4;stroke-dasharray:none"
       id="SOHN3_obs_box"
       width="53.119751"
       height="24.020248"
       x="193.4464"
       y="441.65341"
       inkscape:label="#SOHN3_obs_box" />
    <text
       id="SOHN3"
       x="207.63751"
       y="444.21933"
       style="font-size:16.3782959px;line-height:125%;fill:#000000;font-family:Arial"
       inkscape:label="#SOHN3_STG"
       sodipodi:linespacing="125%"
       transform="scale(0.95987041,1.0418073)">
      <tspan
         style="font-size:20.01791954px;font-style:normal;font-variant:normal;font-weight:normal;font-stretch:normal;text-align:start;line-height:125%;writing-mode:lr-tb;text-anchor:start;fill:#000000;font-family:Arial;-inkscape-font-specification:Arial"
         id="tspan6282-2-6-4-3-2-7">%LASTVALUE(NF1)%</tspan>
    </text>
    <path
       style="fill:none;stroke:#000080;stroke-width:2.181;stroke-linecap:butt;stroke-linejoin:miter;stroke-opacity:1;stroke-miterlimit:4;stroke-dasharray:none"
       d="m 393.29542,499.73348 c -2.04272,3.44445 -4.43177,6.75777 -6.12814,10.33333 -0.75865,1.59904 0,3.44444 0,5.16667 0,4.30555 0,8.61109 0,12.91665 0,0.86112 0,1.72222 0,2.58332 0,0.86112 -0.72221,1.97444 0,2.58334 0.94877,0.79993 14.37157,-0.79992 15.32034,0 1.02383,0.86318 -1.0238,4.30348 0,5.16665 0.72221,0.6089 2.34187,-0.60889 3.06407,0 0.72221,0.6089 -0.45676,1.81313 0,2.58335 0.64598,1.08922 2.04273,1.7222 3.06407,2.58332 2.04273,1.72222 4.52572,3.14013 6.12816,5.16667 0.56654,0.71647 -0.45677,1.81313 0,2.58332 1.83843,3.1 7.35376,4.65 9.1922,7.75 0.81984,1.38242 -0.81984,3.78423 0,5.16665 0.64597,1.08924 2.41811,1.4941 3.06408,2.58334 0.91352,1.5404 -0.91353,3.62626 0,5.16665 10.16225,8.56783 -1.44442,-2.43559 3.06407,5.16667 1.29192,2.17846 4.83621,2.98821 6.12814,5.16666 0.45676,0.77021 -0.72221,1.97444 0,2.58334 0.72221,0.60889 2.34186,-0.6089 3.06407,0 0.72221,0.60889 -0.45677,1.81312 0,2.58333 0.64597,1.08922 2.41811,1.4941 3.06407,2.58332 0.40283,0.67927 0,8.98245 0,10.33333 0,8.6111 0,17.2222 0,25.83331 0,0.62652 -0.0986,7.66692 0,7.74999 0.72221,0.60889 2.34185,-0.6089 3.06406,0 1.44442,1.21779 -0.91352,3.62626 0,5.16666 0.64598,1.08922 2.41812,1.4941 3.06407,2.58332 0.45677,0.7702 0,1.72223 0,2.58333 1.02138,1.72223 1.79725,3.56456 3.06407,5.16667 1.60245,2.02653 4.83623,2.98821 6.12816,5.16667 0.45676,0.7702 -0.72221,1.97443 0,2.58333 0.72221,0.60889 2.34186,-0.6089 3.06407,0 1.44442,1.21779 -1.44442,3.94886 0,5.16665 0.72221,0.60891 2.34186,-0.60889 3.06407,0 1.00754,0.84948 -1.00755,4.3172 0,5.16667 0.72221,0.6089 2.34187,-0.60891 3.06407,0 0.72221,0.6089 -0.7222,1.97443 0,2.58332 1.44442,1.21779 4.68372,-1.21779 6.12814,0 0.7222,0.6089 -0.72221,1.97444 0,2.58334 1.0238,0.86318 5.10434,-0.86317 6.12814,0 0.72221,0.60889 -0.72221,1.97443 0,2.58332 0.6551,0.55232 10.56698,-0.47475 12.25627,0 22.19435,6.23739 -4.83082,-0.74478 9.19223,5.16668 0.91353,0.38509 2.34186,-0.60889 3.06407,0 0.72221,0.6089 -0.72221,1.97443 0,2.58332 0.72221,0.6089 2.04271,0 3.06407,0 1.02135,0 3.06407,-0.86111 3.06407,0 0,0.86111 -4.08543,0 -3.06407,0 3.06407,0 6.12814,0 9.1922,0 8.17087,0 16.34172,0 24.51258,0 5.10677,0 10.21356,0 15.32035,0 1.02135,0 2.04271,0 3.06407,0 1.02135,0 2.15053,0.38511 3.06406,0 7.57256,-3.19221 -1.05764,-2.58332 6.12815,-2.58332 1.02137,0 3.06407,-0.86112 3.06407,0 0,0.86111 -3.06407,0.86111 -3.06407,0 0,-1.21781 1.77214,-2.03873 3.06407,-2.58335 8.17085,0 -1.02135,0.86112 3.06407,-2.58333 0.72221,-0.60889 2.34188,0.60891 3.06408,0 6.33967,-5.34499 -9.68786,0.20895 3.06407,-5.16666 4.22644,-1.78165 2.74071,3.12857 6.12814,-2.58332 0.45677,-0.7702 -0.72221,-1.97444 0,-2.58333 0.7222,-0.6089 2.0427,0 3.06407,0 1.02136,0 3.06407,-0.86111 3.06407,0 0,0.8611 -3.06407,0.8611 -3.06407,0 0,-1.21779 2.04272,-1.72223 3.06407,-2.58334 1.02135,-0.86109 1.77214,-2.03872 3.06407,-2.58332 8.17085,0 -1.02135,0.86111 3.06407,-2.58333 0.72221,-0.6089 2.34186,0.60889 3.06407,0 0.72221,-0.6089 -0.72221,-1.97443 0,-2.58333 0.72221,-0.60889 2.15054,0.38509 3.06407,0 2.58385,-1.08923 3.38756,-4.39646 6.12813,-5.16667 1.93791,-0.54461 4.30109,0.77021 6.12815,0 0.91354,-0.38509 -0.72221,-1.97442 0,-2.58332 0.72222,-0.6089 2.34187,0.6089 3.06408,0 0.72221,-0.6089 -0.72221,-1.97445 0,-2.58335 0.72221,-0.60889 2.34186,0.6089 3.06407,0 0.72221,-0.60889 -0.72221,-1.97442 0,-2.58333 0.72221,-0.6089 2.34187,0.60891 3.06407,0 0.72221,-0.6089 -0.7222,-1.97443 0,-2.58332 0.72221,-0.6089 2.15055,0.3851 3.06408,0 1.29191,-0.54461 1.77214,-2.03872 3.06406,-2.58334 0.91352,-0.38509 2.04272,0 3.06407,0 1.02136,0 2.04272,0 3.06407,0 0.72812,0 11.56952,-0.2895 12.25628,0 1.29192,0.54462 1.77215,2.03873 3.06406,2.58334 0.93252,0.39309 7.81229,0 9.19223,0 1.02135,0 2.04271,0 3.06407,0 1.02135,0 3.06407,-0.86111 3.06407,0 0,0.86112 -4.08543,0 -3.06407,0 2.04271,0 4.08542,0 6.12814,0 1.02135,0 2.15055,-0.38511 3.06407,0 1.29192,0.54461 1.77215,2.03871 3.06407,2.58332 0.62853,0.26497 8.76009,0.36433 9.19221,0 0.72221,-0.6089 -0.72221,-1.97443 0,-2.58332 1.44442,-1.21779 4.68372,1.21779 6.12814,0 6.33967,-5.34501 -9.68785,0.20894 3.06407,-5.16666 1.82707,-0.77021 4.68373,1.21779 6.12815,0 0.72221,-0.6089 -0.72221,-1.97444 0,-2.58333 0.72221,-0.6089 2.34186,0.60889 3.06407,0 0.72221,-0.6089 -0.72221,-1.97443 0,-2.58334 0.72221,-0.60889 2.34186,0.60891 3.06407,0 1.53203,-1.29167 -1.53204,-6.45832 0,-7.74998 0.72221,-0.60891 2.34186,0.6089 3.06407,0 1.53203,-1.29168 -1.53204,-6.45834 0,-7.74999 0.72221,-0.6089 2.34186,0.60889 3.06407,0 1.44442,-1.21779 -1.44441,-3.94888 0,-5.16667 0.72221,-0.60891 2.34187,0.60889 3.06407,0 1.02381,-0.86318 -1.0238,-4.30347 0,-5.16667 0.72221,-0.60889 2.34187,0.6089 3.06407,0 1.44442,-1.21779 -0.91352,-3.62626 0,-5.16666 0.64597,-1.08922 2.41811,-1.4941 3.06407,-2.58332 0.45676,-0.7702 -0.72221,-1.97444 0,-2.58333 0.7222,-0.6089 2.34186,0.60889 3.06407,0 1.44441,-1.21779 -1.44442,-3.94887 0,-5.16666 0.7222,-0.6089 2.34186,0.60889 3.06407,0 1.44441,-1.2178 -1.44442,-3.94887 0,-5.16667 0.72221,-0.60889 2.34186,0.60891 3.06407,0 0.72221,-0.60889 -0.72221,-1.97443 0,-2.58332 1.44441,-1.21779 4.68372,1.21779 6.12814,0 0.72221,-0.6089 -0.72221,-1.97444 0,-2.58334 0.0986,-0.083 8.44909,0 9.19222,0 15.32035,0 30.6407,0 45.96106,0 1.44471,0 15.18149,0.1171 15.32035,0 0.72221,-0.60889 -0.45677,-1.81313 0,-2.58333 0.64597,-1.08924 2.41811,-1.49411 3.06407,-2.58334 0.91353,-1.54039 -1.44441,-3.94886 0,-5.16665 0.72221,-0.6089 2.34186,0.60889 3.06406,0 0.9488,-0.79992 -0.94877,-12.11674 0,-12.91665 0.72221,-0.6089 2.34187,0.60889 3.06408,0 1.44441,-1.21779 -1.44442,-3.94887 0,-5.16666 0.7222,-0.6089 2.34186,0.6089 3.06407,0 1.53204,-1.29168 -1.53203,-6.45833 0,-7.74999 1.02381,-0.86318 5.10434,0.86317 6.12815,0 0.72221,-0.6089 -0.7222,-1.97445 0,-2.58335 0.72221,-0.60889 2.34187,0.6089 3.06407,0 0.72221,-0.60889 -0.7222,-1.97442 0,-2.58333 1.53203,-1.29166 7.66016,1.29168 9.19221,0 0.72221,-0.6089 -0.72221,-1.97443 0,-2.58332 0.72221,-0.6089 2.04272,0 3.06407,0 1.02136,0 2.04272,0 3.06407,0 11.23492,0 22.46986,0 33.70479,0 2.04271,0 4.08541,0 6.12813,0 1.02136,0 2.15054,0.3851 3.06407,0 1.29193,-0.54461 1.77214,-2.03872 3.06407,-2.58334 4.22645,-1.78165 2.74073,3.12857 6.12814,-2.58332 0.45676,-0.77021 -0.72221,-1.97444 0,-2.58334 0.72221,-0.60889 2.15054,0.38511 3.06407,0 1.29193,-0.5446 1.77215,-2.0387 3.06407,-2.58333 0.91355,-0.38509 2.34188,0.60891 3.06409,0 0.72221,-0.60889 -0.72221,-1.97443 0,-2.58332 0.72221,-0.6089 2.0427,0 3.06406,0 6.12814,0 12.25628,0 18.38443,0 2.04271,0 4.14641,-0.4177 6.12813,0 4.43126,0.934 7.92303,3.94886 12.25628,5.16665 1.68931,0.47476 11.60119,-0.5523 12.25629,0 0.72221,0.6089 -0.72221,1.97443 0,2.58334 0.72221,0.60889 2.21425,-0.47765 3.06407,0 2.04272,1.72222 4.08542,3.44444 6.12814,5.16666 1.02135,0 2.21424,-0.47766 3.06407,0 2.40366,1.35102 3.81708,3.7053 6.12814,5.16665 1.54305,5.69151 6.30338,1.36554 9.19221,2.58335 1.29193,0.54461 1.77214,2.03871 3.06409,2.58332 0.80565,0.33964 10.65407,0 12.25627,0 1.0214,0 4.0855,0 3.0641,0 -2.0427,0 -8.17088,0 -6.12813,0 3.06403,0 6.12813,0 9.19223,0"
       id="path3606-0"
       inkscape:connector-curvature="0" />
    <path
       style="fill:none;stroke:#000080;stroke-width:1.881;stroke-linecap:butt;stroke-linejoin:miter;stroke-opacity:1;stroke-miterlimit:4;stroke-dasharray:none"
       d="m 647.61329,525.56679 c 0,10.33332 0,20.66664 0,30.99997 0,0.86111 0,1.72222 0,2.58334 0,0.8611 1.02136,2.58333 0,2.58333 -1.02136,0 0,-3.44445 0,-2.58333 0,2.58333 0,5.16665 0,7.74999 0,0.8611 0.72221,1.97443 0,2.58332 -0.72221,0.60891 -2.34186,-0.60889 -3.06407,0 -1.00754,0.84948 1.00756,4.3172 0,5.16667 -0.72221,0.60889 -2.34186,-0.60891 -3.06407,0 -0.72221,0.60889 0.72221,1.97443 0,2.58332 -0.72221,0.6089 -2.34186,-0.60889 -3.06407,0 -0.72221,0.6089 1.02136,2.58334 0,2.58334 -1.02135,0 0,-3.44445 0,-2.58334 0,3.44446 0,6.88889 0,10.33334 0,4.30554 0,8.61109 0,12.91665 0,0.86111 -0.72221,1.97443 0,2.58332 1.44441,1.2178 4.68372,-1.21779 6.12814,0 0.72221,0.6089 -0.72221,1.97444 0,2.58334 0.72221,0.60889 2.34186,-0.6089 3.06407,0 4.08544,3.44444 -5.10678,2.58333 3.06409,2.58333 8.17084,0 -1.02138,-0.86111 3.06407,2.58332 0.72221,0.6089 2.34185,-0.60889 3.06406,0 0.72221,0.6089 -0.72221,1.97444 0,2.58334 0.72221,0.60889 2.15054,-0.38511 3.06407,0 1.29193,0.54461 1.77214,2.03871 3.06407,2.58332 1.82706,0.77022 4.68373,-1.21779 6.12814,0 0.72221,0.6089 -0.72221,1.97445 0,2.58335 0.12324,0.10388 11.13104,0 12.25628,0 7.1495,0 14.29899,0 21.4485,0 1.02136,0 2.04272,0 3.06407,0 1.02136,0 3.06407,-0.86112 3.06407,0 0,0.8611 -2.04271,0 -3.06407,0"
       id="path4113-0"
       inkscape:connector-curvature="0" />
    <path
       style="fill:none;stroke:#000080;stroke-width:2.181;stroke-linecap:butt;stroke-linejoin:miter;stroke-opacity:1;stroke-miterlimit:4;stroke-dasharray:none"
       d="m 423.93612,964.73306 c 2.04273,-3.44448 3.77811,-7.03122 6.12815,-10.33343 0.74315,-1.04425 2.41812,-1.49402 3.06407,-2.58328 0.45676,-0.77021 -0.72221,-1.97441 0,-2.5833 0.72221,-0.6089 2.34186,0.60889 3.06407,0 0.6264,-0.52811 -0.60743,-6.72573 0,-7.75 0.64596,-1.08923 2.41811,-1.4941 3.06407,-2.58333 0.45676,-0.7702 -0.72221,-1.97444 0,-2.58333 0.72221,-0.6089 2.04271,0 3.06407,0 1.02136,0 3.06406,-0.86112 3.06406,0 0,0.86111 -3.06406,0.86111 -3.06406,0 0,-5.3756 4.29696,-1.03945 6.12813,-2.58333 0.9488,-0.79993 -0.94877,-12.11673 0,-12.91667 0.72221,-0.60889 2.34186,0.60891 3.06407,0 0.72223,-0.60889 -0.72221,-1.97442 0,-2.58332 0.72223,-0.6089 2.34188,0.6089 3.06409,0 0.72221,-0.6089 -0.72221,-1.97444 0,-2.58333 1.53203,-1.29166 7.66017,1.29167 9.19221,0 0.72221,-0.6089 -0.72221,-1.97443 0,-2.58333 0.0986,-0.0831 8.44909,0 9.19221,0 7.1495,0 14.29899,0 21.4485,0 1.02136,0 2.34186,0.6089 3.06407,0 0.72221,-0.60889 -0.72221,-1.97444 0,-2.58333 1.44441,-1.21779 4.68372,1.21779 6.12814,0 0.72221,-0.6089 0,-1.72223 0,-2.58334 0,-0.62651 0.0986,-7.6669 0,-7.74998 -6.33967,-5.345 0.24782,8.16787 -6.12814,-2.58333 -0.55404,-0.93423 0,-11.11985 0,-12.91666 0,-0.86111 0,-1.72222 0,-2.58334 0,-0.86109 -1.02137,-2.58332 0,-2.58332 1.02136,0 0,3.44444 0,2.58332 0,-2.58332 0,-5.16665 0,-7.74999 0,-0.86109 -0.72221,-1.97442 0,-2.58332 0.72221,-0.6089 2.34186,0.6089 3.06407,0 0.72221,-0.6089 -0.72221,-1.97444 0,-2.58333 0.72221,-0.6089 2.34186,0.60889 3.06407,0 0.0986,-0.0831 0,-7.12347 0,-7.74998 0,-7.75001 0,-15.5 0,-23.24999 0,-0.86111 0,-1.72223 0,-2.58333 0,-0.8611 0.72221,-1.97443 0,-2.58333 -0.72221,-0.60889 -2.34186,0.6089 -3.06407,0 -0.72221,-0.60889 0,-1.72223 0,-2.58333 0,-0.86112 -0.72221,-1.97443 0,-2.58333 0.72221,-0.6089 2.34186,0.6089 3.06407,0 0.72221,-0.6089 -0.72221,-1.97443 0,-2.58333 0.72221,-0.6089 3.06407,-0.86112 3.06407,0 0,0.86111 -3.06407,0.86111 -3.06407,0 0,-1.21779 1.77214,-2.03873 3.06407,-2.58333 0.91353,-0.3851 2.34186,0.60889 3.06407,0 0.72221,-0.6089 -0.72221,-1.97443 0,-2.58333 0.72221,-0.60892 2.15054,0.38511 3.06407,0 1.29192,-0.54463 1.77215,-2.03873 3.06406,-2.58334 1.21489,-0.51213 8.56581,0.52814 9.19222,0 0.72221,-0.6089 -0.72221,-1.97443 0,-2.58334 1.02381,-0.86317 5.10434,0.8632 6.12814,0 0.72221,-0.60889 -0.72221,-1.97443 0,-2.58332 0.72221,-0.6089 2.34186,0.60889 3.06407,0 0.72222,-0.6089 -0.72221,-1.97444 0,-2.58333 0.72222,-0.6089 2.34188,0.60889 3.06409,0 6.33967,-5.34501 -9.68788,0.20895 3.06406,-5.16666 0.91353,-0.3851 2.34186,0.60889 3.06407,0 0.72221,-0.6089 -0.72221,-1.97443 0,-2.58334 0.72221,-0.60889 2.34186,0.60891 3.06407,0 0.72221,-0.60889 0,-1.72221 0,-2.58332 0,-0.86111 0,-1.72223 0,-2.58333 0,-7.15374 3.06407,1.98706 3.06407,-5.16666 0,-0.94869 -0.12325,-10.22937 0,-10.33334 0.72221,-0.60889 2.34186,0.60891 3.06407,0 1.44442,-1.21779 -0.91353,-3.62626 0,-5.16666 0.64595,-1.08922 2.4181,-1.4941 3.06407,-2.58332 0.45676,-0.7702 -0.72221,-1.97444 0,-2.58333 0.72221,-0.6089 2.34186,0.60889 3.06407,0 0.72221,-0.6089 -0.72221,-1.97443 0,-2.58334 0.72221,-0.60889 2.34186,0.60891 3.06406,0 0.72221,-0.60889 -0.7222,-1.97443 0,-2.58332 0.72221,-0.6089 2.34187,0.60889 3.06407,0 1.00756,-0.84948 -1.00754,-4.3172 0,-5.16666 1.44442,-1.2178 4.68373,1.21779 6.12815,0 0.8384,-0.70687 -0.8311,-8.93191 0,-10.33332 1.83844,-3.1 7.35377,-4.65 9.19222,-7.75001 0.45676,-0.77019 0,-1.7222 0,-2.58332 0,-0.86111 0.72221,-1.97444 0,-2.58333 -0.7222,-0.6089 -2.34186,0.60889 -3.06407,0 -0.7222,-0.6089 0,-1.72223 0,-2.58334 0,-0.86109 0,-1.72221 0,-2.58332 0,-9.26935 0,-11.16139 0,-15.49998 0,-0.62654 0.0986,-7.66692 0,-7.75001 -1.02381,-0.86317 -5.10434,0.8632 -6.12815,0 -0.72221,-0.60889 0.7222,-1.97443 0,-2.58332 -1.44442,-1.21779 -4.68373,1.21779 -6.12815,0 -0.7222,-0.6089 0.72221,-1.97444 0,-2.58334 -1.44441,-1.21779 -4.68371,1.2178 -6.12813,0 -0.72221,-0.60889 0.72221,-1.97442 0,-2.58332 -0.72221,-0.6089 -2.34186,0.6089 -3.06407,0 -0.72221,-0.6089 0,-1.72223 0,-2.58333 0,-1.21804 -0.13889,-12.79958 0,-12.91665 0.72221,-0.6089 2.34186,0.60889 3.06407,0 0.72221,-0.6089 -1.02136,-2.58334 0,-2.58334 4.50848,0 -7.09818,8.56782 3.06406,0"
       id="path3610-4"
       inkscape:connector-curvature="0" />
    <path
       style="fill:none;stroke:#000080;stroke-width:2.181;stroke-linecap:butt;stroke-linejoin:miter;stroke-opacity:1;stroke-miterlimit:4;stroke-dasharray:none"
       d="m 212.51525,838.14982 c 4.08542,-2.58333 8.64523,-4.7055 12.25628,-7.74999 0.7222,-0.6089 -0.72221,-1.97443 0,-2.58333 0.7222,-0.6089 2.09512,0.2723 3.06407,0 2.16662,-0.6089 3.96151,-1.97443 6.12814,-2.58333 0.96895,-0.27231 2.15054,0.3851 3.06406,0 1.29193,-0.54462 1.77214,-2.03873 3.06407,-2.58333 0.91353,-0.3851 2.34186,0.60889 3.06407,0 0.72221,-0.6089 -0.72221,-1.97443 0,-2.58333 0.72221,-0.60892 2.34188,0.6089 3.06409,0 0.72221,-0.60892 -0.72221,-1.97445 0,-2.58334 0.72221,-0.6089 2.34186,0.60889 3.06407,0 1.00754,-0.84947 -1.00756,-4.31718 0,-5.16666 0.72221,-0.6089 2.34186,0.60889 3.06407,0 1.00754,-0.84947 -1.00756,-4.31719 0,-5.16666 0.72221,-0.60889 2.34186,0.6089 3.06407,0 0.13889,-0.11711 0,-11.69861 0,-12.91665 0,-2.58333 0,-5.16666 0,-7.74999 0,-0.86112 -1.02137,-2.58334 0,-2.58334 1.02135,0 0,3.44445 0,2.58334 0,-6.02778 0,-12.05554 0,-18.08333 0,-0.86109 0,-1.72221 0,-2.58332 0,-0.86111 -1.02137,-2.58333 0,-2.58333 1.02135,0 -1.02137,2.58333 0,2.58333 5.08112,0 2.14848,-3.62278 3.06407,-5.16666 6.37596,-10.75121 -0.21154,2.76167 6.12813,-2.58333 0.72221,-0.6089 -0.7222,-1.97443 0,-2.58334 0.72221,-0.60889 2.34187,0.60891 3.06407,0 0.72221,-0.60889 -0.7222,-1.97442 0,-2.58332 0.72221,-0.60889 2.34187,0.6089 3.06408,0 0.7222,-0.60889 -0.72221,-1.97444 0,-2.58333 0.7222,-0.6089 2.34186,0.60889 3.06407,0 0.72221,-0.6089 -0.72221,-1.97444 0,-2.58334 0.72221,-0.6089 2.34186,0.6089 3.06407,0 0.72221,-0.6089 -0.72221,-1.97444 0,-2.58333 0.72221,-0.6089 2.34186,0.60889 3.06407,0 0.72221,-0.6089 -0.45677,-1.81313 0,-2.58334 0.64596,-1.08922 2.41811,-1.4941 3.06406,-2.58332 0.91354,-1.5404 -1.44442,-3.94887 0,-5.16667 0.72221,-0.60889 2.34186,0.60891 3.06409,0 0.7222,-0.60889 -0.72223,-1.97443 0,-2.58332 0.7222,-0.6089 2.34186,0.60889 3.06407,0 0.73731,-0.62163 -0.73732,-9.71169 0,-10.33333 0.72221,-0.60889 2.34186,0.60891 3.06407,0 1.44441,-1.21779 -0.91353,-3.62626 0,-5.16665 0.64596,-1.08923 2.4181,-1.4941 3.06407,-2.58334 0.2811,-0.474 -0.22489,-7.74999 0,-7.74999 1.02135,0 0,3.44444 0,2.58332 0,-3.44443 0,-6.88888 0,-10.33331 0,-0.86111 0,-1.72223 0,-2.58334 0,-0.86109 -0.45676,-1.81313 0,-2.58332 0.64595,-1.08923 2.41809,-1.49411 3.06407,-2.58333 2.11322,-3.56335 -3.71077,-2.31072 3.06407,-5.16666 0.91353,-0.3851 2.34186,0.60889 3.06407,0 0.72221,-0.6089 -0.72221,-1.97444 0,-2.58334 0.72221,-0.60889 2.34185,0.6089 3.06406,0 0.72221,-0.60889 -0.72221,-1.97442 0,-2.58332 0.72221,-0.60889 2.34187,0.6089 3.06407,0 0.72221,-0.60889 -0.7222,-1.97445 0,-2.58335 0.72221,-0.60889 2.34187,0.6089 3.06407,0 1.00856,-0.85031 -1.00856,-4.31633 0,-5.16665 0.72221,-0.6089 2.34187,0.60889 3.06408,0 0.94879,-0.79992 -0.94878,-12.11673 0,-12.91665 0.7222,-0.6089 2.34186,0.60889 3.06407,0 0.7222,-0.6089 -0.72221,-1.97444 0,-2.58333 6.33967,-5.34501 -0.24782,8.16787 6.12814,-2.58333 0.45677,-0.7702 -0.72221,-1.97444 0,-2.58333 0.72221,-0.6089 2.34188,0.60889 3.06408,0 0.72221,-0.6089 -0.45678,-1.81313 0,-2.58334 0.40677,-0.6859 8.37866,-7.40705 9.19221,-7.75 8.17085,0 -1.02137,0.86112 3.06407,-2.58332 0.72221,-0.6089 2.34186,0.60889 3.06407,0 0.72221,-0.6089 -0.72221,-1.97444 0,-2.58334 0.72221,-0.60889 2.34186,0.6089 3.06407,0 0.72221,-0.60889 -0.72221,-1.97443 0,-2.58332 0.72221,-0.6089 2.34186,0.60889 3.06407,0 0.3064,-0.25833 0.3064,-7.49166 0,-7.74999 -1.44442,-1.21779 -4.68372,1.21779 -6.12814,0 -0.72221,-0.6089 0,-1.72223 0,-2.58334 0,-0.8611 -1.02135,-2.58332 0,-2.58332 1.02135,0 0,3.44443 0,2.58332 0,-1.72221 0,-3.44444 0,-5.16665 0,-0.62654 -0.0986,-7.66692 0,-7.74999 0.72221,-0.6089 2.34186,0.60889 3.06407,0 0.72221,-0.6089 -0.72221,-1.97445 0,-2.58334 0.72221,-0.60891 2.34186,0.60889 3.06407,0 0.72221,-0.60891 -0.45677,-1.81314 0,-2.58333 1.29192,-2.17846 4.83622,-2.98821 6.12813,-5.16666 0.45677,-0.77021 -0.45676,-1.81313 0,-2.58334 6.37598,-10.75119 -0.21153,2.76167 6.12815,-2.58332 0.7222,-0.60891 -0.72221,-1.97444 0,-2.58333 0.7222,-0.6089 2.34186,0.60889 3.06407,0 0.7222,-0.6089 -0.72221,-1.97444 0,-2.58334 0.7222,-0.60889 2.34186,0.6089 3.06407,0 0.72222,-0.60889 -0.72221,-1.97443 0,-2.58332 1.53204,-1.29168 7.66017,1.29165 9.19222,0 0.7222,-0.6089 -0.72221,-1.97444 0,-2.58333 0.0986,-0.0831 8.4491,0 9.19221,0 1.12523,0 12.13299,0.10388 12.25627,0 0.72221,-0.6089 -0.72221,-1.97443 0,-2.58334 0.72221,-0.60889 2.04272,0 3.06407,0 5.1068,0 10.21358,0 15.32037,0 0.74311,0 9.09366,0.0832 9.19221,0 0.7222,-0.60889 -0.72221,-1.97443 0,-2.58332 0.7222,-0.6089 3.06407,-0.86112 3.06407,0 0,0.86111 -2.04272,0 -3.06407,0"
       id="path3614-6"
       inkscape:connector-curvature="0" />
    <path
       style="fill:none;stroke:#000080;stroke-width:2.181;stroke-linecap:butt;stroke-linejoin:miter;stroke-opacity:1;stroke-miterlimit:4;stroke-dasharray:none"
       d="m 142.04162,641.81667 c 8.17085,0 16.34171,0 24.51257,0 1.02135,0 2.34186,-0.6089 3.06406,0 0.72221,0.60891 -0.7222,1.97444 0,2.58333 1.44442,1.21781 4.30109,-0.77019 6.12815,0 1.29192,0.54462 1.77214,2.03873 3.06407,2.58335 0.91353,0.3851 2.34186,-0.6089 3.06407,0 6.33967,5.345 -9.68787,-0.20895 3.06407,5.16666 2.11645,0.8922 14.24481,-0.90681 15.32034,0 1.44442,1.21779 -1.44441,3.94886 0,5.16666 0.72221,0.60889 2.34187,-0.6089 3.06409,0 1.07554,0.9068 -1.05824,11.13225 0,12.91664 10.16223,8.56783 -1.44443,-2.43558 3.06407,5.16666 0.64595,1.08924 2.4181,1.49411 3.06407,2.58333 0.45676,0.77022 -0.72221,1.97446 0,2.58335 0.72221,0.6089 2.15054,-0.38511 3.06407,0 1.29192,0.54461 1.77215,2.03871 3.06406,2.58332 0.91353,0.38511 2.34187,-0.60889 3.06407,0 0.72221,0.6089 -0.7222,1.97444 0,2.58334 0.72221,0.60889 2.04273,0 3.06408,0 5.10679,0 10.21357,0 15.32034,0 1.12525,0 12.13299,-0.10388 12.2563,0 0.72221,0.60889 -0.72221,1.97443 0,2.58333 0.72221,0.6089 2.15054,-0.3851 3.06407,0 1.29193,0.54461 1.77214,2.03871 3.06407,2.58333 0.91353,0.3851 2.34186,-0.6089 3.06407,0 0.72221,0.60889 -0.72221,1.97443 0,2.58333 1.00855,0.85031 5.11957,-0.85032 6.12813,0 1.44442,1.21779 -1.44441,3.94887 0,5.16666 0.72221,0.60889 2.34187,-0.6089 3.06407,0 0.72221,0.60889 -0.45675,1.81313 0,2.58333 0.64598,1.08923 2.41812,1.4941 3.06408,2.58332 0.45677,0.77021 0,1.72223 0,2.58334 0,0.86112 0,1.72223 0,2.58332 0,4.30556 0,8.61111 0,12.91666 0,1.72222 0,3.44444 0,5.16667 0,0.86111 1.02134,2.58332 0,2.58332 -1.02135,0 -1.02135,-2.58332 0,-2.58332 6.37597,0 1.23288,3.62278 3.06407,5.16666 0.72221,0.60889 2.15054,-0.3851 3.06407,0 1.29192,0.54462 1.77214,2.03872 3.06407,2.58332 1.63809,0.69055 4.49004,-0.69054 6.12815,0 1.29192,0.54463 2.0427,1.72223 3.06407,2.58334"
       id="path3618-0"
       inkscape:connector-curvature="0" />
    <path
       style="fill:none;stroke:#000080;stroke-width:2.181;stroke-linecap:butt;stroke-linejoin:miter;stroke-opacity:1;stroke-miterlimit:4;stroke-dasharray:none"
       d="m 417.80799,442.90021 c 1.02135,3.44444 2.23819,6.85183 3.06407,10.33333 0.40061,1.68877 0,3.44443 0,5.16665 0,5.16666 0,10.33333 0,15.5 0,0.62652 0.0986,7.6669 0,7.74999 -0.7222,0.60889 -2.34186,-0.60891 -3.06407,0 -1.44441,1.21779 1.44442,3.94887 0,5.16666 -0.72221,0.60889 -2.34186,-0.6089 -3.06407,0 -0.72221,0.60889 0.72221,1.97442 0,2.58332 -0.72221,0.60891 -2.15054,-0.38509 -3.06407,0 -1.29193,0.54463 -1.77216,2.03873 -3.06409,2.58333 -1.82705,0.77021 -4.30108,-0.77019 -6.12814,0 -1.29191,0.54462 -1.77214,2.03873 -3.06407,2.58334 -0.91353,0.38509 -2.34185,-0.6089 -3.06406,0 -0.72221,0.60889 0.72221,1.97443 0,2.58332 -1.44442,1.21779 -4.68372,-1.21779 -6.12814,0 -0.72221,0.6089 0.72221,1.97444 0,2.58333 -1.44442,1.2178 -4.68373,-1.21779 -6.12814,0 -0.72221,0.6089 0,1.72223 0,2.58333 -1.02135,0 -2.15055,-0.38509 -3.06407,0 -1.29193,0.54463 -1.77215,2.03873 -3.06407,2.58333 -0.91352,0.38512 -3.06407,0.86112 -3.06407,0 0,-0.8611 4.08542,0 3.06407,0 -8.17086,0 -16.34171,0 -24.51258,0 -1.37991,0 -8.25971,-0.39309 -9.1922,0 -1.29193,0.54462 -1.77214,2.03873 -3.06407,2.58335 -0.91353,0.3851 -2.34186,-0.6089 -3.06407,0 -0.72221,0.60889 0.72221,1.97443 0,2.58332 -0.73731,0.62163 -11.51897,-0.62163 -12.25629,0 -0.72221,0.60891 0.72221,1.97444 0,2.58334 -0.72221,0.60889 -2.15054,-0.38511 -3.06407,0 -1.29193,0.5446 -1.77215,2.0387 -3.06407,2.58333 -0.91353,0.38509 -2.34187,-0.60891 -3.06407,0 -0.72221,0.6089 0.7222,1.97443 0,2.58332 -1.00755,0.84947 -5.12059,-0.84948 -6.12815,0 -0.7222,0.6089 0.72221,1.97444 0,2.58334 -1.00856,0.85032 -5.11958,-0.85033 -6.12813,0 -0.72221,0.60889 0.72221,1.97443 0,2.58332 -0.72221,0.60891 -2.15054,-0.38509 -3.06407,0 -1.29193,0.54463 -1.77214,2.03873 -3.06407,2.58333 -0.91353,0.38511 -2.34186,-0.60889 -3.06407,0 -0.72221,0.6089 0.72221,1.97443 0,2.58334 -0.72221,0.60889 -2.34186,-0.60891 -3.06407,0 -0.72221,0.60889 0.72221,1.97443 0,2.58332 -0.72221,0.6089 -2.04271,0 -3.06407,0 -1.02137,0 -3.06407,0.86112 -3.06407,0 0,-0.8611 4.08543,0 3.06407,0 -2.04272,0 -4.08544,0 -6.12816,0 -3.02029,0 -9.14842,0 -6.12813,0 2.04271,0 8.17085,0 6.12813,0 -3.06406,0 -6.12813,0 -9.1922,0 -1.60227,0 -11.45061,0.33964 -12.25629,0 -1.29191,-0.5446 -1.77214,-2.0387 -3.06406,-2.58332 -0.91353,-0.3851 -2.34186,0.60889 -3.06407,0 -0.72221,-0.60891 0.72221,-1.97444 0,-2.58334 -0.72221,-0.60889 -2.15054,0.38511 -3.06407,0 -12.75193,-5.37559 3.2756,0.17835 -3.06407,-5.16665 -0.72221,-0.6089 -2.34186,0.60889 -3.06407,0 -0.72221,-0.6089 0.45677,-1.81313 0,-2.58334 -0.64597,-1.08922 -2.04271,-1.72222 -3.06409,-2.58332 -1.02135,-0.86112 -2.0427,-1.72223 -3.06407,-2.58333 -1.02135,-0.86112 -1.77214,-2.03872 -3.06407,-2.58334 -4.22644,-1.78167 -2.74072,3.12855 -6.12813,-2.58332 -0.45677,-0.77022 0.72221,-1.97445 0,-2.58335 -0.12325,-0.10388 -11.13104,0 -12.25629,0 -8.17085,0 -16.3417,0 -24.51257,0 -1.02135,0 -2.0427,0 -3.06407,0 -1.02135,0 -2.34185,-0.60889 -3.06406,0 -0.72221,0.6089 0.72221,1.97445 0,2.58335 -0.31563,0.26611 -14.55651,-0.21467 -15.32036,0 -1.37028,0.3851 -1.77214,2.0387 -3.06407,2.58332 -1.21487,0.51213 -8.56579,-0.52813 -9.19221,0 -0.72221,0.60891 0.7222,1.97444 0,2.58334 -0.62641,0.52811 -7.97733,-0.51215 -9.19222,0 -12.75192,5.37558 3.2756,-0.17835 -3.06407,5.16665 -1.44442,1.21779 -4.68371,-1.21779 -6.12813,0 -0.72221,0.6089 0.72221,1.97444 0,2.58334 -1.53204,1.29165 -7.66019,-1.29168 -9.19221,0 -0.72221,0.60889 0.72221,1.97443 0,2.58332 -1.44442,1.2178 -4.68373,-1.21779 -6.12815,0 -0.7222,0.60891 0.72221,1.97444 0,2.58333 -0.7222,0.6089 -2.34186,-0.60889 -3.06407,0 -0.7222,0.6089 0.72221,1.97443 0,2.58334 -0.7222,0.60889 -2.34185,-0.60891 -3.06406,0 -0.8384,0.70686 0.8311,8.9319 0,10.33331 -0.64597,1.08923 -2.41812,1.4941 -3.06408,2.58335 -0.45677,0.77019 0.45676,1.81313 0,2.58332 -0.64596,1.08924 -2.26286,1.57007 -3.06407,2.58334 -1.26683,1.6021 -1.44917,3.80512 -3.06408,5.16665 -0.7222,0.6089 -2.34186,-0.60889 -3.06407,0 -0.7222,0.6089 0.72221,1.97444 0,2.58334 -0.7222,0.60889 -2.34186,-0.6089 -3.06407,0 -1.44441,1.21779 1.44442,3.94886 0,5.16666 -0.72221,0.60889 -2.34186,-0.6089 -3.06407,0 -0.72221,0.60889 0.72221,1.97442 0,2.58333 -0.72221,0.60889 -2.341861,-0.60891 -3.064071,0 -1.00756,0.84947 1.007561,4.31719 0,5.16666 -0.72221,0.60889 -2.341858,-0.6089 -3.064068,0 -0.72221,0.60889 0.72221,1.97443 0,2.58332 -0.72221,0.60891 -2.341859,-0.60889 -3.064069,0 -0.72221,0.60891 0.72221,1.97444 0,2.58333 -0.72221,0.6089 -2.341859,-0.60889 -3.064069,0 -0.722209,0.6089 0.72221,1.97443 0,2.58334 -0.722209,0.60889 -2.341858,-0.60891 -3.064068,0 -0.72221,0.60889 0.72221,1.97444 0,2.58333 -0.72221,0.6089 -2.341848,-0.60889 -3.064058,0 -0.72221,0.6089 0.72221,1.97444 0,2.58334 -1.44442,1.21779 -4.683738,-1.21779 -6.128158,0 -0.7222,0.60889 0.72221,1.97443 0,2.58332 -0.7222,0.60891 -2.341859,-0.60889 -3.064069,0 -0.72221,0.60891 0.72221,1.97444 0,2.58334 -0.72221,0.60889 -2.341858,-0.6089 -3.064068,0 -4.085421,3.44444 5.106795,2.58333 -3.064069,2.58333"
       id="path3604-6"
       inkscape:connector-curvature="0" />
    <path
       style="fill:none;stroke:#000080;stroke-width:2.181;stroke-linecap:butt;stroke-linejoin:miter;stroke-opacity:1;stroke-miterlimit:4;stroke-dasharray:none"
       d="m 37.863227,701.23329 c 4.085421,2.58332 8.170841,5.16666 12.256278,7.74998 0,0.86112 -0.722207,1.97444 0,2.58334 0.722209,0.60889 2.150542,-0.38511 3.06407,0 1.291925,0.54461 1.772144,2.03871 3.06407,2.58333 0.913528,0.3851 2.341861,-0.60891 3.064069,0 0.722208,0.6089 -0.722208,1.97444 0,2.58334 0.722208,0.60889 2.341862,-0.6089 3.06407,0 1.532043,1.29166 -1.532027,6.45832 0,7.74999 0.722208,0.60889 2.341862,-0.6089 3.064069,0 1.444417,1.21779 -1.444416,3.94886 0,5.16665 0.722208,0.6089 2.042718,0 3.06407,0 3.064069,0 6.128137,0 9.192206,0 6.128158,0 12.256284,0 18.384422,0 1.021352,0 2.341858,0.6089 3.064068,0 0.72221,-0.60889 -0.72221,-1.97442 0,-2.58332 0.13889,-0.1171 13.875661,0 15.320361,0 1.02136,0 2.34186,-0.60889 3.06407,0 0.72221,0.6089 -0.72221,1.97443 0,2.58332 1.00755,0.84948 5.12059,-0.84947 6.12814,0 0.72221,0.6089 -0.7222,1.97444 0,2.58334 0.72221,0.60889 2.34187,-0.6089 3.06407,0 0.72221,0.60889 -0.45675,1.81313 0,2.58332 0.64597,1.08924 2.41811,1.49411 3.06408,2.58334 0.91352,1.54039 -0.91353,3.62625 0,5.16665 1.83844,3.10001 7.35376,4.65001 9.19221,7.75001 0.45676,0.7702 -0.45677,1.81313 0,2.58333 0.40677,0.6859 8.37866,7.40704 9.1922,7.74999 0.91353,0.38509 2.34186,-0.60889 3.06407,0 0.72221,0.6089 -0.72221,1.97443 0,2.58333 0.72221,0.60889 2.34187,-0.6089 3.06407,0 0.72221,0.60889 -0.7222,1.97443 0,2.58333 1.61491,1.36154 4.51325,1.22178 6.12815,2.58332 0.7222,0.60891 0,1.72223 0,2.58334 1.02136,0.8611 1.86225,1.90781 3.06408,2.58333 1.90025,1.06807 4.22788,1.51525 6.12813,2.58332 2.40365,1.35103 3.5443,4.07744 6.12815,5.16666 1.86058,0.78434 16.52386,-0.78431 18.38441,0 3.64816,1.53791 4.27578,5.16668 3.06407,5.16668 -1.02135,0 0,-3.44445 0,-2.58334 0,1.72222 0,3.44445 0,5.16667 0,0.8611 -0.72221,1.97443 0,2.58333 0.72221,0.60889 2.34186,-0.6089 3.06407,0 0.72221,0.60889 0,1.72221 0,2.58333 0,5.16666 0,10.33332 0,15.49998 0,0.86111 -0.72221,1.97443 0,2.58333 0.72221,0.60889 2.34187,-0.6089 3.06409,0 0.7373,0.62162 -0.73733,9.71169 0,10.33333 0.72221,0.60889 2.34186,-0.6089 3.06407,0 0.72221,0.60889 -0.45677,1.81314 0,2.58333 0.64595,1.08922 2.4181,1.4941 3.06407,2.58333 0.45676,0.7702 -0.72221,1.97443 0,2.58333 1.6149,1.36154 4.8613,0.98121 6.12813,2.58333 1.1331,1.43296 -0.91353,3.62626 0,5.16666 0.45677,0.77019 2.34187,-0.6089 3.06407,0 4.08542,3.44443 -5.10678,2.58333 3.06408,2.58333"
       id="path3616-5"
       inkscape:connector-curvature="0" />
    <path
       style="fill:none;stroke:#000080;stroke-width:2.181;stroke-linecap:butt;stroke-linejoin:miter;stroke-opacity:1;stroke-miterlimit:4;stroke-dasharray:none"
       d="m 598.58816,796.81653 c 3.67975,2.75513 17.55535,-13.85883 21.4485,-15.5 0.91353,-0.38509 2.34186,0.60891 3.06407,0 0.72221,-0.60889 -0.45677,-1.81313 0,-2.58332 0.44096,-0.74356 5.68716,-4.4231 6.12815,-5.16666 0.60742,-1.02427 -0.62641,-7.22187 0,-7.74999 0.7222,-0.6089 2.6073,0.77019 3.06406,0 0.91352,-1.5404 -0.91352,-3.62626 0,-5.16666 0.45677,-0.7702 2.60731,0.7702 3.06407,0 0.91353,-1.5404 -0.91353,-3.62627 0,-5.16667 0.45677,-0.77019 2.34186,0.60891 3.06407,0 1.0238,-0.86318 -1.0238,-4.30348 0,-5.16665 0.72221,-0.6089 2.34186,0.60889 3.06407,0 0.72221,-0.6089 -0.72221,-1.97444 0,-2.58334 0.72221,-0.6089 2.34186,0.6089 3.06407,0 1.44442,-1.2178 -1.44442,-3.94887 0,-5.16667 0.72221,-0.60889 2.34186,0.6089 3.06407,0 1.44442,-1.21779 -1.44442,-3.94886 0,-5.16665 0.72221,-0.6089 2.34186,0.60889 3.06407,0 1.53204,-1.29166 -1.53203,-6.45833 0,-7.75 0.72221,-0.60889 2.34185,0.6089 3.06406,0 0.72221,-0.60889 -0.45676,-1.81312 0,-2.58332 6.37598,-10.75121 -0.21151,2.76167 6.12816,-2.58333 0.72221,-0.6089 -0.72221,-1.97443 0,-2.58334 0.72221,-0.60889 2.34186,0.60891 3.06407,0 1.44442,-1.21779 -0.91353,-3.62626 0,-5.16665 2.05756,-3.46947 4.07058,-1.6972 6.12814,-5.16667 0.91353,-1.5404 -1.44441,-3.94887 0,-5.16666 0.72221,-0.6089 2.34187,0.60889 3.06407,0 1.53203,-1.29167 -1.53204,-6.45832 0,-7.74999 0.72221,-0.6089 2.15055,0.3851 3.06407,0 4.08838,-1.72348 2.03973,-3.44319 6.12814,-5.16666 0.91353,-0.3851 2.34186,0.6089 3.06407,0 0.72221,-0.6089 -0.72221,-1.97444 0,-2.58333 0.72221,-0.6089 2.34186,0.60889 3.06407,0 0.72221,-0.6089 -0.72221,-1.97443 0,-2.58333 0.72221,-0.6089 2.04272,0 3.06407,0 0,-0.86112 -0.45677,-1.81314 0,-2.58333 10.16224,-8.56783 -1.44442,2.43558 3.06407,-5.16666 0.64597,-1.08925 2.41811,-1.49412 3.06407,-2.58335 0.91355,-1.54039 -0.91353,-3.62625 0,-5.16665 0.64597,-1.08924 2.41811,-1.4941 3.06406,-2.58334 0.46628,-0.78619 0,-6.58657 0,-7.74999 0,-5.16665 0,-10.33331 0,-15.49997 0,-0.86112 -1.02135,-2.58335 0,-2.58335 1.02138,0 0,3.44446 0,2.58335 0,-4.30556 0,-8.61111 0,-12.91666 0,-1.72634 0,-3.4403 0,-5.16667 0,-0.8611 -1.02135,-2.58332 0,-2.58332 1.02138,0 0,1.72222 0,2.58332"
       id="path3608-2"
       inkscape:connector-curvature="0" />
    <path
       style="fill:none;stroke:#000080;stroke-width:2.181;stroke-linecap:butt;stroke-linejoin:miter;stroke-opacity:1;stroke-miterlimit:4;stroke-dasharray:none"
       d="m 258.47631,941.48305 c 3.10839,-6.14023 3.06406,-9.76342 3.06406,-15.49998 0,-0.86112 -0.72221,-1.97445 0,-2.58334 0.72221,-0.6089 2.34187,0.60889 3.06407,0 1.44442,-1.21779 -0.91352,-3.62626 0,-5.16666 0.64596,-1.08922 2.41812,-1.4941 3.06407,-2.58333 0.91353,-1.5404 -0.91352,-3.62626 0,-5.16666 0.64598,-1.08923 2.41812,-1.4941 3.06408,-2.58334 0.8311,-1.40142 -0.8384,-9.62647 0,-10.33331 0.7222,-0.6089 2.34186,0.6089 3.06407,0 0.72221,-0.6089 -0.72221,-1.97443 0,-2.58333 0.72221,-0.6089 2.34186,0.6089 3.06407,0 1.61491,-1.36153 1.44917,-3.80514 3.06407,-5.16666 0.72221,-0.60891 2.34185,0.60889 3.06406,0 1.44442,-1.2178 -1.44442,-3.94888 0,-5.16667 0.72221,-0.6089 2.34186,0.60889 3.06409,0 0.7222,-0.6089 -0.72223,-1.97444 0,-2.58334 0.7222,-0.60889 2.34186,0.6089 3.06407,0 0.72221,-0.60889 -0.72221,-1.97442 0,-2.58332 0.6264,-0.52813 7.97733,0.51214 9.19221,0 1.29193,-0.5446 1.77214,-2.03871 3.06407,-2.58333 2.45125,-1.03333 6.74095,1.03333 9.1922,0 1.29193,-0.54461 1.77215,-2.03871 3.06407,-2.58334 1.10808,-0.4671 13.18918,0 15.32037,0 14.299,0 28.598,0 42.89699,0 1.02135,0 2.0427,0 3.06407,0 1.02135,0 2.34186,0.60891 3.06407,0 0.7222,-0.60889 -0.45676,-1.81313 0,-2.58332 0.64596,-1.08922 2.4181,-1.4941 3.06407,-2.58333 0.45677,-0.7702 -0.72221,-1.97443 0,-2.58333 0.7222,-0.60889 2.34186,0.6089 3.06407,0 1.44441,-1.2178 -1.44442,-3.94886 0,-5.16665 0.72221,-0.60891 2.34186,0.60889 3.06407,0 0.72221,-0.60891 -0.72221,-1.97444 0,-2.58334 0.72221,-0.60889 2.34186,0.6089 3.06407,0 0.72221,-0.60889 -0.72221,-1.97444 0,-2.58333 0.72221,-0.6089 2.34186,0.60889 3.06407,0 0.72221,-0.6089 -0.72221,-1.97444 0,-2.58334 0.72221,-0.60889 2.34186,0.6089 3.06407,0 0.72221,-0.60889 -0.72221,-1.97444 0,-2.58333 0.72221,-0.6089 2.34185,0.60889 3.06406,0 0.72221,-0.6089 -0.72221,-1.97443 0,-2.58334 0.72221,-0.60889 2.34186,0.60891 3.06407,0 0.72221,-0.60889 -0.72221,-1.97442 0,-2.58332 0.72221,-0.6089 2.34187,0.6089 3.06407,0 0.72221,-0.6089 -0.7222,-1.97444 0,-2.58333 0.13889,-0.1171 13.87566,0 15.32037,0 1.02135,0 2.34186,0.60889 3.06406,0 0.72221,-0.6089 -0.7222,-1.97443 0,-2.58333 0.0986,-0.0831 8.44911,0 9.19222,0 1.12523,0 12.13299,0.10387 12.25627,0 0.72221,-0.6089 -0.72221,-1.97444 0,-2.58333 0.83841,-0.70686 10.59407,0.70071 12.2563,0 1.29193,-0.54461 1.77214,-2.03873 3.06407,-2.58333 0.91353,-0.3851 2.34186,0.60889 3.06407,0 0.72221,-0.6089 -0.72221,-1.97443 0,-2.58333 1.44442,-1.21779 4.68372,1.21779 6.12813,0 0.72221,-0.60889 -0.7222,-1.97444 0,-2.58333 0.72221,-0.6089 2.34187,0.60889 3.06408,0 0.7222,-0.6089 -0.72221,-1.97443 0,-2.58333 0.7222,-0.6089 2.34186,0.6089 3.06407,0 0.7222,-0.6089 -0.72221,-1.97443 0,-2.58333 0.7222,-0.6089 2.15054,0.3851 3.06407,0 1.29192,-0.54462 1.77214,-2.03873 3.06407,-2.58333 0.91353,-0.3851 2.34186,0.60889 3.06407,0 0.72221,-0.6089 -0.72221,-1.97443 0,-2.58333 0.72221,-0.60892 2.34186,0.6089 3.06407,0 0.72221,-0.60892 -1.02136,-2.58334 0,-2.58334 1.02136,0 -1.02136,2.58334 0,2.58334 1.44442,0 1.77214,-2.03873 3.06406,-2.58334 0.80568,-0.33964 10.65404,0 12.2563,0 1.02135,0 2.04271,0 3.06407,0 1.02135,0 3.06407,-0.86111 3.06407,0 0,0.86112 -4.08543,0 -3.06407,0 2.04271,0 4.08542,0 6.12814,0"
       id="path3612-8"
       inkscape:connector-curvature="0" />
    <rect
       style="opacity:0.97000002;fill:#cccccc;fill-opacity:1;stroke:#1a1a1a;stroke-width:2.12900329;stroke-miterlimit:4;stroke-dasharray:none"
       id="DNSM3_obs_box"
       width="53.119751"
       height="24.020248"
       x="207.16042"
       y="593.60791"
       inkscape:label="#DNSM3_obs_box" />
    <text
       id="DNSM3"
       x="221.92488"
       y="590.07593"
       style="font-size:16.3782959px;line-height:125%;fill:#000000;font-family:Arial"
       inkscape:label="#DNSM3_STG"
       sodipodi:linespacing="125%"
       transform="scale(0.95987041,1.0418073)">
      <tspan
         style="font-size:20.01791954px;font-style:normal;font-variant:normal;font-weight:normal;font-stretch:normal;text-align:start;line-height:125%;writing-mode:lr-tb;text-anchor:start;fill:#000000;font-family:Arial;-inkscape-font-specification:Arial"
         id="tspan6282-2-6-4-3-2">%LASTVALUE(NF1)%</tspan>
    </text>
    <rect
       style="opacity:0.97000002;fill:#cccccc;fill-opacity:1;stroke:#1a1a1a;stroke-width:2.12900329;stroke-miterlimit:4;stroke-dasharray:none"
       id="DNSM3_fcst_box"
       width="53.119751"
       height="24.020248"
       x="208.92494"
       y="624.7547"
       inkscape:label="#DNSM3_fcst_box" />
    <text
       id="DNSM3MER"
       x="220.62508"
       y="616.83466"
       style="font-size:16.3782959px;line-height:125%;fill:#000000;font-family:Arial"
       inkscape:label="#DNSM3MER_SSTG"
       sodipodi:linespacing="125%"
       transform="scale(0.95987041,1.0418073)">
      <tspan
         style="font-size:20.01791954px;font-style:normal;font-variant:normal;font-weight:normal;font-stretch:normal;text-align:start;line-height:125%;writing-mode:lr-tb;text-anchor:start;fill:#000000;font-family:Arial;-inkscape-font-specification:Arial"
         id="tspan6282-2-6-4-3-2-5">%LASTVALUE(NF1)%</tspan>
    </text>
    <path
       sodipodi:type="arc"
       style="opacity:0.97000002;fill:#008000;stroke:#008000;stroke-width:1.60000002;stroke-miterlimit:4;stroke-dasharray:none"
       id="HVRM3_dot"
       sodipodi:cx="258.57144"
       sodipodi:cy="262.36218"
       sodipodi:rx="15.714286"
       sodipodi:ry="15.714286"
       d="m 274.28573,262.36218 c 0,8.67876 -7.03553,15.71429 -15.71429,15.71429 -8.67876,0 -15.71428,-7.03553 -15.71428,-15.71429 0,-8.67876 7.03552,-15.71428 15.71428,-15.71428 8.67876,0 15.71429,7.03552 15.71429,15.71428 z"
       inkscape:label="#path3777"
       transform="matrix(0.87339125,0,0,0.94794599,547.23427,325.00045)" />
    <path
       sodipodi:type="arc"
       style="opacity:0.97000002;fill:#008000;stroke:#008000;stroke-width:1.60000002;stroke-miterlimit:4;stroke-dasharray:none"
       id="LWMM3_dot"
       sodipodi:cx="258.57144"
       sodipodi:cy="262.36218"
       sodipodi:rx="15.714286"
       sodipodi:ry="15.714286"
       d="m 274.28573,262.36218 c 0,8.67876 -7.03553,15.71429 -15.71429,15.71429 -8.67876,0 -15.71428,-7.03553 -15.71428,-15.71429 0,-8.67876 7.03552,-15.71428 15.71428,-15.71428 8.67876,0 15.71429,7.03552 15.71429,15.71428 z"
       inkscape:label="#path3777"
       transform="matrix(0.87339125,0,0,0.94794599,475.05591,376.28508)" />
    <path
       sodipodi:type="arc"
       style="opacity:0.97000002;fill:#008000;stroke:#008000;stroke-width:1.60000002;stroke-miterlimit:4;stroke-dasharray:none"
       id="WLMM3_dot"
       sodipodi:cx="258.57144"
       sodipodi:cy="262.36218"
       sodipodi:rx="15.714286"
       sodipodi:ry="15.714286"
       d="m 274.28573,262.36218 c 0,8.67876 -7.03553,15.71429 -15.71429,15.71429 -8.67876,0 -15.71428,-7.03553 -15.71428,-15.71429 0,-8.67876 7.03552,-15.71428 15.71428,-15.71428 8.67876,0 15.71429,7.03552 15.71429,15.71428 z"
       inkscape:label="#path3777"
       transform="matrix(0.87339125,0,0,0.94794599,427.57014,488.3515)" />
    <path
       sodipodi:type="arc"
       style="opacity:0.97000002;fill:#008000;stroke:#008000;stroke-width:1.60000002;stroke-miterlimit:4;stroke-dasharray:none"
       id="MAYM3_dot"
       sodipodi:cx="258.57144"
       sodipodi:cy="262.36218"
       sodipodi:rx="15.714286"
       sodipodi:ry="15.714286"
       d="m 274.28573,262.36218 c 0,8.67876 -7.03553,15.71429 -15.71429,15.71429 -8.67876,0 -15.71428,-7.03553 -15.71428,-15.71429 0,-8.67876 7.03552,-15.71428 15.71428,-15.71428 8.67876,0 15.71429,7.03552 15.71429,15.71428 z"
       inkscape:label="#path3777"
       transform="matrix(0.87339125,0,0,0.94794599,186.34243,590.92076)" />
    <path
       sodipodi:type="arc"
       style="opacity:0.97000002;fill:#008000;stroke:#008000;stroke-width:1.60000002;stroke-miterlimit:4;stroke-dasharray:none"
       id="FBGM3_dot"
       sodipodi:cx="258.57144"
       sodipodi:cy="262.36218"
       sodipodi:rx="15.714286"
       sodipodi:ry="15.714286"
       d="m 274.28573,262.36218 c 0,8.67876 -7.03553,15.71429 -15.71429,15.71429 -8.67876,0 -15.71428,-7.03553 -15.71428,-15.71429 0,-8.67876 7.03552,-15.71428 15.71428,-15.71428 8.67876,0 15.71429,7.03552 15.71429,15.71428 z"
       inkscape:label="#path3777"
       transform="matrix(0.87339125,0,0,0.94794599,-117.56649,484.55264)" />
    <path
       sodipodi:type="arc"
       style="opacity:0.97000002;fill:#008000;stroke:#008000;stroke-width:1.60000002;stroke-miterlimit:4;stroke-dasharray:none"
       id="WGTM3_dot"
       sodipodi:cx="258.57144"
       sodipodi:cy="262.36218"
       sodipodi:rx="15.714286"
       sodipodi:ry="15.714286"
       d="m 274.28573,262.36218 c 0,8.67876 -7.03553,15.71429 -15.71429,15.71429 -8.67876,0 -15.71428,-7.03553 -15.71428,-15.71429 0,-8.67876 7.03552,-15.71428 15.71428,-15.71428 8.67876,0 15.71429,7.03552 15.71429,15.71428 z"
       inkscape:label="#path3777"
       transform="matrix(0.87339125,0,0,0.94794599,-1.7012495,433.26802)" />
    <path
       sodipodi:type="arc"
       style="opacity:0.97000002;fill:#008000;stroke:#008000;stroke-width:1.60000002;stroke-miterlimit:4;stroke-dasharray:none"
       id="DNSM3_dot"
       sodipodi:cx="258.57144"
       sodipodi:cy="262.36218"
       sodipodi:rx="15.714286"
       sodipodi:ry="15.714286"
       d="m 274.28573,262.36218 c 0,8.67876 -7.03553,15.71429 -15.71429,15.71429 -8.67876,0 -15.71428,-7.03553 -15.71428,-15.71429 0,-8.67876 7.03552,-15.71428 15.71428,-15.71428 8.67876,0 15.71429,7.03552 15.71429,15.71428 z"
       inkscape:label="#path3777"
       transform="matrix(0.87339125,0,0,0.94794599,98.968629,402.87712)" />
    <path
       sodipodi:type="arc"
       style="opacity:0.97000002;fill:#008000;stroke:#008000;stroke-width:1.60000002;stroke-miterlimit:4;stroke-dasharray:none"
       id="LOWM3_dot"
       sodipodi:cx="258.57144"
       sodipodi:cy="262.36218"
       sodipodi:rx="15.714286"
       sodipodi:ry="15.714286"
       d="m 274.28573,262.36218 c 0,8.67876 -7.03553,15.71429 -15.71429,15.71429 -8.67876,0 -15.71428,-7.03553 -15.71428,-15.71429 0,-8.67876 7.03552,-15.71428 15.71428,-15.71428 8.67876,0 15.71429,7.03552 15.71429,15.71428 z"
       inkscape:label="#path3777"
       transform="matrix(0.87339125,0,0,0.94794599,323.10148,431.36859)" />
    <path
       sodipodi:type="arc"
       style="opacity:0.97000002;fill:#008000;stroke:#008000;stroke-width:1.60000002;stroke-miterlimit:4;stroke-dasharray:none"
       id="LCNM3_dot"
       sodipodi:cx="258.57144"
       sodipodi:cy="262.36218"
       sodipodi:rx="15.714286"
       sodipodi:ry="15.714286"
       d="m 274.28573,262.36218 c 0,8.67876 -7.03553,15.71429 -15.71429,15.71429 -8.67876,0 -15.71428,-7.03553 -15.71428,-15.71429 0,-8.67876 7.03552,-15.71428 15.71428,-15.71428 8.67876,0 15.71429,7.03552 15.71429,15.71428 z"
       inkscape:label="#path3777"
       transform="matrix(0.87339125,0,0,0.94794599,345.89463,473.15606)" />
    <path
       sodipodi:type="arc"
       style="opacity:0.97000002;fill:#008000;stroke:#008000;stroke-width:1.60000002;stroke-miterlimit:4;stroke-dasharray:none"
       id="NSHN3_dot"
       sodipodi:cx="258.57144"
       sodipodi:cy="262.36218"
       sodipodi:rx="15.714286"
       sodipodi:ry="15.714286"
       d="m 274.28573,262.36218 c 0,8.67876 -7.03553,15.71429 -15.71429,15.71429 -8.67876,0 -15.71428,-7.03553 -15.71428,-15.71429 0,-8.67876 7.03552,-15.71428 15.71428,-15.71428 8.67876,0 15.71429,7.03552 15.71429,15.71428 z"
       inkscape:label="#path3777"
       transform="matrix(0.87339125,0,0,0.94794599,184.44297,300.30786)" />
    <path
       sodipodi:type="arc"
       style="opacity:0.97000002;fill:#008000;stroke:#008000;stroke-width:1.60000002;stroke-miterlimit:4;stroke-dasharray:none"
       id="SOHN3_dot"
       sodipodi:cx="258.57144"
       sodipodi:cy="262.36218"
       sodipodi:rx="15.714286"
       sodipodi:ry="15.714286"
       d="m 274.28573,262.36218 c 0,8.67876 -7.03553,15.71429 -15.71429,15.71429 -8.67876,0 -15.71428,-7.03553 -15.71428,-15.71429 0,-8.67876 7.03552,-15.71428 15.71428,-15.71428 8.67876,0 15.71429,7.03552 15.71429,15.71428 z"
       inkscape:label="#path3777"
       transform="matrix(0.87339125,0,0,0.94794599,125.56065,252.8221)" />
    <path
       sodipodi:type="arc"
       style="opacity:0.97000002;fill:#008000;stroke:#008000;stroke-width:1.60000002;stroke-miterlimit:4;stroke-dasharray:none"
       id="MTHM3_dot"
       sodipodi:cx="258.57144"
       sodipodi:cy="262.36218"
       sodipodi:rx="15.714286"
       sodipodi:ry="15.714286"
       d="m 274.28573,262.36218 c 0,8.67876 -7.03553,15.71429 -15.71429,15.71429 -8.67876,0 -15.71428,-7.03553 -15.71428,-15.71429 0,-8.67876 7.03552,-15.71428 15.71428,-15.71428 8.67876,0 15.71429,7.03552 15.71429,15.71428 z"
       inkscape:label="#path3777"
       transform="matrix(0.87339125,0,0,0.94794599,412.37465,330.69875)" />
    <text
       xml:space="preserve"
       style="font-size:21.83772659px;font-style:normal;font-weight:normal;line-height:125%;letter-spacing:0px;word-spacing:0px;fill:#000000;fill-opacity:1;stroke:none;font-family:Sans"
       x="853.0083"
       y="561.49408"
       id="text3895-2"
       sodipodi:linespacing="125%"
       transform="scale(0.95987041,1.0418073)"><tspan
         sodipodi:role="line"
         id="tspan3897-1"
         x="853.0083"
         y="561.49408"
         style="font-size:20.01791954px;font-style:normal;font-variant:normal;font-weight:normal;font-stretch:normal;text-align:start;line-height:125%;writing-mode:lr-tb;text-anchor:start;font-family:Sans;-inkscape-font-specification:Sans">HVRM3</tspan></text>
    <text
       xml:space="preserve"
       style="font-size:21.83772659px;font-style:normal;font-weight:normal;line-height:125%;letter-spacing:0px;word-spacing:0px;fill:#000000;fill-opacity:1;stroke:none;font-family:Sans"
       x="744.17206"
       y="625.3064"
       id="text3895-6"
       sodipodi:linespacing="125%"
       transform="scale(0.95987041,1.0418073)"><tspan
         sodipodi:role="line"
         id="tspan3897-8"
         x="744.17206"
         y="625.3064"
         style="font-size:20.01791954px;font-style:normal;font-variant:normal;font-weight:normal;font-stretch:normal;text-align:start;line-height:125%;writing-mode:lr-tb;text-anchor:start;font-family:Sans;-inkscape-font-specification:Sans">LWMM3</tspan></text>
    <text
       xml:space="preserve"
       style="font-size:21.83772659px;font-style:normal;font-weight:normal;line-height:125%;letter-spacing:0px;word-spacing:0px;fill:#000000;fill-opacity:1;stroke:none;font-family:Sans"
       x="704.59534"
       y="721.93634"
       id="text3895-5"
       sodipodi:linespacing="125%"
       transform="scale(0.95987041,1.0418073)"><tspan
         sodipodi:role="line"
         id="tspan3897-7"
         x="704.59534"
         y="721.93634"
         style="font-size:20.01791954px;font-style:normal;font-variant:normal;font-weight:normal;font-stretch:normal;text-align:start;line-height:125%;writing-mode:lr-tb;text-anchor:start;font-family:Sans;-inkscape-font-specification:Sans">WLMM3</tspan></text>
    <text
       xml:space="preserve"
       style="font-size:21.83772659px;font-style:normal;font-weight:normal;line-height:125%;letter-spacing:0px;word-spacing:0px;fill:#000000;fill-opacity:1;stroke:none;font-family:Sans"
       x="336.53076"
       y="805.80389"
       id="text3895-27"
       sodipodi:linespacing="125%"
       transform="scale(0.95987041,1.0418073)"><tspan
         sodipodi:role="line"
         id="tspan3897-9"
         x="336.53076"
         y="805.80389"
         style="font-size:20.01791954px;font-style:normal;font-variant:normal;font-weight:normal;font-stretch:normal;text-align:start;line-height:125%;writing-mode:lr-tb;text-anchor:start;font-family:Sans;-inkscape-font-specification:Sans">MAYM3</tspan></text>
    <text
       xml:space="preserve"
       style="font-size:21.83772659px;font-style:normal;font-weight:normal;line-height:125%;letter-spacing:0px;word-spacing:0px;fill:#000000;fill-opacity:1;stroke:none;font-family:Sans"
       x="514.62659"
       y="718.28992"
       id="text3895-54"
       sodipodi:linespacing="125%"
       transform="scale(0.95987041,1.0418073)"><tspan
         sodipodi:role="line"
         id="tspan3897-3"
         x="514.62659"
         y="718.28992"
         style="font-size:20.01791954px;font-style:normal;font-variant:normal;font-weight:normal;font-stretch:normal;text-align:start;line-height:125%;writing-mode:lr-tb;text-anchor:start;font-family:Sans;-inkscape-font-specification:Sans">LCNM3</tspan></text>
    <text
       xml:space="preserve"
       style="font-size:21.83772659px;font-style:normal;font-weight:normal;line-height:125%;letter-spacing:0px;word-spacing:0px;fill:#000000;fill-opacity:1;stroke:none;font-family:Sans"
       x="583.88586"
       y="625.30634"
       id="text3895-1"
       sodipodi:linespacing="125%"
       transform="scale(0.95987041,1.0418073)"><tspan
         sodipodi:role="line"
         id="tspan3897-2"
         x="583.88586"
         y="625.30634"
         style="font-size:20.01791954px;font-style:normal;font-variant:normal;font-weight:normal;font-stretch:normal;text-align:start;line-height:125%;writing-mode:lr-tb;text-anchor:start;font-family:Sans;-inkscape-font-specification:Sans">LOWM3</tspan></text>
    <text
       xml:space="preserve"
       style="font-size:21.83772659px;font-style:normal;font-weight:normal;line-height:125%;letter-spacing:0px;word-spacing:0px;fill:#000000;fill-opacity:1;stroke:none;font-family:Sans"
       x="21.895185"
       y="747.46124"
       id="text3895-3"
       sodipodi:linespacing="125%"
       transform="scale(0.95987041,1.0418073)"><tspan
         sodipodi:role="line"
         id="tspan3897-34"
         x="21.895185"
         y="747.46124"
         style="font-size:20.01791954px;font-style:normal;font-variant:normal;font-weight:normal;font-stretch:normal;text-align:start;line-height:125%;writing-mode:lr-tb;text-anchor:start;font-family:Sans;-inkscape-font-specification:Sans">FBGM3</tspan></text>
    <text
       xml:space="preserve"
       style="font-size:21.83772659px;font-style:normal;font-weight:normal;line-height:125%;letter-spacing:0px;word-spacing:0px;fill:#000000;fill-opacity:1;stroke:none;font-family:Sans"
       x="138.64684"
       y="658.12408"
       id="text3895-11"
       sodipodi:linespacing="125%"
       transform="scale(0.95987041,1.0418073)"><tspan
         sodipodi:role="line"
         id="tspan3897-38"
         x="138.64684"
         y="658.12408"
         style="font-size:20.01791954px;font-style:normal;font-variant:normal;font-weight:normal;font-stretch:normal;text-align:start;line-height:125%;writing-mode:lr-tb;text-anchor:start;font-family:Sans;-inkscape-font-specification:Sans">WGTM3</tspan></text>
    <text
       xml:space="preserve"
       style="font-size:21.83772659px;font-style:normal;font-weight:normal;line-height:125%;letter-spacing:0px;word-spacing:0px;fill:#000000;fill-opacity:1;stroke:none;font-family:Sans"
       x="285.08096"
       y="601.60468"
       id="text3895-7"
       sodipodi:linespacing="125%"
       transform="scale(0.95987041,1.0418073)"><tspan
         sodipodi:role="line"
         id="tspan3897-4"
         x="285.08096"
         y="601.60468"
         style="font-size:20.01791954px;font-style:normal;font-variant:normal;font-weight:normal;font-stretch:normal;text-align:start;line-height:125%;writing-mode:lr-tb;text-anchor:start;font-family:Sans;-inkscape-font-specification:Sans">DNSM3</tspan></text>
    <text
       xml:space="preserve"
       style="font-size:21.83772659px;font-style:normal;font-weight:normal;line-height:125%;letter-spacing:0px;word-spacing:0px;fill:#000000;fill-opacity:1;stroke:none;font-family:Sans"
       x="455.26129"
       y="545.08521"
       id="text3895-277"
       sodipodi:linespacing="125%"
       transform="scale(0.95987041,1.0418073)"><tspan
         sodipodi:role="line"
         id="tspan3897-93"
         x="455.26129"
         y="545.08521"
         style="font-size:20.01791954px;font-style:normal;font-variant:normal;font-weight:normal;font-stretch:normal;text-align:start;line-height:125%;writing-mode:lr-tb;text-anchor:start;font-family:Sans;-inkscape-font-specification:Sans">NSHN3</tspan></text>
    <text
       xml:space="preserve"
       style="font-size:21.83772659px;font-style:normal;font-weight:normal;line-height:125%;letter-spacing:0px;word-spacing:0px;fill:#000000;fill-opacity:1;stroke:none;font-family:Sans"
       x="267.27145"
       y="459.3945"
       id="text3895-19"
       sodipodi:linespacing="125%"
       transform="scale(0.95987041,1.0418073)"><tspan
         sodipodi:role="line"
         id="tspan3897-86"
         x="267.27145"
         y="459.3945"
         style="font-size:20.01791954px;font-style:normal;font-variant:normal;font-weight:normal;font-stretch:normal;text-align:start;line-height:125%;writing-mode:lr-tb;text-anchor:start;font-family:Sans;-inkscape-font-specification:Sans">SOHN3</tspan></text>
    <text
       xml:space="preserve"
       style="font-size:21.83772659px;font-style:normal;font-weight:normal;line-height:125%;letter-spacing:0px;word-spacing:0px;fill:#000000;fill-opacity:1;stroke:none;font-family:Sans"
       x="678.87024"
       y="515.91388"
       id="text3895-50"
       sodipodi:linespacing="125%"
       transform="scale(0.95987041,1.0418073)"><tspan
         sodipodi:role="line"
         id="tspan3897-28"
         x="678.87024"
         y="515.91388"
         style="font-size:20.01791954px;font-style:normal;font-variant:normal;font-weight:normal;font-stretch:normal;text-align:start;line-height:125%;writing-mode:lr-tb;text-anchor:start;font-family:Sans;-inkscape-font-specification:Sans">MTHM3</tspan></text>
    <path
       sodipodi:type="arc"
       style="opacity:0.97000002;fill:#008000;stroke:#008000;stroke-width:1.60000002;stroke-miterlimit:4;stroke-dasharray:none"
       id="SAXM3_dot"
       sodipodi:cx="258.57144"
       sodipodi:cy="262.36218"
       sodipodi:rx="15.714286"
       sodipodi:ry="15.714286"
       d="m 274.28573,262.36218 c 0,8.67876 -7.03553,15.71429 -15.71429,15.71429 -8.67876,0 -15.71428,-7.03553 -15.71428,-15.71429 0,-8.67876 7.03552,-15.71428 15.71428,-15.71428 8.67876,0 15.71429,7.03552 15.71429,15.71428 z"
       inkscape:label="#path3777"
       transform="matrix(0.87339125,0,0,0.94794599,226.23051,678.29458)" />
    <text
       xml:space="preserve"
       style="font-size:21.83772659px;font-style:normal;font-weight:normal;line-height:125%;letter-spacing:0px;word-spacing:0px;fill:#000000;fill-opacity:1;stroke:none;font-family:Sans"
       x="492.85919"
       y="906.0802"
       id="text3895-61"
       sodipodi:linespacing="125%"
       transform="scale(0.95987041,1.0418073)"><tspan
         sodipodi:role="line"
         id="tspan3897-89"
         x="492.85919"
         y="906.0802"
         style="font-size:20.01791954px;font-style:normal;font-variant:normal;font-weight:normal;font-stretch:normal;text-align:start;line-height:125%;writing-mode:lr-tb;text-anchor:start;font-family:Sans;-inkscape-font-specification:Sans">SAXM3</tspan></text>
    <rect
       style="opacity:0.97000002;fill:#cccccc;fill-opacity:1;stroke:#1a1a1a;stroke-width:2.12900329;stroke-miterlimit:4;stroke-dasharray:none"
       id="NSHN3_obs_box"
       width="53.119751"
       height="24.020248"
       x="503.05362"
       y="532.82611"
       inkscape:label="#NSHN3_obs_box" />
    <text
       id="NSHN3"
       x="530.18854"
       y="529.9101"
       style="font-size:16.3782959px;line-height:125%;fill:#000000;font-family:Arial"
       inkscape:label="#NSHN3_STG"
       sodipodi:linespacing="125%"
       transform="scale(0.95987041,1.0418073)">
      <tspan
         style="font-size:20.01791954px;font-style:normal;font-variant:normal;font-weight:normal;font-stretch:normal;text-align:start;line-height:125%;writing-mode:lr-tb;text-anchor:start;fill:#000000;font-family:Arial;-inkscape-font-specification:Arial"
         id="tspan6282-2-6-4-3-2-1">%LASTVALUE(NF1)%</tspan>
    </text>
    <rect
       style="opacity:0.97000002;fill:#cccccc;fill-opacity:1;stroke:#1a1a1a;stroke-width:2.12900329;stroke-miterlimit:4;stroke-dasharray:none"
       id="NSHN3_fcst_box"
       width="53.119751"
       height="24.020248"
       x="504.81815"
       y="563.9729"
       inkscape:label="#NSHN3_fcst_box" />
    <text
       id="NSHN3MER"
       x="530.86761"
       y="558.49194"
       style="font-size:16.3782959px;line-height:125%;fill:#000000;font-family:Arial"
       inkscape:label="#NSHN3MER_SSTG"
       sodipodi:linespacing="125%"
       transform="scale(0.95987041,1.0418073)">
      <tspan
         style="font-size:20.01791954px;font-style:normal;font-variant:normal;font-weight:normal;font-stretch:normal;text-align:start;line-height:125%;writing-mode:lr-tb;text-anchor:start;fill:#000000;font-family:Arial;-inkscape-font-specification:Arial"
         id="tspan6282-2-6-4-3-2-5-5">%LASTVALUE(NF1)%</tspan>
    </text>
    <rect
       style="opacity:0.97000002;fill:#cccccc;fill-opacity:1;stroke:#1a1a1a;stroke-width:2.12900329;stroke-miterlimit:4;stroke-dasharray:none"
       id="WGTM3_obs_box"
       width="53.119751"
       height="24.020248"
       x="71.882851"
       y="648.69141"
       inkscape:label="#WGTM3_obs_box" />
    <text
       id="WGTM3"
       x="80.991722"
       y="641.12567"
       style="font-size:16.3782959px;line-height:125%;fill:#000000;font-family:Arial"
       inkscape:label="#WGTM3_STG"
       sodipodi:linespacing="125%"
       transform="scale(0.95987041,1.0418073)">
      <tspan
         style="font-size:20.01791954px;font-style:normal;font-variant:normal;font-weight:normal;font-stretch:normal;text-align:start;line-height:125%;writing-mode:lr-tb;text-anchor:start;fill:#000000;font-family:Arial;-inkscape-font-specification:Arial"
         id="tspan6282-2-6-4-3-2-75">%LASTVALUE(NF1)%</tspan>
    </text>
    <rect
       style="opacity:0.97000002;fill:#cccccc;fill-opacity:1;stroke:#1a1a1a;stroke-width:2.12900329;stroke-miterlimit:4;stroke-dasharray:none"
       id="WGTM3_fcst_box"
       width="53.119751"
       height="24.020248"
       x="73.647377"
       y="679.8382"
       inkscape:label="#WGTM3_fcst_box" />
    <text
       id="WGTM3MER"
       x="79.691917"
       y="669.70764"
       style="font-size:16.3782959px;line-height:125%;fill:#000000;font-family:Arial"
       inkscape:label="#WGTM3MER_SSTG"
       sodipodi:linespacing="125%"
       transform="scale(0.95987041,1.0418073)">
      <tspan
         style="font-size:20.01791954px;font-style:normal;font-variant:normal;font-weight:normal;font-stretch:normal;text-align:start;line-height:125%;writing-mode:lr-tb;text-anchor:start;fill:#000000;font-family:Arial;-inkscape-font-specification:Arial"
         id="tspan6282-2-6-4-3-2-5-4">%LASTVALUE(NF1)%</tspan>
    </text>
    <rect
       style="opacity:0.97000002;fill:#cccccc;fill-opacity:1;stroke:#1a1a1a;stroke-width:2.12900329;stroke-miterlimit:4;stroke-dasharray:none"
       id="FBGM3_obs_box"
       width="53.119751"
       height="24.020248"
       x="92.776642"
       y="760.75781"
       inkscape:label="#FBGM3_obs_box" />
    <text
       id="FBGM3"
       x="102.75899"
       y="748.69489"
       style="font-size:16.3782959px;line-height:125%;fill:#000000;font-family:Arial"
       inkscape:label="#FBGM3_STG"
       sodipodi:linespacing="125%"
       transform="scale(0.95987041,1.0418073)">
      <tspan
         style="font-size:20.01791954px;font-style:normal;font-variant:normal;font-weight:normal;font-stretch:normal;text-align:start;line-height:125%;writing-mode:lr-tb;text-anchor:start;fill:#000000;font-family:Arial;-inkscape-font-specification:Arial"
         id="tspan6282-2-6-4-3-2-75-0">%LASTVALUE(NF1)%</tspan>
    </text>
    <rect
       style="opacity:0.97000002;fill:#cccccc;fill-opacity:1;stroke:#1a1a1a;stroke-width:2.12900329;stroke-miterlimit:4;stroke-dasharray:none"
       id="FBGM3_fcst_box"
       width="53.119751"
       height="24.020248"
       x="94.541168"
       y="791.9046"
       inkscape:label="#FBGM3_fcst_box" />
    <text
       id="FBGM3MER"
       x="101.45918"
       y="777.27686"
       style="font-size:16.3782959px;line-height:125%;fill:#000000;font-family:Arial"
       inkscape:label="#FBGM3MER_SSTG"
       sodipodi:linespacing="125%"
       transform="scale(0.95987041,1.0418073)">
      <tspan
         style="font-size:20.01791954px;font-style:normal;font-variant:normal;font-weight:normal;font-stretch:normal;text-align:start;line-height:125%;writing-mode:lr-tb;text-anchor:start;fill:#000000;font-family:Arial;-inkscape-font-specification:Arial"
         id="tspan6282-2-6-4-3-2-5-4-4">%LASTVALUE(NF1)%</tspan>
    </text>
    <rect
       style="opacity:0.97000002;fill:#cccccc;fill-opacity:1;stroke:#1a1a1a;stroke-width:2.12900329;stroke-miterlimit:4;stroke-dasharray:none"
       id="MAYM3_obs_box"
       width="53.119751"
       height="24.020248"
       x="261.82587"
       y="808.24359"
       inkscape:label="#MAYM3_obs_box" />
    <text
       id="MAYM3"
       x="278.87576"
       y="794.27502"
       style="font-size:16.3782959px;line-height:125%;fill:#000000;font-family:Arial"
       inkscape:label="#MAYM3_STG"
       sodipodi:linespacing="125%"
       transform="scale(0.95987041,1.0418073)">
      <tspan
         style="font-size:20.01791954px;font-style:normal;font-variant:normal;font-weight:normal;font-stretch:normal;text-align:start;line-height:125%;writing-mode:lr-tb;text-anchor:start;fill:#000000;font-family:Arial;-inkscape-font-specification:Arial"
         id="tspan6282-2-6-4-3-2-75-7">%LASTVALUE(NF1)%</tspan>
    </text>
    <rect
       style="opacity:0.97000002;fill:#cccccc;fill-opacity:1;stroke:#1a1a1a;stroke-width:2.12900329;stroke-miterlimit:4;stroke-dasharray:none"
       id="MAYM3_fcst_box"
       width="53.119751"
       height="24.020248"
       x="263.59039"
       y="839.39038"
       inkscape:label="#MAYM3_fcst_box" />
    <text
       id="MAYM3MER"
       x="277.57596"
       y="822.85699"
       style="font-size:16.3782959px;line-height:125%;fill:#000000;font-family:Arial"
       inkscape:label="#MAYM3MER_SSTG"
       sodipodi:linespacing="125%"
       transform="scale(0.95987041,1.0418073)">
      <tspan
         style="font-size:20.01791954px;font-style:normal;font-variant:normal;font-weight:normal;font-stretch:normal;text-align:start;line-height:125%;writing-mode:lr-tb;text-anchor:start;fill:#000000;font-family:Arial;-inkscape-font-specification:Arial"
         id="tspan6282-2-6-4-3-2-5-4-7">%LASTVALUE(NF1)%</tspan>
    </text>
    <rect
       style="opacity:0.97000002;fill:#cccccc;fill-opacity:1;stroke:#1a1a1a;stroke-width:2.12900329;stroke-miterlimit:4;stroke-dasharray:none"
       id="SAXM3_obs_box"
       width="53.119751"
       height="24.020248"
       x="550.53937"
       y="912.71228"
       inkscape:label="#SAXM3_obs_box" />
    <text
       id="SAXM3"
       x="579.65961"
       y="894.55145"
       style="font-size:16.3782959px;line-height:125%;fill:#000000;font-family:Arial"
       inkscape:label="#SAXM3_STG"
       sodipodi:linespacing="125%"
       transform="scale(0.95987041,1.0418073)">
      <tspan
         style="font-size:20.01791954px;font-style:normal;font-variant:normal;font-weight:normal;font-stretch:normal;text-align:start;line-height:125%;writing-mode:lr-tb;text-anchor:start;fill:#000000;font-family:Arial;-inkscape-font-specification:Arial"
         id="tspan6282-2-6-4-3-2-75-3">%LASTVALUE(NF1)%</tspan>
    </text>
    <rect
       style="opacity:0.97000002;fill:#cccccc;fill-opacity:1;stroke:#1a1a1a;stroke-width:2.12900329;stroke-miterlimit:4;stroke-dasharray:none"
       id="SAXM3_fcst_box"
       width="53.119751"
       height="24.020248"
       x="552.30389"
       y="943.85907"
       inkscape:label="#SAXM3_fcst_box" />
    <text
       id="SAXM3MER"
       x="578.3598"
       y="923.13342"
       style="font-size:16.3782959px;line-height:125%;fill:#000000;font-family:Arial"
       inkscape:label="#SAXM3MER_SSTG"
       sodipodi:linespacing="125%"
       transform="scale(0.95987041,1.0418073)">
      <tspan
         style="font-size:20.01791954px;font-style:normal;font-variant:normal;font-weight:normal;font-stretch:normal;text-align:start;line-height:125%;writing-mode:lr-tb;text-anchor:start;fill:#000000;font-family:Arial;-inkscape-font-specification:Arial"
         id="tspan6282-2-6-4-3-2-5-4-9">%LASTVALUE(NF1)%</tspan>
    </text>
    <rect
       style="opacity:0.97000002;fill:#cccccc;fill-opacity:1;stroke:#1a1a1a;stroke-width:2.12900329;stroke-miterlimit:4;stroke-dasharray:none"
       id="LCNM3_obs_box"
       width="53.119751"
       height="24.020248"
       x="430.87524"
       y="718.97034"
       inkscape:label="#LCNM3_obs_box" />
    <text
       id="LCNM3"
       x="454.99255"
       y="708.58435"
       style="font-size:16.3782959px;line-height:125%;fill:#000000;font-family:Arial"
       inkscape:label="#LCNM3_STG"
       sodipodi:linespacing="125%"
       transform="scale(0.95987041,1.0418073)">
      <tspan
         style="font-size:20.01791954px;font-style:normal;font-variant:normal;font-weight:normal;font-stretch:normal;text-align:start;line-height:125%;writing-mode:lr-tb;text-anchor:start;fill:#000000;font-family:Arial;-inkscape-font-specification:Arial"
         id="tspan6282-2-6-4-3-2-75-1">%LASTVALUE(NF1)%</tspan>
    </text>
    <rect
       style="opacity:0.97000002;fill:#cccccc;fill-opacity:1;stroke:#1a1a1a;stroke-width:2.12900329;stroke-miterlimit:4;stroke-dasharray:none"
       id="LCNM3_fcst_box"
       width="53.119751"
       height="24.020248"
       x="432.63977"
       y="750.11713"
       inkscape:label="#LCNM3_fcst_box" />
    <text
       id="LCNM3MER"
       x="453.69275"
       y="737.16632"
       style="font-size:16.3782959px;line-height:125%;fill:#000000;font-family:Arial"
       inkscape:label="#LCNM3MER_SSTG"
       sodipodi:linespacing="125%"
       transform="scale(0.95987041,1.0418073)">
      <tspan
         style="font-size:20.01791954px;font-style:normal;font-variant:normal;font-weight:normal;font-stretch:normal;text-align:start;line-height:125%;writing-mode:lr-tb;text-anchor:start;fill:#000000;font-family:Arial;-inkscape-font-specification:Arial"
         id="tspan6282-2-6-4-3-2-5-4-6">%LASTVALUE(NF1)%</tspan>
    </text>
    <rect
       style="opacity:0.97000002;fill:#cccccc;fill-opacity:1;stroke:#1a1a1a;stroke-width:2.12900329;stroke-miterlimit:4;stroke-dasharray:none"
       id="WLMM3_obs_box"
       width="53.119751"
       height="24.020248"
       x="755.67792"
       y="720.86975"
       inkscape:label="#WLMM3_obs_box" />
    <text
       id="WLMM3"
       x="793.37445"
       y="710.40747"
       style="font-size:16.3782959px;line-height:125%;fill:#000000;font-family:Arial"
       inkscape:label="#WLMM3_STG"
       sodipodi:linespacing="125%"
       transform="scale(0.95987041,1.0418073)">
      <tspan
         style="font-size:20.01791954px;font-style:normal;font-variant:normal;font-weight:normal;font-stretch:normal;text-align:start;line-height:125%;writing-mode:lr-tb;text-anchor:start;fill:#000000;font-family:Arial;-inkscape-font-specification:Arial"
         id="tspan6282-2-6-4-3-2-75-38">%LASTVALUE(NF1)%</tspan>
    </text>
    <rect
       style="opacity:0.97000002;fill:#cccccc;fill-opacity:1;stroke:#1a1a1a;stroke-width:2.12900329;stroke-miterlimit:4;stroke-dasharray:none"
       id="WLMM3_fcst_box"
       width="53.119751"
       height="24.020248"
       x="757.44244"
       y="752.01654"
       inkscape:label="#WLMM3_fcst_box" />
    <text
       id="WLMM3MER"
       x="792.07465"
       y="738.98944"
       style="font-size:16.3782959px;line-height:125%;fill:#000000;font-family:Arial"
       inkscape:label="#WLMM3MER_SSTG"
       sodipodi:linespacing="125%"
       transform="scale(0.95987041,1.0418073)">
      <tspan
         style="font-size:20.01791954px;font-style:normal;font-variant:normal;font-weight:normal;font-stretch:normal;text-align:start;line-height:125%;writing-mode:lr-tb;text-anchor:start;fill:#000000;font-family:Arial;-inkscape-font-specification:Arial"
         id="tspan6282-2-6-4-3-2-5-4-2">%LASTVALUE(NF1)%</tspan>
    </text>
    <rect
       style="opacity:0.97000002;fill:#cccccc;fill-opacity:1;stroke:#1a1a1a;stroke-width:2.12900329;stroke-miterlimit:4;stroke-dasharray:none"
       id="MTHM3_obs_box"
       width="53.119751"
       height="24.020248"
       x="721.48822"
       y="496.73691"
       inkscape:label="#MTHM3_obs_box" />
    <text
       id="MTHM3"
       x="757.75525"
       y="495.26907"
       style="font-size:16.3782959px;line-height:125%;fill:#000000;font-family:Arial"
       inkscape:label="#MTHM3_STG"
       sodipodi:linespacing="125%"
       transform="scale(0.95987041,1.0418073)">
      <tspan
         style="font-size:20.01791954px;font-style:normal;font-variant:normal;font-weight:normal;font-stretch:normal;text-align:start;line-height:125%;writing-mode:lr-tb;text-anchor:start;fill:#000000;font-family:Arial;-inkscape-font-specification:Arial"
         id="tspan6282-2-6-4-3-2-75-9">%LASTVALUE(NF1)%</tspan>
    </text>
    <rect
       style="opacity:0.97000002;fill:#cccccc;fill-opacity:1;stroke:#1a1a1a;stroke-width:2.12900329;stroke-miterlimit:4;stroke-dasharray:none"
       id="MTHM3_fcst_box"
       width="53.119751"
       height="24.020248"
       x="723.25275"
       y="527.88373"
       inkscape:label="#MTHM3_fcst_box" />
    <text
       id="MTHM3MER"
       x="756.45544"
       y="523.85101"
       style="font-size:16.3782959px;line-height:125%;fill:#000000;font-family:Arial"
       inkscape:label="#MTHM3MER_SSTG"
       sodipodi:linespacing="125%"
       transform="scale(0.95987041,1.0418073)">
      <tspan
         style="font-size:20.01791954px;font-style:normal;font-variant:normal;font-weight:normal;font-stretch:normal;text-align:start;line-height:125%;writing-mode:lr-tb;text-anchor:start;fill:#000000;font-family:Arial;-inkscape-font-specification:Arial"
         id="tspan6282-2-6-4-3-2-5-4-8">%LASTVALUE(NF1)%</tspan>
    </text>
    <rect
       style="opacity:0.97000002;fill:#cccccc;fill-opacity:1;stroke:#1a1a1a;stroke-width:2.12900329;stroke-miterlimit:4;stroke-dasharray:none"
       id="LWMM3_obs_box"
       width="53.119751"
       height="24.020248"
       x="797.46545"
       y="627.79767"
       inkscape:label="#LWMM3_obs_box" />
    <text
       id="LWMM3"
       x="836.909"
       y="621.07037"
       style="font-size:16.3782959px;line-height:125%;fill:#000000;font-family:Arial"
       inkscape:label="#LWMM3_STG"
       sodipodi:linespacing="125%"
       transform="scale(0.95987041,1.0418073)">
      <tspan
         style="font-size:20.01791954px;font-style:normal;font-variant:normal;font-weight:normal;font-stretch:normal;text-align:start;line-height:125%;writing-mode:lr-tb;text-anchor:start;fill:#000000;font-family:Arial;-inkscape-font-specification:Arial"
         id="tspan6282-2-6-4-3-2-75-12">%LASTVALUE(NF1)%</tspan>
    </text>
    <rect
       style="opacity:0.97000002;fill:#cccccc;fill-opacity:1;stroke:#1a1a1a;stroke-width:2.12900329;stroke-miterlimit:4;stroke-dasharray:none"
       id="LWMM3_fcst_box"
       width="53.119751"
       height="24.020248"
       x="799.22998"
       y="658.94446"
       inkscape:label="#LWMM3_fcst_box" />
    <text
       id="LWMM3MER"
       x="835.60919"
       y="649.65234"
       style="font-size:16.3782959px;line-height:125%;fill:#000000;font-family:Arial"
       inkscape:label="#LWMM3MER_SSTG"
       sodipodi:linespacing="125%"
       transform="scale(0.95987041,1.0418073)">
      <tspan
         style="font-size:20.01791954px;font-style:normal;font-variant:normal;font-weight:normal;font-stretch:normal;text-align:start;line-height:125%;writing-mode:lr-tb;text-anchor:start;fill:#000000;font-family:Arial;-inkscape-font-specification:Arial"
         id="tspan6282-2-6-4-3-2-5-4-64">%LASTVALUE(NF1)%</tspan>
    </text>
    <rect
       style="opacity:0.97000002;fill:#cccccc;fill-opacity:1;stroke:#1a1a1a;stroke-width:2.12900329;stroke-miterlimit:4;stroke-dasharray:none"
       id="HVRM3_obs_box"
       width="53.119751"
       height="24.020248"
       x="896.2359"
       y="551.82043"
       inkscape:label="#HVRM3_obs_box" />
    <text
       id="HVRM3"
       x="939.80872"
       y="548.14203"
       style="font-size:16.3782959px;line-height:125%;fill:#000000;font-family:Arial"
       inkscape:label="#HVRM3_STG"
       sodipodi:linespacing="125%"
       transform="scale(0.95987041,1.0418073)">
      <tspan
         style="font-size:20.01791954px;font-style:normal;font-variant:normal;font-weight:normal;font-stretch:normal;text-align:start;line-height:125%;writing-mode:lr-tb;text-anchor:start;fill:#000000;font-family:Arial;-inkscape-font-specification:Arial"
         id="tspan6282-2-6-4-3-2-75-18">%LASTVALUE(NF1)%</tspan>
    </text>
    <rect
       style="opacity:0.97000002;fill:#cccccc;fill-opacity:1;stroke:#1a1a1a;stroke-width:2.12900329;stroke-miterlimit:4;stroke-dasharray:none"
       id="HVRM3_fcst_box"
       width="53.119751"
       height="24.020248"
       x="898.00043"
       y="582.96722"
       inkscape:label="#HVRM3_fcst_box" />
    <text
       id="HVRM3MER"
       x="938.50891"
       y="576.724"
       style="font-size:16.3782959px;line-height:125%;fill:#000000;font-family:Arial"
       inkscape:label="#HVRM3MER_SSTG"
       sodipodi:linespacing="125%"
       transform="scale(0.95987041,1.0418073)">
      <tspan
         style="font-size:20.01791954px;font-style:normal;font-variant:normal;font-weight:normal;font-stretch:normal;text-align:start;line-height:125%;writing-mode:lr-tb;text-anchor:start;fill:#000000;font-family:Arial;-inkscape-font-specification:Arial"
         id="tspan6282-2-6-4-3-2-5-4-41">%LASTVALUE(NF1)%</tspan>
    </text>
    <rect
       style="opacity:0.97309415;fill:#cccccc;fill-opacity:1;stroke:#4d4d4d;stroke-width:3.31643701;stroke-miterlimit:4;stroke-dasharray:none"
       id="rect4363-1"
       width="369.72125"
       height="110.80786"
       x="669.88324"
       y="932.53912" />
    <text
       xml:space="preserve"
       style="font-size:40px;font-style:normal;font-weight:normal;line-height:125%;letter-spacing:0px;word-spacing:0px;fill:#000000;fill-opacity:1;stroke:none;font-family:Sans"
       x="726.43988"
       y="964.60425"
       id="Deviation_text"
       sodipodi:linespacing="125%"
       inkscape:label="#text3305"><tspan
         sodipodi:role="line"
         id="tspan3307"
         x="726.43988"
         y="964.60425"
         style="font-size:24.00000191px;font-style:normal;font-variant:normal;font-weight:normal;font-stretch:normal;text-align:start;line-height:125%;writing-mode:lr-tb;text-anchor:start;font-family:Sans;-inkscape-font-specification:Sans">Deviation from Forecast</tspan></text>
    <path
       transform="matrix(0.7195886,0,0,0.64948581,588.80877,579.7885)"
       sodipodi:type="arc"
       style="fill:#008000;fill-opacity:1;stroke:none"
       id="good_dot"
       sodipodi:cx="145.91983"
       sodipodi:cy="629.09808"
       sodipodi:rx="16.428059"
       sodipodi:ry="16.428061"
       d="m 162.34789,629.09808 a 16.428059,16.428061 0 1 1 -1.39421,-6.62302"
       sodipodi:start="0"
       sodipodi:end="5.8682257"
       sodipodi:open="true"
       inkscape:label="#path6199" />
    <text
       xml:space="preserve"
       style="font-size:18px;font-style:normal;font-weight:normal;line-height:125%;letter-spacing:0px;word-spacing:0px;fill:#000000;fill-opacity:1;stroke:none;font-family:Sans"
       x="712.40637"
       y="994.35028"
       id="text3412"
       sodipodi:linespacing="125%"><tspan
         sodipodi:role="line"
         id="tspan3414"
         x="712.40637"
         y="994.35028">&lt;0.5 ft</tspan></text>
    <text
       xml:space="preserve"
       style="font-size:18px;font-style:normal;font-weight:normal;line-height:125%;letter-spacing:0px;word-spacing:0px;fill:#000000;fill-opacity:1;stroke:none;font-family:Sans"
       x="804.99261"
       y="993.87946"
       id="text3416"
       sodipodi:linespacing="125%"><tspan
         sodipodi:role="line"
         id="tspan3418"
         x="804.99261"
         y="993.87946">0.5-1 ft</tspan></text>
    <path
       transform="matrix(0.7195886,0,0,0.64948581,684.13322,579.51577)"
       sodipodi:type="arc"
       style="fill:#ffff00;fill-opacity:1;stroke:none"
       id="0.5_dot"
       sodipodi:cx="145.91983"
       sodipodi:cy="629.09808"
       sodipodi:rx="16.428059"
       sodipodi:ry="16.428061"
       d="m 162.34789,629.09808 a 16.428059,16.428061 0 1 1 -1.39421,-6.62302"
       sodipodi:start="0"
       sodipodi:end="5.8682257"
       sodipodi:open="true"
       inkscape:label="#path6199" />
    <text
       xml:space="preserve"
       style="font-size:18px;font-style:normal;font-weight:normal;line-height:125%;letter-spacing:0px;word-spacing:0px;fill:#000000;fill-opacity:1;stroke:none;font-family:Sans"
       x="901.35938"
       y="994.59674"
       id="text3420"
       sodipodi:linespacing="125%"><tspan
         sodipodi:role="line"
         id="tspan3422"
         x="901.35938"
         y="994.59674">1-2 ft</tspan></text>
    <path
       transform="matrix(0.7195886,0,0,0.64948581,782.21779,579.51577)"
       sodipodi:type="arc"
       style="fill:#ff6600;fill-opacity:1;stroke:none"
       id="1.0_dot"
       sodipodi:cx="145.91983"
       sodipodi:cy="629.09808"
       sodipodi:rx="16.428059"
       sodipodi:ry="16.428061"
       d="m 162.34789,629.09808 a 16.428059,16.428061 0 1 1 -1.39421,-6.62302"
       sodipodi:start="0"
       sodipodi:end="5.8682257"
       sodipodi:open="true"
       inkscape:label="#path6199" />
    <path
       transform="matrix(0.7195886,0,0,0.64948581,862.68865,581.41521)"
       sodipodi:type="arc"
       style="fill:#ff0000;fill-opacity:1;stroke:none"
       id="2.0_dot"
       sodipodi:cx="145.91983"
       sodipodi:cy="629.09808"
       sodipodi:rx="16.428059"
       sodipodi:ry="16.428061"
       d="m 162.34789,629.09808 a 16.428059,16.428061 0 1 1 -1.39421,-6.62302"
       sodipodi:start="0"
       sodipodi:end="5.8682257"
       sodipodi:open="true"
       inkscape:label="#path6199" />
    <text
       xml:space="preserve"
       style="font-size:18px;font-style:normal;font-weight:normal;line-height:125%;letter-spacing:0px;word-spacing:0px;fill:#000000;fill-opacity:1;stroke:none;font-family:Sans"
       x="981.16376"
       y="995.77448"
       id="text3424"
       sodipodi:linespacing="125%"><tspan
         sodipodi:role="line"
         id="tspan3426"
         x="981.16376"
         y="995.77448">2-3 ft</tspan></text>
    <text
       xml:space="preserve"
       style="font-size:18px;font-style:normal;font-weight:normal;line-height:125%;letter-spacing:0px;word-spacing:0px;fill:#000000;fill-opacity:1;stroke:none;font-family:Sans"
       x="764.80292"
       y="1021.9915"
       id="text3428"
       sodipodi:linespacing="125%"><tspan
         sodipodi:role="line"
         id="tspan3430"
         x="764.80292"
         y="1021.9915">3-4 ft </tspan></text>
    <path
       transform="matrix(0.7195886,0,0,0.64948581,639.26364,608.39191)"
       sodipodi:type="arc"
       style="fill:#800000;fill-opacity:1;stroke:none"
       id="3.0_dot"
       sodipodi:cx="145.91983"
       sodipodi:cy="629.09808"
       sodipodi:rx="16.428059"
       sodipodi:ry="16.428061"
       d="m 162.34789,629.09808 a 16.428059,16.428061 0 1 1 -1.39421,-6.62302"
       sodipodi:start="0"
       sodipodi:end="5.8682257"
       sodipodi:open="true"
       inkscape:label="#path6199" />
    <path
       transform="matrix(0.7195886,0,0,0.64948581,730.40649,608.39191)"
       sodipodi:type="arc"
       style="fill:#8e35ef;fill-opacity:1;stroke:none"
       id="4.0_dot"
       sodipodi:cx="145.91983"
       sodipodi:cy="629.09808"
       sodipodi:rx="16.428059"
       sodipodi:ry="16.428061"
       d="m 162.34789,629.09808 a 16.428059,16.428061 0 1 1 -1.39421,-6.62302"
       sodipodi:start="0"
       sodipodi:end="5.8682257"
       sodipodi:open="true"
       inkscape:label="#path6199" />
    <text
       xml:space="preserve"
       style="font-size:18.00000191px;font-style:normal;font-weight:normal;line-height:125%;letter-spacing:0px;word-spacing:0px;fill:#000000;fill-opacity:1;stroke:none;font-family:Sans"
       x="851.7937"
       y="1021.9959"
       id="text3412-1"
       sodipodi:linespacing="125%"><tspan
         sodipodi:role="line"
         id="tspan3414-7"
         x="851.7937"
         y="1021.9959">&gt; 4.0 ft</tspan></text>
    <path
       transform="matrix(0.7195886,0,0,0.64948581,829.26362,608.39192)"
       sodipodi:type="arc"
       style="fill:#0000ff;fill-opacity:1;stroke:none"
       id="Ice_dot"
       sodipodi:cx="145.91983"
       sodipodi:cy="629.09808"
       sodipodi:rx="16.428059"
       sodipodi:ry="16.428061"
       d="m 162.34789,629.09808 a 16.428059,16.428061 0 1 1 -1.39421,-6.62302"
       sodipodi:start="0"
       sodipodi:end="5.8682257"
       sodipodi:open="true"
       inkscape:label="#path6199" />
    <text
       xml:space="preserve"
       style="font-size:18.00000191px;font-style:normal;font-weight:normal;line-height:125%;letter-spacing:0px;word-spacing:0px;fill:#000000;fill-opacity:1;stroke:none;font-family:Sans"
       x="954.60992"
       y="1022.5593"
       id="text3412-1-7"
       sodipodi:linespacing="125%"><tspan
         sodipodi:role="line"
         id="tspan3414-7-4"
         x="954.60992"
         y="1022.5593">Ice</tspan></text>
    <rect
       style="opacity:0.97000002;fill:#cccccc;fill-opacity:1;stroke:#4d4d4d;stroke-width:2.663867;stroke-miterlimit:4;stroke-dasharray:none"
       id="legendbox"
       width="240.39468"
       height="104.84991"
       x="17.662203"
       y="939.15546"
       inkscape:label="#rect4363" />
    <text
       xml:space="preserve"
       style="font-size:32px;font-style:normal;font-variant:normal;font-weight:normal;font-stretch:normal;text-align:start;line-height:125%;letter-spacing:0px;word-spacing:0px;writing-mode:lr-tb;text-anchor:start;fill:#000000;fill-opacity:1;stroke:none;font-family:Sans;-inkscape-font-specification:Sans"
       x="33.016571"
       y="982.84601"
       id="legend_text"
       sodipodi:linespacing="125%"><tspan
         sodipodi:role="line"
         id="tspan4359"
         x="33.016571"
         y="982.84601"
         style="font-size:24px">Top - obs value</tspan><tspan
         sodipodi:role="line"
         x="33.016571"
         y="1012.846"
         id="tspan4361"
         style="font-size:24px">Bottom - sim value</tspan></text>
    <rect
       style="opacity:0.97309415;fill:#e6e6e6;fill-opacity:1;stroke:#4d4d4d;stroke-width:1.15159476;stroke-miterlimit:4;stroke-dasharray:none"
       id="labelbox"
       width="584.36603"
       height="68.038589"
       x="241.55702"
       y="333.01114"
       inkscape:label="#rect4120" />
    <text
       xml:space="preserve"
       style="font-size:48px;font-style:normal;font-weight:normal;line-height:125%;letter-spacing:0px;word-spacing:0px;fill:#000000;fill-opacity:1;stroke:none;font-family:Sans"
       x="282.59085"
       y="387.8165"
       id="labeltext"
       sodipodi:linespacing="125%"
       inkscape:label="#text4122"
       inkscape:transform-center-x="-108.57143"
       inkscape:transform-center-y="277.14286"><tspan
         sodipodi:role="line"
         id="tspan4124"
         x="282.59085"
         y="387.8165">Lower Merrimack River</tspan></text>
    <rect
       style="opacity:0.97000002;fill:#cccccc;fill-opacity:1;stroke:#1a1a1a;stroke-width:2.12900329;stroke-miterlimit:4;stroke-dasharray:none"
       id="LOWM3_obs_box"
       width="53.119755"
       height="24.02025"
       x="479.9346"
       y="606.90387"
       inkscape:label="#LOWM3_obs_box" />
    <text
       id="LOWM3"
       x="506.10297"
       y="601.01508"
       style="font-size:16.3782959px;line-height:125%;fill:#000000;font-family:Arial"
       inkscape:label="#LOWM3_STG"
       sodipodi:linespacing="125%"
       transform="scale(0.95987041,1.0418073)">
      <tspan
         style="font-size:20.01791954px;font-style:normal;font-variant:normal;font-weight:normal;font-stretch:normal;text-align:start;line-height:125%;writing-mode:lr-tb;text-anchor:start;fill:#000000;font-family:Arial;-inkscape-font-specification:Arial"
         id="tspan6282-2-6-4-3-2-1-4">%LASTVALUE(NF1)%</tspan>
    </text>
    <rect
       style="opacity:0.97000002;fill:#cccccc;fill-opacity:1;stroke:#1a1a1a;stroke-width:2.12900329;stroke-miterlimit:4;stroke-dasharray:none"
       id="LOWM3_fcst_box"
       width="53.119755"
       height="24.02025"
       x="481.69913"
       y="638.05066"
       inkscape:label="#LOWM3_fcst_box" />
    <text
       id="LOWM3MER"
       x="506.78204"
       y="629.59692"
       style="font-size:16.3782959px;line-height:125%;fill:#000000;font-family:Arial"
       inkscape:label="#LOWM3MER_SSTG"
       sodipodi:linespacing="125%"
       transform="scale(0.95987041,1.0418073)">
      <tspan
         style="font-size:20.01791954px;font-style:normal;font-variant:normal;font-weight:normal;font-stretch:normal;text-align:start;line-height:125%;writing-mode:lr-tb;text-anchor:start;fill:#000000;font-family:Arial;-inkscape-font-specification:Arial"
         id="tspan6282-2-6-4-3-2-5-5-4">%LASTVALUE(NF1)%</tspan>
    </text>
  </g>
</svg>
