<?xml version="1.0" encoding="UTF-8" standalone="no"?>
<!-- Created with Inkscape (http://www.inkscape.org/) -->

<svg
   xmlns:dc="http://purl.org/dc/elements/1.1/"
   xmlns:cc="http://creativecommons.org/ns#"
   xmlns:rdf="http://www.w3.org/1999/02/22-rdf-syntax-ns#"
   xmlns:svg="http://www.w3.org/2000/svg"
   xmlns="http://www.w3.org/2000/svg"
   xmlns:sodipodi="http://sodipodi.sourceforge.net/DTD/sodipodi-0.dtd"
   xmlns:inkscape="http://www.inkscape.org/namespaces/inkscape"
   viewBox="0 0 744.8189 1052"
   width="100%"
   height="100%"
   id="svg3210"
   version="1.1"
   inkscape:version="0.48.2 r9819"
   sodipodi:docname="UpperConnecticut.svg">
  <defs
     id="defs3212" />
  <sodipodi:namedview
     id="base"
     pagecolor="#ffffff"
     bordercolor="#666666"
     borderopacity="1.0"
     inkscape:pageopacity="0.0"
     inkscape:pageshadow="2"
     inkscape:zoom="0.52647353"
     inkscape:cx="252.25224"
     inkscape:cy="401.80279"
     inkscape:document-units="px"
     inkscape:current-layer="layer1"
     showgrid="false"
     inkscape:window-width="1280"
     inkscape:window-height="744"
     inkscape:window-x="-4"
     inkscape:window-y="-4"
     inkscape:window-maximized="1" />
  <metadata
     id="metadata3215">
    <rdf:RDF>
      <cc:Work
         rdf:about="">
        <dc:format>image/svg+xml</dc:format>
        <dc:type
           rdf:resource="http://purl.org/dc/dcmitype/StillImage" />
      </cc:Work>
    </rdf:RDF>
  </metadata>
  <g
     inkscape:label="Layer 1"
     inkscape:groupmode="layer"
     id="layer1">
    <rect
       style="opacity:0.97309415;fill:#cccccc;fill-opacity:1;stroke:#4d4d4d;stroke-width:3.05733991;stroke-miterlimit:4;stroke-dasharray:none"
       id="rect4363-1-5"
       width="353.33044"
       height="98.53894"
       x="379.86801"
       y="944.21039" />
    <path
       style="fill:none;stroke:#000080;stroke-width:1.50000000000000000;stroke-linecap:butt;stroke-linejoin:miter;stroke-opacity:1;stroke-miterlimit:4;stroke-dasharray:none"
       d="m 548.93549,404.43581 c -2.53257,0.63314 -5.0379,1.38746 -7.59772,1.89943 -1.70949,0.3419 -3.95082,0 -5.6983,0 -3.79886,0 -7.59772,0 -11.39658,0 -1.26629,0 -2.53257,0 -3.79886,0 -0.63314,0 -1.89943,0.63314 -1.89943,0 0,-0.63314 2.53257,0 1.89943,0 -1.26629,0 -2.66626,0.5663 -3.79886,0 -5.06515,-2.53258 5.69829,-1.89943 -1.89943,-1.89943 -2.25587,0 -4.71157,0 -3.79887,0 1.26629,0 5.06515,0 3.79887,0 -5.06515,0 -10.1303,0 -15.19545,0 -2.53257,0 -5.06515,0 -7.59772,0 -0.63315,0 -1.26629,0 -1.89943,0 -0.63315,0 -1.89943,0.63314 -1.89943,0 0,-0.63315 2.53257,0 1.89943,0 -1.26629,0 -2.53258,0 -3.79886,0 -0.63315,0 -1.89944,0.63314 -1.89944,0 0,-2.69086 8.86401,5.38172 -1.89943,0 -0.5663,-0.28315 0.4477,-1.45173 0,-1.89943 -0.63466,-0.63467 -3.16419,0.63466 -3.79886,0 -0.63466,-0.63467 0.63467,-3.1642 0,-3.79886 -0.4477,-0.4477 -1.45173,0.4477 -1.89943,0 -0.8954,-0.8954 0.8954,-2.90347 0,-3.79887 -3.92999,-3.92999 0.15363,6.00555 -3.79886,-1.89943 -1.31,-2.61999 2.30032,-1.69899 -1.89943,-3.79886 -0.5663,-0.28315 -1.45173,0.4477 -1.89943,0 -0.63466,-0.63466 0.63466,-3.1642 0,-3.79886 -0.8954,-0.8954 -2.90346,0.8954 -3.79886,0 -0.4477,-0.4477 0.4477,-1.45173 0,-1.89943 -0.8954,-0.8954 -2.90346,0.8954 -3.79886,0 -0.4477,-0.4477 0,-1.26629 0,-1.89943 -0.63315,0 -1.33313,0.28315 -1.89944,0 -0.80087,-0.40044 -2.53257,-1.26629 -1.89943,-1.89943 0.63315,-0.63315 2.79484,1.89943 1.89943,1.89943 -1.41575,0 -2.45576,-1.45173 -3.79886,-1.89943 -1.13257,-0.37753 -9.55628,0 -11.39658,0 -0.63314,0 -1.45173,-0.4477 -1.89943,0 -0.94972,0.94971 0.94971,4.74858 0,5.69829 -0.0764,0.0764 -6.90018,0 -7.59772,0 -4.43201,0 -8.86401,0 -13.29602,0 -0.63314,0 -1.26629,0 -1.89943,0 -0.63314,0 -1.89943,0.63314 -1.89943,0 0,-0.63314 2.53257,0 1.89943,0 -3.16572,0 -6.33144,0 -9.49715,0 -1.26933,0 -2.52954,0 -3.79887,0 -0.63314,0 -1.89943,0.63314 -1.89943,0 0,-0.63314 1.26629,0 1.89943,0"
       id="Ammonoosuc_River"
       inkscape:connector-curvature="0"
       inkscape:label="#path3231" />
    <path
       style="fill:none;stroke:#000080;stroke-width:2;stroke-linecap:butt;stroke-linejoin:miter;stroke-opacity:1;stroke-miterlimit:4;stroke-dasharray:none"
       d="m 370.389,282.87224 c 0.54315,8.954 -7.25866,-2.2385 -9.49716,0 -0.4477,0.4477 0,1.26628 0,1.89943 0,3.79886 0,7.59772 0,11.39658 0,1.26629 0,2.53258 0,3.79886 0,0.63315 0.63315,1.89943 0,1.89943 -0.63314,0 0,-2.53257 0,-1.89943 0,1.26629 -0.40043,2.59756 0,3.79887 0.28315,0.84945 1.499,1.09856 1.89943,1.89943 0.28315,0.5663 -0.4477,1.45173 0,1.89943 0.4477,0.4477 1.45173,-0.4477 1.89943,0 0.4477,0.4477 0,1.26628 0,1.89943 0.63315,0 1.45173,-0.4477 1.89943,0 0.0611,0.0611 0,5.23763 0,5.69829 0,3.16572 0,6.33144 0,9.49715 0,0.63315 0.4477,1.45173 0,1.89943 -0.4477,0.4477 -1.45173,-0.4477 -1.89943,0 -0.4477,0.4477 0.28315,1.33313 0,1.89943 -0.40043,0.80088 -1.49899,1.09857 -1.89943,1.89944 -0.28315,0.5663 0,1.26628 0,1.89943 0,0.63314 0,1.26628 0,1.89943 0,4.432 0,8.86401 0,13.29601 0,0.63315 0.4477,1.45173 0,1.89943 -3.92999,3.92999 0.15363,-6.00554 -3.79886,1.89943 -0.51521,1.03042 0.51973,7.078 0,7.59773 -0.4477,0.4477 -1.45173,-0.4477 -1.89943,0 -0.8954,0.8954 0.8954,2.90346 0,3.79886 -0.4477,0.4477 -1.45173,-0.4477 -1.89943,0 -0.4477,0.4477 0.4477,1.45173 0,1.89943 -0.4477,0.4477 -1.45173,-0.4477 -1.89943,0 -0.4477,0.4477 0,1.26629 0,1.89943 0,2.53257 0,5.06515 0,7.59772 0,0.63315 0,1.26629 0,1.89943 0,0.63315 0.63314,1.89943 0,1.89943 -0.63314,0 0.63314,-1.89943 0,-1.89943 -2.78082,0 -1.93658,7.56057 -1.89943,7.59773 0.27933,0.27932 5.69829,-0.22347 5.69829,0 0,0.63314 -2.53257,0 -1.89943,0 1.26629,0 2.53257,0 3.79886,0 0.63314,0 1.89943,-0.63315 1.89943,0 0,0.63314 -2.53257,0 -1.89943,0 1.26629,0 2.53258,0 3.79886,0 0.63315,0 1.26629,0 1.89943,0 0.63315,0 1.45173,0.4477 1.89943,0 0.4477,-0.4477 -0.4477,-1.45173 0,-1.89943 0.4477,-0.4477 1.45173,0.4477 1.89944,0 0.4477,-0.4477 -0.44771,-1.45174 0,-1.89944 0.8954,-0.8954 2.90346,0.8954 3.79886,0 0.4477,-0.4477 -0.4477,-1.45173 0,-1.89943 0.0611,-0.0611 5.23763,0 5.69829,0 7.90377,0 4.72566,0 11.39658,0 5.06515,0 10.1303,0 15.19545,0 0.63314,0 1.26629,0 1.89943,0 0.63314,0 1.45173,-0.4477 1.89943,0 0.4477,0.4477 0,1.26629 0,1.89943 0,0.63315 0,1.26629 0,1.89944"
       id="Passumpsic_River"
       inkscape:connector-curvature="0"
       inkscape:label="#path3233" />
    <path
       style="fill:none;stroke:#000080;stroke-width:2;stroke-linecap:butt;stroke-linejoin:miter;stroke-opacity:1;stroke-miterlimit:4;stroke-dasharray:none"
       d="m 290.6129,419.63125 c 1.89944,2.53257 3.79887,5.06515 5.6983,7.59772 0.63314,0 1.45173,-0.4477 1.89943,0 0.4477,0.4477 -0.4477,1.45173 0,1.89943 0.4477,0.4477 1.45173,-0.4477 1.89943,0 0.62458,0.62459 -0.62459,3.17428 0,3.79887 0.4477,0.4477 1.26629,0 1.89943,0 0,0.63314 -0.4477,1.45173 0,1.89943 0.8954,0.8954 3.79886,-1.26629 3.79886,0 0,0.63314 -2.53257,0 -1.89943,0 1.26629,0 2.53257,0 3.79886,0 0.63314,0 1.89943,-0.63315 1.89943,0 0,0.63314 -1.89943,-0.63315 -1.89943,0 0,3.95248 2.6637,0.76427 3.79886,1.89943 0.94972,0.94971 -0.94971,4.74857 0,5.69829 0.8954,0.8954 2.90346,-0.8954 3.79886,0 0.4477,0.4477 -0.4477,1.45173 0,1.89943 0.4477,0.4477 1.26629,0 1.89944,0 0.63314,0 1.26628,0 1.89943,0 0.63314,0 2.53257,0 1.89943,0 -1.26629,0 -5.06515,0 -3.79886,0 3.16571,0 6.33143,0 9.49715,0 1.73576,0 6.00387,0 3.79886,0 -1.26629,0 -5.06515,0 -3.79886,0 1.89943,0 3.89633,-0.60065 5.69829,0 0.60065,0.20022 -0.4477,1.45173 0,1.89943 0.4477,0.4477 1.33313,-0.28315 1.89943,0 0.80087,0.40044 1.09856,1.499 1.89943,1.89943 0.5663,0.28315 1.45173,-0.4477 1.89943,0 0.94972,0.94972 -0.94971,4.74858 0,5.69829 0.4477,0.4477 1.45173,-0.4477 1.89943,0 0.4477,0.4477 -0.4477,1.45173 0,1.89943 0.4477,0.4477 1.45173,-0.4477 1.89943,0 0.4477,0.4477 -0.4477,1.45173 0,1.89944 0.4477,0.4477 1.45174,-0.44771 1.89944,0 0.4477,0.4477 -0.4477,1.45173 0,1.89943 0.4477,0.4477 1.89943,-0.63315 1.89943,0 0,0.63314 -2.53258,0 -1.89943,0 2.53257,0 5.06514,0 7.59772,0"
       id="Wells_River"
       inkscape:connector-curvature="0"
       inkscape:label="#path3235" />
    <path
       style="fill:none;stroke:#000080;stroke-width:2;stroke-linecap:butt;stroke-linejoin:miter;stroke-opacity:1;stroke-miterlimit:4;stroke-dasharray:none"
       d="m 275.41746,544.99368 c 1.16272,0.29913 -0.69602,11.20797 0,13.29601 0.4477,1.3431 1.45173,2.45577 1.89943,3.79887 0.37725,1.13175 -0.37725,2.66711 0,3.79886 0.4477,1.3431 1.45173,2.45576 1.89943,3.79886 0.20022,0.60065 -0.4477,1.45173 0,1.89943 0.4477,0.4477 1.45173,-0.4477 1.89943,0 0,5.06515 -0.63314,-0.63314 1.89943,1.89943 0.0764,0.0764 0,6.90018 0,7.59772 0,5.06515 0,10.1303 0,15.19545 0,0.99325 -0.24972,7.09828 0,7.59772 0.40044,0.80087 1.499,1.09856 1.89943,1.89943 0.28315,0.5663 0,1.26629 0,1.89943 0,0.63315 0,1.26629 0,1.89943 0,3.79887 0,7.59773 0,11.39659 0,3.16572 0,6.33143 0,9.49715 0,0.63315 -0.4477,1.45173 0,1.89943 0.62521,0.62521 3.17366,-0.6252 3.79886,0 0.4477,0.4477 0,1.26629 0,1.89943 0,0.63315 0,1.26629 0,1.89943"
       id="path3237"
       inkscape:connector-curvature="0" />
    <path
       style="fill:none;stroke:#000080;stroke-width:2;stroke-linecap:butt;stroke-linejoin:miter;stroke-opacity:1;stroke-miterlimit:4;stroke-dasharray:none"
       d="m 512.8463,144.21379 c 0,3.79886 0,7.59773 0,11.39659 0,0.63314 0.28315,1.33313 0,1.89943 -0.40043,0.80087 -1.49899,1.09856 -1.89943,1.89943 -0.28315,0.5663 0.28315,1.33313 0,1.89943 -0.40043,0.80087 -1.499,1.09856 -1.89943,1.89943 -0.37655,0.75311 0.38831,5.30998 0,5.69829 -0.94972,0.94972 -4.74858,-0.94971 -5.69829,0 -0.4477,0.4477 0.4477,1.45173 0,1.89943 -0.4477,0.4477 -1.33313,-0.28315 -1.89943,0 -1.60174,0.80087 -2.19712,2.99799 -3.79886,3.79886 -1.13261,0.56631 -2.90347,-0.8954 -3.79887,0 -0.4477,0.4477 0,1.26629 0,1.89944 0,3.16571 0,6.33143 0,9.49715 0,0.63314 0.4477,1.45173 0,1.89943 -0.4477,0.4477 -1.45173,-0.4477 -1.89943,0 -0.4477,0.4477 0.4477,1.45173 0,1.89943 -0.4477,0.4477 -1.45173,-0.4477 -1.89943,0 -0.4477,0.4477 0.4477,1.45173 0,1.89943 -0.4477,0.4477 -1.45173,-0.4477 -1.89943,0 -0.4477,0.4477 0.4477,1.45173 0,1.89943 -0.4477,0.4477 -1.45173,-0.4477 -1.89943,0 -0.4477,0.4477 0,1.26629 0,1.89943 0,0.63315 0,1.26629 0,1.89943 0,3.79887 0,7.59773 0,11.39659 0,0.63314 0,1.26629 0,1.89943 0,0.63314 -0.28315,1.33313 0,1.89943 3.95249,7.90498 -0.13113,-2.03056 3.79886,1.89943 0.8954,0.8954 -0.8954,2.90346 0,3.79886 0.8954,0.8954 2.90346,-0.8954 3.79886,0 0.4477,0.4477 -0.4477,1.45173 0,1.89943 0.4477,0.4477 1.45173,-0.4477 1.89943,0 0.4477,0.4477 -0.4477,1.45173 0,1.89943 0.4477,0.4477 1.45174,-0.4477 1.89944,0 0.4477,0.4477 -0.28316,1.33313 0,1.89943 0.40043,0.80087 1.40275,1.15442 1.89943,1.89943 6.39703,9.59556 0.0147,0.044 1.89943,5.6983 4.58612,13.75836 -0.54762,-2.99466 3.79886,5.69829 0.28315,0.5663 0,1.26629 0,1.89943 0,0.63314 0,1.26629 0,1.89943 0,3.16572 0,6.33144 0,9.49715 0,0.63315 -0.28315,1.33313 0,1.89944 0.40043,0.80087 1.49899,1.09856 1.89943,1.89943 0.28252,0.56503 0,10.59756 0,11.39658 0,2.53257 0,5.06515 0,7.59772 0,0.63315 0,1.26629 0,1.89943 0,0.63315 0.63314,1.89943 0,1.89943 -0.63314,0 0,-2.53257 0,-1.89943 0,1.26629 0,2.53258 0,3.79887 0,0.63314 0.4477,1.45173 0,1.89943 -0.4477,0.4477 -1.33313,-0.28315 -1.89943,0 -4.19975,2.09987 -0.58944,1.17886 -1.89943,3.79886 -0.40044,0.80087 -1.499,1.09856 -1.89943,1.89943 -0.28315,0.5663 0.4477,1.45173 0,1.89943 -0.4477,0.4477 -1.45173,-0.4477 -1.89943,0 -0.4477,0.4477 0,1.26629 0,1.89943 0,0.63314 0,1.26629 0,1.89943 0,3.79886 0,7.59772 0,11.39659 0,0.63314 0.4477,1.45173 0,1.89943 -0.4477,0.4477 -1.45173,-0.4477 -1.89943,0 -0.4477,0.4477 0.4477,1.45173 0,1.89943 -0.4477,0.4477 -1.45174,-0.4477 -1.89944,0 -0.4477,0.4477 0.4477,1.45173 0,1.89943 -0.45706,0.45706 -7.14066,-0.45706 -7.59772,0 -0.4477,0.4477 0.4477,1.45173 0,1.89943 -0.4477,0.4477 -1.33313,-0.28315 -1.89943,0 -0.50432,0.25216 -5.44613,5.19397 -5.69829,5.69829 -0.28315,0.5663 0.4477,1.45173 0,1.89943 -0.4477,0.4477 -1.45173,-0.4477 -1.89943,0 -0.4477,0.4477 0.28315,1.33313 0,1.89943 -0.40044,0.80087 -1.499,1.09856 -1.89943,1.89943 -0.37656,0.75311 0.38831,5.30998 0,5.69829 -0.4477,0.4477 -1.33313,-0.28315 -1.89943,0 -7.90498,3.95249 2.03056,-0.13112 -1.89943,3.79887 -0.4477,0.4477 -1.33313,-0.28315 -1.89944,0 -6.29961,6.29961 1.79081,-0.8954 -3.79886,1.89943 -0.80087,0.40043 -1.09856,1.49899 -1.89943,1.89943 -0.5663,0.28315 -1.33313,-0.28315 -1.89943,0 -0.80087,0.40043 -1.09856,1.49899 -1.89943,1.89943 -0.5663,0.28315 -1.26629,0 -1.89943,0 -0.63314,0.63314 -1.09856,1.49899 -1.89943,1.89943 -0.5663,0.28315 -1.45173,-0.4477 -1.89943,0 -0.4477,0.4477 0.4477,1.45173 0,1.89943 -0.0611,0.0611 -5.23763,0 -5.69829,0 -0.63315,0 -1.89943,0.63314 -1.89943,0 0,-0.63314 1.89943,-0.63314 1.89943,0 0,0.61246 -3.27117,2.74347 -3.79886,3.79886 -0.28316,0.5663 0.4477,1.45173 0,1.89943 -0.4477,0.4477 -1.26629,0 -1.89944,0 -0.63314,0 -1.89943,0.63315 -1.89943,0 0,-0.63314 1.89943,-0.63314 1.89943,0 0,0.8954 -1.49899,1.09856 -1.89943,1.89943 -0.28315,0.5663 0.4477,1.45173 0,1.89943 -0.4477,0.4477 -1.45173,-0.4477 -1.89943,0 -0.94971,0.94972 0.94972,4.74858 0,5.6983 -0.4477,0.4477 -1.45173,-0.4477 -1.89943,0 -0.4477,0.4477 0.4477,1.45173 0,1.89943 -0.4477,0.4477 -1.45173,-0.4477 -1.89943,0 -0.4477,0.4477 0.4477,1.45173 0,1.89943 -0.4477,0.4477 -1.45173,-0.4477 -1.89943,0 -0.4477,0.4477 0.4477,1.45173 0,1.89943 -0.4477,0.4477 -1.45173,-0.4477 -1.89943,0 -0.4477,0.4477 0.4477,1.45173 0,1.89943 -0.4477,0.4477 -1.45173,-0.4477 -1.89943,0 -0.4477,0.4477 0.4477,1.45173 0,1.89943 -0.4477,0.4477 -1.45173,-0.4477 -1.89943,0 -0.4477,0.4477 0.4477,1.45173 0,1.89943 -0.4477,0.4477 -1.45173,-0.4477 -1.89943,0 -0.4477,0.4477 0.4477,1.45173 0,1.89943 -0.4477,0.4477 -1.45173,-0.4477 -1.89943,0 -0.4477,0.4477 0.4477,1.45173 0,1.89943 -0.62459,0.62459 -3.17428,-0.62458 -3.79886,0 -0.8954,0.8954 0.5663,2.66626 0,3.79886 -0.40044,0.80087 -1.499,1.09856 -1.89943,1.89943 -0.28316,0.5663 0.4477,1.45173 0,1.89943 -0.44771,0.4477 -1.26629,0 -1.89944,0 -3.79886,0 -7.59772,0 -11.39658,0 -1.26933,0 -2.52954,0 -3.79886,0 -0.63315,0 -1.89943,0.63315 -1.89943,0 0,-0.63314 2.53257,0 1.89943,0 -1.26629,0 -2.53258,0 -3.79886,0 -0.63315,0 -1.89943,0.63315 -1.89943,0 0,-0.63314 2.53257,0 1.89943,0 -1.89943,0 -3.79886,0 -5.6983,0 -0.63314,0 -1.26628,0 -1.89943,0 -0.63314,0 -1.89943,0.63315 -1.89943,0 0,-0.63314 2.53258,0 1.89943,0 -1.89943,0 -3.79886,0 -5.69829,0 -3.16572,0 -6.33143,0 -9.49715,0 -0.63315,0 -1.45173,-0.4477 -1.89943,0 -0.4477,0.4477 0.4477,1.45174 0,1.89944 -0.002,0.002 -5.68969,-0.003 -5.69829,0 -0.84946,0.28315 -1.09857,1.49899 -1.89944,1.89943 -0.7531,0.37655 -5.30998,-0.38832 -5.69829,0 -0.4477,0.4477 0.4477,1.45173 0,1.89943 -0.4477,0.4477 -1.33313,-0.28315 -1.89943,0 -0.80087,0.40043 -1.26629,1.26628 -1.89943,1.89943 -0.63314,0.63314 -1.49899,1.09856 -1.89943,1.89943 0,5.06515 0.63314,-0.63315 -1.89943,1.89943 -0.4477,0.4477 0.4477,1.45173 0,1.89943 -0.4477,0.4477 -1.45173,-0.4477 -1.89943,0 -0.4477,0.4477 0.4477,1.45173 0,1.89943 -0.4477,0.4477 -1.45173,-0.4477 -1.89943,0 -0.0861,0.0861 0,8.60158 0,9.49715 0,11.36244 0,37.55742 0,55.0835 0,0.69754 -0.0764,7.52128 0,7.59772 0.94971,0.94971 4.74857,-0.94972 5.69829,0 0.0764,0.0764 0,6.90018 0,7.59772 0,0.63315 0.4477,1.45173 0,1.89943 -0.4477,0.4477 -1.45173,-0.4477 -1.89943,0 -0.8954,0.8954 0.8954,2.90346 0,3.79886 -0.4477,0.4477 -1.45173,-0.4477 -1.89943,0 -0.4477,0.4477 0,1.26629 0,1.89943 0,0.63315 -0.4477,1.45174 0,1.89944 0.4477,0.4477 1.89943,-0.63315 1.89943,0 0,0.63314 -1.89943,-0.63315 -1.89943,0 0,0.8954 1.49899,1.09856 1.89943,1.89943 0.28315,0.5663 0,1.26628 0,1.89943 0,0.63314 0,1.26628 0,1.89943 0,5.06515 0.63314,-0.63315 -1.89943,1.89943 -0.4477,0.4477 0,1.26629 0,1.89943 0,0.63314 0,1.26629 0,1.89943 0,0.69754 0.0764,7.52129 0,7.59772 -0.4477,0.4477 -1.45173,-0.4477 -1.89943,0 -0.62521,0.62521 0.6252,3.17366 0,3.79886 -0.4477,0.4477 -1.45173,-0.4477 -1.89943,0 -0.62459,0.62459 0.62458,3.17428 0,3.79887 -0.4477,0.4477 -1.45173,-0.4477 -1.89943,0 -0.8954,0.8954 0.8954,2.90346 0,3.79886 -0.4477,0.4477 -1.45173,-0.4477 -1.89943,0 -0.94972,0.94971 0.94971,4.74857 0,5.69829 -0.8954,0.8954 -2.90347,-0.8954 -3.79887,0 -0.8954,0.8954 0.8954,2.90346 0,3.79886 -0.4477,0.4477 -1.45173,-0.4477 -1.89943,0 -0.8954,0.8954 0.8954,2.90346 0,3.79886 -0.4477,0.4477 -1.45173,-0.4477 -1.89943,0 -0.4477,0.4477 0.4477,1.45173 0,1.89943 -1.29033,1.29034 -3.77751,-1.94213 -5.69829,1.89943 -0.37655,0.75311 0.38831,5.30998 0,5.6983 -0.4477,0.4477 -1.45173,-0.4477 -1.89943,0 -0.62459,0.62458 0.62459,3.17427 0,3.79886 -0.4477,0.4477 -1.45173,-0.4477 -1.89943,0 -0.4477,0.4477 0,1.26628 0,1.89943 0,5.79151 1.92512,0.0257 3.79886,1.89943 0.4477,0.4477 0,1.26629 0,1.89943 0,1.52911 0.39739,6.40554 0,7.59772 -0.4477,1.3431 -1.45173,2.45576 -1.89943,3.79886 -0.40044,1.20131 0.8954,2.90347 0,3.79887 -0.4477,0.4477 -1.45173,-0.4477 -1.89943,0 -0.45706,0.45706 0.45706,7.14066 0,7.59772 -0.4477,0.4477 -1.45173,-0.4477 -1.89943,0 -0.4477,0.4477 0.4477,1.45173 0,1.89943 -0.4477,0.4477 -1.45173,-0.4477 -1.89943,0 -0.94972,0.94971 0.94971,4.74858 0,5.69829 -0.4477,0.4477 -1.45173,-0.4477 -1.89943,0 -0.8954,0.8954 0.8954,2.90346 0,3.79886 -0.4477,0.4477 -1.45173,-0.4477 -1.89943,0 -0.4477,0.4477 0.4477,1.45173 0,1.89943 -0.4477,0.4477 -1.45173,-0.4477 -1.89943,0 -0.44771,0.4477 0.4477,1.45173 0,1.89943 -3.92999,3.92999 0.15362,-6.00554 -3.79887,1.89944 -0.28315,0.5663 0.4477,1.45173 0,1.89943 -0.4477,0.4477 -1.45173,0.4477 -1.89943,0 -0.4477,-0.4477 -0.63314,-1.89943 0,-1.89943 0.63315,0 0.4477,1.45173 0,1.89943 -0.4477,0.4477 -1.45173,-0.4477 -1.89943,0 -0.94971,0.94971 0.94972,4.74857 0,5.69829 -0.4477,0.4477 -1.45173,-0.4477 -1.89943,0 -0.8954,0.8954 0.8954,2.90346 0,3.79886 -0.4477,0.4477 -1.45173,-0.4477 -1.89943,0 -0.8954,0.8954 0.8954,2.90346 0,3.79886 -0.8954,0.8954 -2.90346,-0.8954 -3.79886,0 -0.38831,0.38831 0.37655,4.94518 0,5.69829 -0.40044,0.80087 -1.499,1.09856 -1.89943,1.89943 -0.656,1.312 0.66674,8.83042 0,9.49716 -0.94972,0.94971 -4.74858,-0.94972 -5.69829,0 -0.4477,0.4477 0.28315,1.33313 0,1.89943 -0.40044,0.80087 -1.499,1.09856 -1.89943,1.89943 -0.28315,0.5663 0.4477,1.45173 0,1.89943 -0.4477,0.4477 -1.89944,0.63314 -1.89944,0 0,-0.63314 1.89944,-0.63314 1.89944,0 0,0.8954 -1.499,1.09856 -1.89944,1.89943 -0.28315,0.5663 0.4477,1.45173 0,1.89943 -0.4477,0.4477 -1.45173,-0.4477 -1.89943,0 -0.4477,0.4477 0,1.26629 0,1.89943 0,0.63315 0,1.26629 0,1.89943 0,1.32113 0.34345,8.81026 0,9.49716 -1.92078,3.84156 -4.40796,0.60909 -5.69829,1.89943 -0.4477,0.4477 0.28315,1.33313 0,1.89943 -0.40043,0.80087 -1.49899,1.09856 -1.89943,1.89943 -0.34345,0.6869 0,8.17602 0,9.49715 0,0.63315 0.4477,1.45173 0,1.89943 -0.0611,0.0611 -5.23763,0 -5.69829,0 -0.63314,0 -1.26629,0 -1.89943,0 -0.63315,0 -1.45173,-0.4477 -1.89943,0 -0.4477,0.4477 0.4477,1.45173 0,1.89943 -0.4477,0.4477 -1.45173,-0.4477 -1.89943,0 -0.38832,0.38832 0.37655,4.94519 0,5.6983 -0.40044,0.80087 -1.499,1.09856 -1.89943,1.89943 -0.28315,0.5663 0,1.26628 0,1.89943 0,0.63314 0,1.26629 0,1.89943 0,3.16572 0,6.33143 0,9.49715 0,0.46067 0.0611,5.63721 0,5.69829 -0.8954,0.8954 -2.90347,-0.8954 -3.79887,0 -0.4477,0.4477 0.4477,1.45174 0,1.89944 -0.4477,0.4477 -1.45173,-0.4477 -1.89943,0 -0.4477,0.4477 0.4477,1.45173 0,1.89943 -0.4477,0.4477 -1.45173,-0.4477 -1.89943,0 -0.4477,0.4477 0.4477,1.45173 0,1.89943 -0.4477,0.4477 -1.45173,-0.4477 -1.89943,0 -0.4477,0.4477 0.4477,1.45173 0,1.89943 -0.4477,0.4477 -1.45173,-0.4477 -1.89943,0 -0.4477,0.4477 0.4477,1.45173 0,1.89943 -0.4477,0.4477 -1.45173,-0.4477 -1.89943,0 -0.64042,0.64042 0.64042,3.15844 0,3.79886 -0.4477,0.4477 -1.45173,-0.4477 -1.89943,0 -0.8954,0.8954 0.8954,2.90346 0,3.79886 -2.53257,2.53258 -1.89943,-3.16572 -1.89943,1.89943 0,0.63315 0,1.26629 0,1.89943 0,0.63315 0.28315,1.33313 0,1.89943 -0.40044,0.80087 -1.499,1.09856 -1.89943,1.89943 -0.24555,0.4911 0,10.05027 0,11.39659 0,0.63314 0,1.26629 0,1.89943 0,0.63314 0.4477,1.45173 0,1.89943 -0.4477,0.4477 -1.45173,-0.4477 -1.89943,0 -0.8954,0.8954 0.8954,2.90346 0,3.79886 -0.4477,0.4477 -1.45173,-0.4477 -1.89943,0 -0.38832,0.38831 0.37655,4.94518 0,5.69829 -0.40044,0.80087 -1.499,1.09856 -1.89943,1.89943 -0.28315,0.56631 0.4477,1.45174 0,1.89944 -0.4477,0.4477 -1.45173,-0.4477 -1.89943,0 -0.8954,0.8954 0.5663,2.66626 0,3.79886 -3.95249,7.90497 0.13112,-2.03056 -3.79887,1.89943 -0.4477,0.4477 0.4477,1.45173 0,1.89943 -0.4477,0.4477 -1.45173,-0.4477 -1.89943,0 -0.0764,0.0764 0,6.90018 0,7.59772 0,8.86401 0,17.72802 0,26.59203 0,0.63315 0,1.26629 0,1.89943 0,0.63315 -0.4477,1.45173 0,1.89943 0.4477,0.4477 1.45173,-0.4477 1.89943,0 0.45707,0.45706 -0.45706,7.14066 0,7.59773 0.4477,0.4477 1.45173,-0.4477 1.89943,0 0.66639,0.66638 -0.66638,3.13247 0,3.79886 0.4477,0.4477 1.45174,-0.4477 1.89944,0 0.4477,0.4477 -0.4477,1.45173 0,1.89943 0.27932,0.27933 5.69829,-0.22346 5.69829,0 0,0.63314 -1.89943,-0.63315 -1.89943,0 0,0.8954 1.49899,1.09856 1.89943,1.89943 0.28903,0.57806 0,4.84287 0,5.69829 0,0.63314 0.63314,1.89943 0,1.89943 -0.63315,0 0,-2.53257 0,-1.89943 0,3.79886 0,7.59772 0,11.39659 0,0.46066 0.0611,5.6372 0,5.69829 -0.8954,0.8954 -2.90346,-0.8954 -3.79886,0 -0.4477,0.4477 0.4477,1.45173 0,1.89943 -0.4477,0.4477 -1.45173,-0.4477 -1.89943,0 -0.8954,0.8954 0.8954,2.90346 0,3.79886 -0.4477,0.4477 -1.45174,-0.4477 -1.89944,0 -0.4477,0.4477 0.4477,1.45173 0,1.89943 -0.4477,0.4477 -1.45173,-0.4477 -1.89943,0 -0.8954,0.8954 0.8954,2.90346 0,3.79886 -0.4477,0.4477 -1.45173,-0.4477 -1.89943,0 -0.4477,0.4477 0,1.26629 0,1.89943 0,0.63315 0,1.26629 0,1.89943 0,4.43201 0,8.86401 0,13.29602 0,0.63314 0.4477,1.45173 0,1.89943 -0.4477,0.4477 -1.45173,-0.4477 -1.89943,0 -0.4477,0.4477 0,1.26629 0,1.89943 0,0.63314 0,1.26629 0,1.89943 0,0.46066 0.0611,5.63721 0,5.69831 -0.94971,0.9497 -4.74857,-0.9497 -5.69829,0 -0.4477,0.4477 0.4477,1.4517 0,1.8994 -0.4477,0.4477 -1.45173,-0.4477 -1.89943,0 -0.4477,0.4477 0,1.2663 0,1.8994 0,0.6332 -0.4477,1.4518 0,1.8995 0.4477,0.4477 1.45173,-0.4477 1.89943,0 0.4477,0.4477 -0.4477,1.4517 0,1.8994 1.87375,1.8738 3.79886,-3.8921 3.79886,1.8994 0,0.6332 0.4477,1.4518 0,1.8995 -0.4477,0.4477 -1.45173,-0.4477 -1.89943,0 -0.94971,0.9497 0.94972,4.7485 0,5.6983 -0.4477,0.4477 -1.45173,-0.4477 -1.89943,0 -0.4477,0.4477 0,1.2662 0,1.8994 0,0.6331 0,1.2663 0,1.8994 0,1.8995 0,3.7989 0,5.6983 0,0.6332 0.63314,1.8994 0,1.8994 -0.63314,0 0.4477,-2.3471 0,-1.8994 -5.3483,0.1179 -0.48368,4.2826 -1.89943,5.6983 -0.4477,0.4477 -1.26629,0 -1.89943,0 -0.63314,0 -2.53258,0 -1.89943,0 1.26629,0 3.79886,-1.2663 3.79886,0 0,5.2304 -4.33527,0.5364 -5.69829,1.8994 -0.4477,0.4477 0.4477,1.4518 0,1.8995 -0.4477,0.4477 -1.89943,0.6331 -1.89943,0 0,-0.6332 2.53257,0 1.89943,0 -1.26629,0 -2.66626,-0.5663 -3.79886,0 -0.19179,0.096 0,5.517 0,7.5977 0,0.6975 -0.0764,7.5213 0,7.5977 0.62937,0.6294 3.16948,-0.6294 3.79886,0 0.4477,0.4477 -0.4477,1.4517 0,1.8994 0.4477,0.4477 1.45173,-0.4477 1.89943,0 0.4477,0.4477 -0.4477,1.4518 0,1.8995 0.4477,0.4477 1.45173,-0.4477 1.89943,0 0.4477,0.4477 0,1.2663 0,1.8994 0,0.6331 0,1.2663 0,1.8994 0,0.6332 0,1.2663 0,1.8995 0,0.6331 0.63314,1.8994 0,1.8994 -0.63314,0 0,-2.5326 0,-1.8994 0,1.2663 0,2.5325 0,3.7988 0,0.6332 0,1.2663 0,1.8995 0,1.8994 0,3.7988 0,5.6983 0,0.6331 0.63314,1.8994 0,1.8994 -0.63314,0 0,-2.5326 0,-1.8994 0,1.2662 0,2.5325 0,3.7988 0,0.6332 0.63314,1.8994 0,1.8994 -0.63314,0 0.63314,-1.8994 0,-1.8994 -0.74178,0 -2.13919,3.5591 -3.79886,1.8994 -0.8954,-0.8954 0.8954,-2.9034 0,-3.7988 -0.4477,-0.4477 -1.45173,0.4477 -1.89943,0 -0.0611,-0.061 0,-5.2376 0,-5.6983"
       id="Connecticut_River"
       inkscape:connector-curvature="0"
       inkscape:label="#path3239" />
    <path
       style="fill:none;stroke:#000080;stroke-width:2;stroke-linecap:butt;stroke-linejoin:miter;stroke-opacity:1;stroke-miterlimit:4;stroke-dasharray:none"
       d="m 112.06642,611.47375 c 1.26628,3.16572 2.53257,6.33144 3.79886,9.49716 0.63314,0.63314 1.49899,1.09856 1.89943,1.89943 0.28315,0.5663 0,1.26629 0,1.89943 0.63314,1.26629 1.11411,2.62088 1.89943,3.79886 0.49668,0.74502 1.49899,1.09856 1.89943,1.89943 0.28315,0.5663 -0.4477,1.45173 0,1.89943 0.4477,0.4477 1.45173,-0.4477 1.89943,0 0.8954,0.8954 -0.5663,2.66626 0,3.79886 0.40043,0.80087 1.26629,1.26629 1.89943,1.89944 1.02964,1.02963 1.93564,2.83104 3.79886,1.89943 0.80087,-0.40044 1.09856,-1.499 1.89943,-1.89943 1.312,-0.656 8.83042,0.66673 9.49716,0 0.8954,-0.8954 -0.8954,-2.90347 0,-3.79887 0.4477,-0.4477 1.45173,0.4477 1.89943,0 0.63051,-0.63051 -0.63052,-3.16834 0,-3.79886 0.4477,-0.4477 1.45173,0.4477 1.89943,0 0.8954,-0.8954 -0.5663,-2.66626 0,-3.79886 0.40043,-0.80087 1.49899,-1.09856 1.89943,-1.89943 0.28315,-0.5663 -0.4477,-1.45173 0,-1.89943 0.4477,-0.4477 1.45173,0.4477 1.89943,0 0.4477,-0.4477 -0.28315,-1.33313 0,-1.89943 2.09987,-4.19975 1.17887,-0.58944 3.79886,-1.89943 0.80087,-0.40044 1.09856,-1.499 1.89943,-1.89943 1.1326,-0.5663 2.90346,0.8954 3.79886,0 0.4477,-0.4477 -0.4477,-1.45173 0,-1.89943 0.4477,-0.4477 1.33313,0.28315 1.89943,0 0.80087,-0.40044 1.09856,-1.499 1.89943,-1.89943 0.56631,-0.28315 1.45173,0.4477 1.89944,0 0.4477,-0.4477 -0.44771,-1.45173 0,-1.89944 0.4477,-0.4477 1.26628,0 1.89943,0 1.89943,0 3.79886,0 5.69829,0 3.16572,0 6.33143,0 9.49715,0 1.2977,0 2.50117,0 3.79886,0 0.63315,0 1.89943,-0.63314 1.89943,0 0,0.63315 -2.53257,0 -1.89943,0 1.26629,0 2.53258,0 3.79886,0 0.89558,0 9.41107,-0.0861 9.49716,0 0.4477,0.44771 -0.4477,1.45174 0,1.89944 0.4477,0.4477 1.45173,-0.4477 1.89943,0 0.4477,0.4477 -0.4477,1.45173 0,1.89943 0.4477,0.4477 1.45173,-0.4477 1.89943,0 0.4477,0.4477 -0.4477,1.45173 0,1.89943 0.4477,0.4477 1.45173,-0.4477 1.89943,0 0.8954,0.8954 -0.8954,2.90346 0,3.79886 0.4477,0.4477 1.45173,-0.4477 1.89943,0 0.8954,0.8954 -0.5663,2.66626 0,3.79886 6.29962,6.29962 -0.8954,-1.7908 1.89943,3.79886 0.40044,0.80087 1.26629,1.26629 1.89943,1.89943 0.63315,0.63315 1.499,1.09856 1.89943,1.89943 0.28315,0.5663 -0.4477,1.45173 0,1.89943 0.4477,0.4477 1.45173,-0.4477 1.89943,0 0.51973,0.51973 -0.5152,6.56731 0,7.59773 0.40044,0.80087 1.499,1.09856 1.89944,1.89943 0.28315,0.5663 -0.28316,1.33313 0,1.89943 0.40043,0.80087 1.49899,1.09856 1.89943,1.89943 0.5663,1.1326 -0.8954,2.90346 0,3.79886 0.4477,0.4477 1.45173,-0.4477 1.89943,0 0.4477,0.4477 -0.4477,1.45173 0,1.89943 0.4477,0.4477 1.45173,-0.4477 1.89943,0 0.58815,0.58815 -0.58816,8.909 0,9.49715 0.4477,0.44771 1.45173,-0.4477 1.89943,0 0.4477,0.44771 -0.4477,1.45174 0,1.89944 0.4477,0.4477 1.89943,-0.63315 1.89943,0 0,0.63314 -2.53258,0 -1.89943,0 1.26629,0 2.53257,0 3.79886,0 0.63314,0 1.26629,0 1.89943,0 0.63314,0 1.45173,-0.4477 1.89943,0 0.4477,0.4477 -0.4477,1.45173 0,1.89943 0.4477,0.4477 1.45173,-0.4477 1.89943,0 0.4477,0.4477 -0.4477,1.45173 0,1.89943 0.4477,0.4477 1.26629,0 1.89943,0 0,0.63314 -0.4477,1.45173 0,1.89943 0.4477,0.4477 1.89943,-0.63315 1.89943,0 0,0.63314 -1.89943,-0.63315 -1.89943,0 0,3.95249 2.66371,0.76427 3.79886,1.89943 0.8954,0.8954 -0.8954,2.90346 0,3.79886 0.4477,0.4477 1.26629,0 1.89943,0 0,0.63314 -0.4477,1.45173 0,1.89943 0.63052,0.63052 3.16835,-0.63051 3.79887,0 0.4477,0.4477 -0.4477,1.45173 0,1.89943 0.4477,0.4477 1.45173,-0.4477 1.89943,0 0.4477,0.4477 -0.4477,1.45173 0,1.89943 0.4477,0.4477 1.26628,0 1.89943,0 0.63314,0 1.26628,0 1.89943,0 7.17563,0 -8.44192,0 3.79886,0 0.63314,0 1.26629,0 1.89943,0 0.63314,0 1.89943,-0.63314 1.89943,0 0,0.63315 -2.53257,0 -1.89943,0 1.26629,0 2.66626,-0.5663 3.79886,0 0.5663,0.28315 -0.4477,1.45173 0,1.89943 0.4477,0.4477 1.45173,-0.4477 1.89943,0 0.4477,0.4477 -0.4477,1.45173 0,1.89943 0.4477,0.4477 1.45173,-0.4477 1.89943,0 1.87375,1.87375 -3.89208,3.79887 1.89943,3.79887"
       id="White_River"
       inkscape:connector-curvature="0"
       inkscape:label="#path3241" />
    <path
       style="fill:none;stroke:#000080;stroke-width:2;stroke-linecap:butt;stroke-linejoin:miter;stroke-opacity:1;stroke-miterlimit:4;stroke-dasharray:none"
       d="m 341.89753,803.31626 c -4.51469,1.92691 -7.17868,1.89943 -11.39658,1.89943 -0.63314,0 -1.45173,-0.4477 -1.89943,0 0,5.06515 0.63314,-0.63314 -1.89943,1.89943 -0.64823,0.64823 0.64823,3.15063 0,3.79886 -0.8954,0.8954 -2.90346,-0.8954 -3.79886,0 -0.4477,0.4477 0.4477,1.45173 0,1.89943 -0.0611,0.0611 -5.23763,0 -5.69829,0 -4.10655,0 -4.38183,0 -11.39659,0 -3.16572,0 -6.33144,0 -9.49715,0 -1.26629,0 -2.53258,0 -3.79886,0 -0.63315,0 -1.89944,0.63315 -1.89944,0 0,-0.63314 1.89944,-0.63314 1.89944,0 0,0.8954 -1.499,1.09856 -1.89944,1.89943 -0.28315,0.5663 0.4477,1.45173 0,1.89943 -0.4477,0.4477 -1.45173,-0.4477 -1.89943,0 -0.4477,0.4477 0.4477,1.45174 0,1.89944 -0.4477,0.4477 -1.26628,0 -1.89943,0 -3.79886,0 -7.59772,0 -11.39658,0 -4.43201,0 -8.86401,0 -13.29602,0 -0.63314,0 -1.45173,0.4477 -1.89943,0 -0.4477,-0.4477 0.4477,-1.45174 0,-1.89944 -0.4477,-0.4477 -1.45173,0.4477 -1.89943,0 -0.4477,-0.4477 0.4477,-1.45173 0,-1.89943 -0.8954,-0.8954 -2.90346,0.8954 -3.79886,0 -0.8954,-0.8954 0.8954,-2.90346 0,-3.79886 -0.4477,-0.4477 -1.45173,0.4477 -1.89943,0 -0.4477,-0.4477 0.28315,-1.33313 0,-1.89943 -0.80087,-1.60174 -2.99799,-2.19712 -3.79886,-3.79886 -0.28315,-0.5663 0.4477,-1.45173 0,-1.89943 -0.4477,-0.4477 -1.45173,0.4477 -1.89943,0 -0.4477,-0.4477 -0.4477,-1.45173 0,-1.89943 0.4477,-0.4477 1.45173,0.4477 1.89943,0 0.4477,-0.4477 0,-1.26629 0,-1.89943"
       id="Sugar_River"
       inkscape:connector-curvature="0"
       inkscape:label="#path3243" />
    <path
       style="fill:none;stroke:#000080;stroke-width:2;stroke-linecap:butt;stroke-linejoin:miter;stroke-opacity:1;stroke-miterlimit:4;stroke-dasharray:none"
       d="m 129.16129,706.44529 c -2.21131,14.86406 7.08622,1.38792 9.49716,3.79886 0.4477,0.4477 -0.4477,1.45173 0,1.89943 0.0611,0.0611 5.23762,0 5.69829,0 1.89943,0 3.79886,0 5.69829,0 0.63314,0 2.53257,0 1.89943,0 -1.26629,0 -5.06515,0 -3.79886,0 1.89943,0 3.89633,-0.60065 5.69829,0 0.60065,0.20022 -0.4477,1.45173 0,1.89943 0.94972,0.94972 4.74858,-0.94971 5.69829,0 0.4477,0.44771 -0.4477,1.45174 0,1.89944 0.45477,0.45476 7.59773,-0.43179 7.59773,0 0,0.63314 -2.53258,0 -1.89943,0 4.432,0 8.86401,0 13.29601,0 0.63314,0 1.45173,0.4477 1.89943,0 0.4477,-0.4477 -0.4477,-1.45173 0,-1.89944 0.4477,-0.4477 1.45173,0.44771 1.89943,0 0.4477,-0.4477 -0.4477,-1.45173 0,-1.89943 0.4477,-0.4477 1.33313,0.28315 1.89943,0 7.90498,-3.95248 -2.03056,0.13113 1.89943,-3.79886 0.4477,-0.4477 1.45173,0.4477 1.89943,0 0.4477,-0.4477 -0.4477,-1.45173 0,-1.89943 0.4477,-0.4477 1.45174,0.4477 1.89944,0 0.4477,-0.4477 -0.4477,-1.45173 0,-1.89943 0.94971,-0.94971 4.74857,0.94972 5.69829,0 0.4477,-0.4477 -0.4477,-1.45173 0,-1.89943 0.8954,-0.8954 2.66626,0.5663 3.79886,0 0.80087,-0.40043 1.09856,-1.499 1.89943,-1.89943 0.5663,-0.28315 1.45173,0.4477 1.89943,0 0.8954,-0.8954 -0.8954,-2.90346 0,-3.79886 0.8954,-0.8954 2.90346,0.8954 3.79886,0 2.53258,-2.53258 -3.16572,-1.89943 1.89943,-1.89943 0.63315,0 2.53258,0 1.89943,0 -1.26628,0 -3.79886,1.26628 -3.79886,0 0,-3.9149 6.5492,-0.85091 7.59773,-1.89943 0.4477,-0.4477 -0.44771,-1.45173 0,-1.89943 0.4477,-0.4477 1.26628,0 1.89943,0 4.432,0 8.86401,0 13.29601,0 0.63314,0 1.45173,-0.4477 1.89943,0 0.4477,0.4477 -0.4477,1.45173 0,1.89943 0.4477,0.4477 1.45173,-0.4477 1.89943,0 0.4477,0.4477 -0.4477,1.45173 0,1.89943 0.94972,0.94971 4.74858,-0.94972 5.69829,0 0.0611,0.0611 0,5.23763 0,5.69829 0,0.63314 0,2.53257 0,1.89943 0,-1.26629 0,-5.06515 0,-3.79886 0,1.89943 -0.60065,3.89633 0,5.69829 0.20022,0.60065 1.26629,0 1.89944,0 0.63314,0 1.26628,0 1.89943,0 4.432,0 8.86401,0 13.29601,0"
       id="path3245"
       inkscape:connector-curvature="0" />
    <path
       style="fill:none;stroke:#000080;stroke-width:2;stroke-linecap:butt;stroke-linejoin:miter;stroke-opacity:1;stroke-miterlimit:4;stroke-dasharray:none"
       d="m 138.65845,790.02024 c 15.90952,-2.14304 -0.82383,8.67334 1.89943,11.39659 0.62047,0.62048 3.17838,-0.62048 3.79886,0 0.4477,0.4477 -0.4477,1.45173 0,1.89943 0.58815,0.58815 8.909,-0.58815 9.49715,0 0.4477,0.4477 -0.4477,1.45173 0,1.89943 0.0611,0.0611 5.23763,0 5.69829,0 9.49716,0 18.99431,0 28.49146,0 3.16572,0 6.33144,0 9.49716,0 0.63314,0 1.45173,-0.4477 1.89943,0 0.4477,0.4477 0,1.26629 0,1.89943 0,4.43201 0,8.86401 0,13.29602 0,0.63314 0,1.26628 0,1.89943 0,0.63314 -0.4477,1.45173 0,1.89943 0.4477,0.4477 1.45173,-0.4477 1.89943,0 0.38831,0.38831 -0.37655,4.94518 0,5.69829 0.40044,0.80087 1.499,1.09856 1.89943,1.89943 0.5663,1.1326 -0.8954,2.90346 0,3.79886 0.4477,0.4477 1.45173,-0.4477 1.89943,0 0.51973,0.51973 -0.51521,6.56731 0,7.59773 0.40044,0.80087 1.499,1.09856 1.89943,1.89943 0.5663,1.1326 -0.8954,2.90346 0,3.79886 0.4477,0.4477 1.45173,-0.4477 1.89943,0 0.4477,0.4477 -0.4477,1.45173 0,1.89943 0.4477,0.4477 1.45173,-0.4477 1.89943,0 0.4477,0.4477 -0.4477,1.45173 0,1.89943 0.4477,0.4477 1.45173,-0.4477 1.89943,0 0.4477,0.4477 -0.4477,1.45173 0,1.89943 0.94972,0.94972 4.74858,-0.94972 5.6983,0 0.4477,0.4477 -0.4477,1.45173 0,1.89943 0.94971,0.94972 4.74857,-0.94971 5.69829,0 0.94971,0.94972 -0.94972,4.74854 0,5.69834 0.4477,0.4477 1.45173,-0.4477 1.89943,0 2.53257,2.5325 -3.16572,1.8994 1.89943,1.8994"
       id="path3247"
       inkscape:connector-curvature="0" />
    <path
       style="fill:none;stroke:#000080;stroke-width:2;stroke-linecap:butt;stroke-linejoin:miter;stroke-opacity:1;stroke-miterlimit:4;stroke-dasharray:none"
       d="m 151.95446,828.00886 c 4.43201,0 8.86401,0 13.29602,0 0.63314,0 1.45173,-0.4477 1.89943,0 0.45706,0.45706 -0.45707,7.14066 0,7.59772 0.4477,0.4477 1.45173,-0.4477 1.89943,0 0.0611,0.0611 0,5.23763 0,5.69829 0,0.63315 0.63314,1.89944 0,1.89944 -0.63315,0 0,-2.53258 0,-1.89944 0,1.26629 -0.40044,2.59756 0,3.79887 2.34713,7.04139 1.89943,-2.31532 1.89943,3.79886 0,7.58066 0,7.72294 0,11.39658 0,0.63315 0,1.26628 0,1.89948 0,0.6331 -0.28315,1.3331 0,1.8994 0.40043,0.8009 1.49899,1.0985 1.89943,1.8994 0.28315,0.5663 -0.4477,1.4517 0,1.8994 0.4477,0.4477 1.45173,-0.4477 1.89943,0 0.45706,0.4571 -0.45706,7.1407 0,7.5978 5.06515,0 -0.63314,-0.6332 1.89943,1.8994 0.4477,0.4477 1.89943,-0.6331 1.89943,0 0,0.6331 -2.53257,0 -1.89943,0 8.81043,0 3.89733,0 11.39658,0 0.63315,0 1.26629,0 1.89944,0 0.63314,0 1.89943,-0.6331 1.89943,0 0,0.6331 -1.89943,-0.6331 -1.89943,0 0,0.8954 1.49899,1.0986 1.89943,1.8994 0.28315,0.5663 -0.4477,1.4518 0,1.8995 0.4477,0.4477 1.45173,-0.4477 1.89943,0 0.8954,0.8954 -0.5663,2.6662 0,3.7988 0.40043,0.8009 1.49899,1.0986 1.89943,1.8995 0.28315,0.5663 -0.28315,1.3331 0,1.8994 0.40043,0.8009 1.49899,1.0985 1.89943,1.8994 0.51521,1.0304 -0.51973,7.078 0,7.5977 0.8954,0.8954 2.90346,-0.8954 3.79886,0 0.4477,0.4477 -0.4477,1.4518 0,1.8995 0.4477,0.4477 1.26629,0 1.89943,0 0.63314,0 1.26629,0 1.89943,0 7.00843,0 3.76259,0 11.39659,0"
       id="path3249"
       inkscape:connector-curvature="0" />
    <path
       sodipodi:type="arc"
       style="fill:#008000;fill-opacity:1;stroke:none"
       id="NSTN3_dot"
       sodipodi:cx="349.28571"
       sodipodi:cy="344.50504"
       sodipodi:rx="10.714286"
       sodipodi:ry="12.142858"
       d="m 359.99999,344.50504 a 10.714286,12.142858 0 1 1 -0.004,-0.3232 l -10.71049,0.3232 z"
       sodipodi:start="0"
       sodipodi:end="6.2565659"
       transform="matrix(1.2066919,0,0,1.0155353,68.572896,-158.15746)" />
    <path
       sodipodi:type="arc"
       style="fill:#008000;fill-opacity:1;stroke:none"
       id="DLTN3_dot"
       sodipodi:cx="349.28571"
       sodipodi:cy="344.50504"
       sodipodi:rx="10.714286"
       sodipodi:ry="12.142858"
       d="m 359.99999,344.50504 a 10.714286,12.142858 0 1 1 -0.004,-0.3232 l -10.71049,0.3232 z"
       sodipodi:start="0"
       sodipodi:end="6.2565659"
       transform="matrix(1.2066919,0,0,1.0155353,32.483716,-8.1024359)" />
    <path
       sodipodi:type="arc"
       style="fill:#008000;fill-opacity:1;stroke:none"
       id="PASV1_dot"
       sodipodi:cx="349.28571"
       sodipodi:cy="344.50504"
       sodipodi:rx="10.714286"
       sodipodi:ry="12.142858"
       d="m 359.99999,344.50504 a 10.714286,12.142858 0 1 1 -0.004,-0.3232 l -10.71049,0.3232 z"
       sodipodi:start="0"
       sodipodi:end="6.2565659"
       transform="matrix(1.2066919,0,0,1.0155353,-64.387254,12.791295)" />
    <path
       sodipodi:type="arc"
       style="fill:#008000;fill-opacity:1;stroke:none"
       id="BETN3_dot"
       sodipodi:cx="349.28571"
       sodipodi:cy="344.50504"
       sodipodi:rx="10.714286"
       sodipodi:ry="12.142858"
       d="m 359.99999,344.50504 a 10.714286,12.142858 0 1 1 -0.004,-0.3232 l -10.71049,0.3232 z"
       sodipodi:start="0"
       sodipodi:end="6.2565659"
       transform="matrix(1.2066919,0,0,1.0155353,59.075745,50.779912)" />
    <path
       sodipodi:type="arc"
       style="fill:#b3b3b3;fill-opacity:1;stroke:none"
       id="MORN3_dot"
       sodipodi:cx="349.28571"
       sodipodi:cy="344.50504"
       sodipodi:rx="10.714286"
       sodipodi:ry="12.142858"
       d="m 359.99999,344.50504 a 10.714286,12.142858 0 1 1 -0.004,-0.3232 l -10.71049,0.3232 z"
       sodipodi:start="0"
       sodipodi:end="6.2565659"
       transform="matrix(1.2066919,0,0,1.0155353,-16.901484,27.986745)" />
    <path
       sodipodi:type="arc"
       style="fill:#008000;fill-opacity:1;stroke:none"
       id="WLRV1_dot"
       sodipodi:cx="349.28571"
       sodipodi:cy="344.50504"
       sodipodi:rx="10.714286"
       sodipodi:ry="12.142858"
       d="m 359.99999,344.50504 a 10.714286,12.142858 0 1 1 -0.004,-0.3232 l -10.71049,0.3232 z"
       sodipodi:start="0"
       sodipodi:end="6.2565659"
       transform="matrix(1.2066919,0,0,1.0155353,-96.677574,96.366246)" />
    <path
       sodipodi:type="arc"
       style="fill:#008000;fill-opacity:1;stroke:none"
       id="WELV1_dot"
       sodipodi:cx="349.28571"
       sodipodi:cy="344.50504"
       sodipodi:rx="10.714286"
       sodipodi:ry="12.142858"
       d="m 359.99999,344.50504 a 10.714286,12.142858 0 1 1 -0.004,-0.3232 l -10.71049,0.3232 z"
       sodipodi:start="0"
       sodipodi:end="6.2565659"
       transform="matrix(1.2066919,0,0,1.0155353,-70.085544,115.36057)" />
    <path
       sodipodi:type="arc"
       style="fill:#999999;fill-opacity:1;stroke:none"
       id="UVDV1_dot"
       sodipodi:cx="349.28571"
       sodipodi:cy="344.50504"
       sodipodi:rx="10.714286"
       sodipodi:ry="12.142858"
       d="m 359.99999,344.50504 a 10.714286,12.142858 0 1 1 -0.004,-0.3232 l -10.71049,0.3232 z"
       sodipodi:start="0"
       sodipodi:end="6.2565659"
       transform="matrix(1.2066919,0,0,1.0155353,-138.46505,259.7173)"
       inkscape:label="#UVDV1_dot" />
    <path
       sodipodi:type="arc"
       style="fill:#008000;fill-opacity:1;stroke:none"
       id="WEHV1_dot"
       sodipodi:cx="349.28571"
       sodipodi:cy="344.50504"
       sodipodi:rx="10.714286"
       sodipodi:ry="12.142858"
       d="m 359.99999,344.50504 a 10.714286,12.142858 0 1 1 -0.004,-0.3232 l -10.71049,0.3232 z"
       sodipodi:start="0"
       sodipodi:end="6.2565659"
       transform="matrix(1.2066919,0,0,1.0155353,-197.34741,311.00193)" />
    <path
       sodipodi:type="arc"
       style="fill:#008000;fill-opacity:1;stroke:none"
       id="WLBN3_dot"
       sodipodi:cx="349.28571"
       sodipodi:cy="344.50504"
       sodipodi:rx="10.714286"
       sodipodi:ry="12.142858"
       d="m 359.99999,344.50504 a 10.714286,12.142858 0 1 1 -0.004,-0.3232 l -10.71049,0.3232 z"
       sodipodi:start="0"
       sodipodi:end="6.2565659"
       transform="matrix(1.2066919,0,0,1.0155353,-159.35879,337.59396)" />
    <path
       sodipodi:type="arc"
       style="fill:#b3b3b3;fill-opacity:1;stroke:none"
       id="NHDV1_dot"
       sodipodi:cx="349.28571"
       sodipodi:cy="344.50504"
       sodipodi:rx="10.714286"
       sodipodi:ry="12.142858"
       d="m 359.99999,344.50504 a 10.714286,12.142858 0 1 1 -0.004,-0.3232 l -10.71049,0.3232 z"
       sodipodi:start="0"
       sodipodi:end="6.2565659"
       transform="matrix(1.2066919,0,0,1.0155353,-191.64911,352.7894)" />
    <path
       sodipodi:type="arc"
       style="fill:#008000;fill-opacity:1;stroke:none"
       id="WCLN3_dot"
       sodipodi:cx="349.28571"
       sodipodi:cy="344.50504"
       sodipodi:rx="10.714286"
       sodipodi:ry="12.142858"
       d="m 359.99999,344.50504 a 10.714286,12.142858 0 1 1 -0.004,-0.3232 l -10.71049,0.3232 z"
       sodipodi:start="0"
       sodipodi:end="6.2565659"
       transform="matrix(1.2066919,0,0,1.0155353,-155.55992,466.75525)" />
    <path
       sodipodi:type="arc"
       style="fill:#b3b3b3;fill-opacity:1;stroke:none"
       id="NSPV1_dot"
       sodipodi:cx="349.28571"
       sodipodi:cy="344.50504"
       sodipodi:rx="10.714286"
       sodipodi:ry="12.142858"
       d="m 359.99999,344.50504 a 10.714286,12.142858 0 1 1 -0.004,-0.3232 l -10.71049,0.3232 z"
       sodipodi:start="0"
       sodipodi:end="6.2565659"
       transform="matrix(1.2066919,0,0,1.0155353,-218.24114,480.05127)" />
    <path
       sodipodi:type="arc"
       style="fill:#b3b3b3;fill-opacity:1;stroke:none"
       id="RKGV1_dot"
       sodipodi:cx="349.28571"
       sodipodi:cy="344.50504"
       sodipodi:rx="10.714286"
       sodipodi:ry="12.142858"
       d="m 359.99999,344.50504 a 10.714286,12.142858 0 1 1 -0.004,-0.3232 l -10.71049,0.3232 z"
       sodipodi:start="0"
       sodipodi:end="6.2565659"
       transform="matrix(1.2066919,0,0,1.0155353,-225.83887,537.03419)" />
    <path
       sodipodi:type="arc"
       style="fill:#008000;fill-opacity:1;stroke:none"
       id="WLPN3_dot"
       sodipodi:cx="349.28571"
       sodipodi:cy="344.50504"
       sodipodi:rx="10.714286"
       sodipodi:ry="12.142858"
       d="m 359.99999,344.50504 a 10.714286,12.142858 0 1 1 -0.004,-0.3232 l -10.71049,0.3232 z"
       sodipodi:start="0"
       sodipodi:end="6.2565659"
       transform="matrix(1.2066919,0,0,1.0155353,-197.3474,571.22394)" />
    <text
       xml:space="preserve"
       style="font-size:24px;font-style:normal;font-weight:normal;line-height:125%;letter-spacing:0px;word-spacing:0px;fill:#000000;fill-opacity:1;stroke:none;font-family:Sans"
       x="509.00186"
       y="199.32141"
       id="text3903-1-3-17"
       sodipodi:linespacing="125%"
       inkscape:transform-center-x="118.74965"
       inkscape:transform-center-y="-298.99466"><tspan
         sodipodi:role="line"
         id="tspan3905-7-4-77"
         x="509.00186"
         y="199.32141"
         style="font-size:22px;font-style:normal;font-variant:normal;font-weight:normal;font-stretch:normal;text-align:start;line-height:125%;writing-mode:lr-tb;text-anchor:start;font-family:Sans;-inkscape-font-specification:Sans">NSTN3</tspan></text>
    <text
       xml:space="preserve"
       style="font-size:24px;font-style:normal;font-weight:normal;line-height:125%;letter-spacing:0px;word-spacing:0px;fill:#000000;fill-opacity:1;stroke:none;font-family:Sans"
       x="478.61093"
       y="353.17529"
       id="text3903-1-3-17-1"
       sodipodi:linespacing="125%"
       inkscape:transform-center-x="118.74965"
       inkscape:transform-center-y="-298.99466"><tspan
         sodipodi:role="line"
         id="tspan3905-7-4-77-7"
         x="478.61093"
         y="353.17529"
         style="font-size:22px;font-style:normal;font-variant:normal;font-weight:normal;font-stretch:normal;text-align:start;line-height:125%;writing-mode:lr-tb;text-anchor:start;font-family:Sans;-inkscape-font-specification:Sans">DLTN3</tspan></text>
    <text
       xml:space="preserve"
       style="font-size:24px;font-style:normal;font-weight:normal;line-height:125%;letter-spacing:0px;word-spacing:0px;fill:#000000;fill-opacity:1;stroke:none;font-family:Sans"
       x="364.64511"
       y="501.33096"
       id="text3903-1-3-17-4"
       sodipodi:linespacing="125%"
       inkscape:transform-center-x="118.74965"
       inkscape:transform-center-y="-298.99466"><tspan
         sodipodi:role="line"
         id="tspan3905-7-4-77-0"
         x="364.64511"
         y="501.33096"
         style="font-size:22px;font-style:normal;font-variant:normal;font-weight:normal;font-stretch:normal;text-align:start;line-height:125%;writing-mode:lr-tb;text-anchor:start;font-family:Sans;-inkscape-font-specification:Sans">WELV1</tspan></text>
    <text
       xml:space="preserve"
       style="font-size:24px;font-style:normal;font-weight:normal;line-height:125%;letter-spacing:0px;word-spacing:0px;fill:#000000;fill-opacity:1;stroke:none;font-family:Sans"
       x="235.48384"
       y="459.54346"
       id="text3903-1-3-17-9"
       sodipodi:linespacing="125%"
       inkscape:transform-center-x="118.74965"
       inkscape:transform-center-y="-298.99466"><tspan
         sodipodi:role="line"
         id="tspan3905-7-4-77-4"
         x="235.48384"
         y="459.54346"
         style="font-size:22px;font-style:normal;font-variant:normal;font-weight:normal;font-stretch:normal;text-align:start;line-height:125%;writing-mode:lr-tb;text-anchor:start;font-family:Sans;-inkscape-font-specification:Sans">WLRV1</tspan></text>
    <text
       xml:space="preserve"
       style="font-size:24px;font-style:normal;font-weight:normal;line-height:125%;letter-spacing:0px;word-spacing:0px;fill:#000000;fill-opacity:1;stroke:none;font-family:Sans"
       x="368.44397"
       y="412.05771"
       id="text3903-1-3-17-8"
       sodipodi:linespacing="125%"
       inkscape:transform-center-x="118.74965"
       inkscape:transform-center-y="-298.99466"><tspan
         sodipodi:role="line"
         id="tspan3905-7-4-77-8"
         x="368.44397"
         y="412.05771"
         style="font-size:22px;font-style:normal;font-variant:normal;font-weight:normal;font-stretch:normal;text-align:start;line-height:125%;writing-mode:lr-tb;text-anchor:start;font-family:Sans;-inkscape-font-specification:Sans">MORN3</tspan></text>
    <text
       xml:space="preserve"
       style="font-size:24px;font-style:normal;font-weight:normal;line-height:125%;letter-spacing:0px;word-spacing:0px;fill:#000000;fill-opacity:1;stroke:none;font-family:Sans"
       x="281.07016"
       y="345.57764"
       id="text3903-1-3-17-2"
       sodipodi:linespacing="125%"
       inkscape:transform-center-x="118.74965"
       inkscape:transform-center-y="-298.99466"><tspan
         sodipodi:role="line"
         id="tspan3905-7-4-77-45"
         x="281.07016"
         y="345.57764"
         style="font-size:22px;font-style:normal;font-variant:normal;font-weight:normal;font-stretch:normal;text-align:start;line-height:125%;writing-mode:lr-tb;text-anchor:start;font-family:Sans;-inkscape-font-specification:Sans">PASV1</tspan></text>
    <text
       xml:space="preserve"
       style="font-size:24px;font-style:normal;font-weight:normal;line-height:125%;letter-spacing:0px;word-spacing:0px;fill:#000000;fill-opacity:1;stroke:none;font-family:Sans"
       x="495.70584"
       y="438.64972"
       id="text3903-1-3-17-5"
       sodipodi:linespacing="125%"
       inkscape:transform-center-x="118.74965"
       inkscape:transform-center-y="-298.99466"><tspan
         sodipodi:role="line"
         id="tspan3905-7-4-77-1"
         x="495.70584"
         y="438.64972"
         style="font-size:22px;font-style:normal;font-variant:normal;font-weight:normal;font-stretch:normal;text-align:start;line-height:125%;writing-mode:lr-tb;text-anchor:start;font-family:Sans;-inkscape-font-specification:Sans">BETN3</tspan></text>
    <text
       xml:space="preserve"
       style="font-size:24px;font-style:normal;font-weight:normal;line-height:125%;letter-spacing:0px;word-spacing:0px;fill:#000000;fill-opacity:1;stroke:none;font-family:Sans"
       x="288.66788"
       y="696.97229"
       id="text3903-1-3-17-7"
       sodipodi:linespacing="125%"
       inkscape:transform-center-x="118.74965"
       inkscape:transform-center-y="-298.99466"><tspan
         sodipodi:role="line"
         id="tspan3905-7-4-77-11"
         x="288.66788"
         y="696.97229"
         style="font-size:22px;font-style:normal;font-variant:normal;font-weight:normal;font-stretch:normal;text-align:start;line-height:125%;writing-mode:lr-tb;text-anchor:start;font-family:Sans;-inkscape-font-specification:Sans">WLBN3</tspan></text>
    <text
       xml:space="preserve"
       style="font-size:24px;font-style:normal;font-weight:normal;line-height:125%;letter-spacing:0px;word-spacing:0px;fill:#000000;fill-opacity:1;stroke:none;font-family:Sans"
       x="129.11571"
       y="653.28534"
       id="text3903-1-3-17-52"
       sodipodi:linespacing="125%"
       inkscape:transform-center-x="118.74965"
       inkscape:transform-center-y="-298.99466"><tspan
         sodipodi:role="line"
         id="tspan3905-7-4-77-76"
         x="129.11571"
         y="653.28534"
         style="font-size:22px;font-style:normal;font-variant:normal;font-weight:normal;font-stretch:normal;text-align:start;line-height:125%;writing-mode:lr-tb;text-anchor:start;font-family:Sans;-inkscape-font-specification:Sans">WEHV1</tspan></text>
    <text
       xml:space="preserve"
       style="font-size:24px;font-style:normal;font-weight:normal;line-height:125%;letter-spacing:0px;word-spacing:0px;fill:#000000;fill-opacity:1;stroke:none;font-family:Sans"
       x="313.36047"
       y="619.09564"
       id="text3903-1-3-17-14"
       sodipodi:linespacing="125%"
       inkscape:transform-center-x="118.74965"
       inkscape:transform-center-y="-298.99466"><tspan
         sodipodi:role="line"
         id="tspan3905-7-4-77-2"
         x="313.36047"
         y="619.09564"
         style="font-size:22px;font-style:normal;font-variant:normal;font-weight:normal;font-stretch:normal;text-align:start;line-height:125%;writing-mode:lr-tb;text-anchor:start;font-family:Sans;-inkscape-font-specification:Sans">UVDV1</tspan></text>
    <text
       xml:space="preserve"
       style="font-size:24px;font-style:normal;font-weight:normal;line-height:125%;letter-spacing:0px;word-spacing:0px;fill:#000000;fill-opacity:1;stroke:none;font-family:Sans"
       x="241.1821"
       y="913.50732"
       id="text3903-1-3-17-3"
       sodipodi:linespacing="125%"
       inkscape:transform-center-x="118.74965"
       inkscape:transform-center-y="-298.99466"><tspan
         sodipodi:role="line"
         id="tspan3905-7-4-77-22"
         x="241.1821"
         y="913.50732"
         style="font-size:22px;font-style:normal;font-variant:normal;font-weight:normal;font-stretch:normal;text-align:start;line-height:125%;writing-mode:lr-tb;text-anchor:start;font-family:Sans;-inkscape-font-specification:Sans">WLPN3</tspan></text>
    <text
       xml:space="preserve"
       style="font-size:24px;font-style:normal;font-weight:normal;line-height:125%;letter-spacing:0px;word-spacing:0px;fill:#000000;fill-opacity:1;stroke:none;font-family:Sans"
       x="108.22195"
       y="896.41248"
       id="text3903-1-3-17-16"
       sodipodi:linespacing="125%"
       inkscape:transform-center-x="118.74965"
       inkscape:transform-center-y="-298.99466"><tspan
         sodipodi:role="line"
         id="tspan3905-7-4-77-85"
         x="108.22195"
         y="896.41248"
         style="font-size:22px;font-style:normal;font-variant:normal;font-weight:normal;font-stretch:normal;text-align:start;line-height:125%;writing-mode:lr-tb;text-anchor:start;font-family:Sans;-inkscape-font-specification:Sans">RKGV1</tspan></text>
    <text
       xml:space="preserve"
       style="font-size:24px;font-style:normal;font-weight:normal;line-height:125%;letter-spacing:0px;word-spacing:0px;fill:#000000;fill-opacity:1;stroke:none;font-family:Sans"
       x="119.61852"
       y="809.03864"
       id="text3903-1-3-17-76"
       sodipodi:linespacing="125%"
       inkscape:transform-center-x="118.74965"
       inkscape:transform-center-y="-298.99466"><tspan
         sodipodi:role="line"
         id="tspan3905-7-4-77-18"
         x="119.61852"
         y="809.03864"
         style="font-size:22px;font-style:normal;font-variant:normal;font-weight:normal;font-stretch:normal;text-align:start;line-height:125%;writing-mode:lr-tb;text-anchor:start;font-family:Sans;-inkscape-font-specification:Sans">NSPV1</tspan></text>
    <text
       xml:space="preserve"
       style="font-size:24px;font-style:normal;font-weight:normal;line-height:125%;letter-spacing:0px;word-spacing:0px;fill:#000000;fill-opacity:1;stroke:none;font-family:Sans"
       x="281.07013"
       y="799.5415"
       id="text3903-1-3-17-92"
       sodipodi:linespacing="125%"
       inkscape:transform-center-x="118.74965"
       inkscape:transform-center-y="-298.99466"><tspan
         sodipodi:role="line"
         id="tspan3905-7-4-77-79"
         x="281.07013"
         y="799.5415"
         style="font-size:22px;font-style:normal;font-variant:normal;font-weight:normal;font-stretch:normal;text-align:start;line-height:125%;writing-mode:lr-tb;text-anchor:start;font-family:Sans;-inkscape-font-specification:Sans">WCLN3</tspan></text>
    <text
       xml:space="preserve"
       style="font-size:24px;font-style:normal;font-weight:normal;line-height:125%;letter-spacing:0px;word-spacing:0px;fill:#000000;fill-opacity:1;stroke:none;font-family:Sans"
       x="146.21057"
       y="731.16199"
       id="text3903-1-3-17-54"
       sodipodi:linespacing="125%"
       inkscape:transform-center-x="118.74965"
       inkscape:transform-center-y="-298.99466"><tspan
         sodipodi:role="line"
         id="tspan3905-7-4-77-3"
         x="146.21057"
         y="731.16199"
         style="font-size:22px;font-style:normal;font-variant:normal;font-weight:normal;font-stretch:normal;text-align:start;line-height:125%;writing-mode:lr-tb;text-anchor:start;font-family:Sans;-inkscape-font-specification:Sans">NHDV1</tspan></text>
    <rect
       style="opacity:0.97000002;fill:#cccccc;fill-opacity:1;stroke:#1a1a1a;stroke-width:2.33980727;stroke-miterlimit:4;stroke-dasharray:none"
       id="NSTN3_fcst_box"
       width="60.82011"
       height="25.339258"
       x="592.89911"
       y="194.40271"
       inkscape:label="#NSTN3_fcst_box" />
    <rect
       style="opacity:0.97000002;fill:#cccccc;fill-opacity:1;stroke:#1a1a1a;stroke-width:2.33980727;stroke-miterlimit:4;stroke-dasharray:none"
       id="NSTN3_obs_box"
       width="60.82011"
       height="25.339258"
       x="592.30737"
       y="164.09814"
       inkscape:label="#NSTN3_obs_box" />
    <rect
       style="opacity:0.97000002;fill:#cccccc;fill-opacity:1;stroke:#1a1a1a;stroke-width:2.33980727;stroke-miterlimit:4;stroke-dasharray:none"
       id="DLTN3_fcst_box"
       width="60.82011"
       height="25.339258"
       x="558.70941"
       y="350.15604"
       inkscape:label="#DLTN3_fcst_box" />
    <rect
       style="opacity:0.97000002;fill:#cccccc;fill-opacity:1;stroke:#1a1a1a;stroke-width:2.33980727;stroke-miterlimit:4;stroke-dasharray:none"
       id="DLTN3_obs_box"
       width="60.82011"
       height="25.339258"
       x="558.11761"
       y="319.85147"
       inkscape:label="#DLTN3_obs_box" />
    <rect
       style="opacity:0.97000002;fill:#cccccc;fill-opacity:1;stroke:#1a1a1a;stroke-width:2.33980727;stroke-miterlimit:4;stroke-dasharray:none"
       id="BETN3_fcst_box"
       width="60.82011"
       height="25.339258"
       x="573.90485"
       y="437.52985"
       inkscape:label="#BETN3_fcst_box" />
    <rect
       style="opacity:0.97000002;fill:#cccccc;fill-opacity:1;stroke:#1a1a1a;stroke-width:2.33980727;stroke-miterlimit:4;stroke-dasharray:none"
       id="BETN3_obs_box"
       width="60.82011"
       height="25.339258"
       x="573.31305"
       y="407.22531"
       inkscape:label="#BETN3_obs_box" />
    <rect
       style="opacity:0.97000002;fill:#cccccc;fill-opacity:1;stroke:#1a1a1a;stroke-width:2.33980727;stroke-miterlimit:4;stroke-dasharray:none"
       id="PASV1_fcst_box"
       width="60.82011"
       height="25.339258"
       x="209.2141"
       y="340.65887"
       inkscape:label="#PASV1_fcst_box" />
    <rect
       style="opacity:0.97000002;fill:#cccccc;fill-opacity:1;stroke:#1a1a1a;stroke-width:2.33980727;stroke-miterlimit:4;stroke-dasharray:none"
       id="PASV1_obs_box"
       width="60.82011"
       height="25.339258"
       x="208.62236"
       y="310.35431"
       inkscape:label="#PASV1_obs_box" />
    <rect
       style="opacity:0.97000002;fill:#cccccc;fill-opacity:1;stroke:#1a1a1a;stroke-width:2.33980727;stroke-miterlimit:4;stroke-dasharray:none"
       id="WELV1_fcst_box"
       width="60.82011"
       height="25.339258"
       x="452.34125"
       y="502.1105"
       inkscape:label="#WELV1_fcst_box" />
    <rect
       style="opacity:0.97000002;fill:#cccccc;fill-opacity:1;stroke:#1a1a1a;stroke-width:2.33980727;stroke-miterlimit:4;stroke-dasharray:none"
       id="WELV1_obs_box"
       width="60.82011"
       height="25.339258"
       x="451.74948"
       y="471.80594"
       inkscape:label="#WELV1_obs_box" />
    <rect
       style="opacity:0.97000002;fill:#cccccc;fill-opacity:1;stroke:#1a1a1a;stroke-width:2.33980727;stroke-miterlimit:4;stroke-dasharray:none"
       id="WLRV1_fcst_box"
       width="60.82011"
       height="25.339258"
       x="167.42665"
       y="456.52417"
       inkscape:label="#WLRV1_fcst_box" />
    <rect
       style="opacity:0.97000002;fill:#cccccc;fill-opacity:1;stroke:#1a1a1a;stroke-width:2.33980727;stroke-miterlimit:4;stroke-dasharray:none"
       id="WLRV1_obs_box"
       width="60.82011"
       height="25.339258"
       x="166.83488"
       y="426.2196"
       inkscape:label="#WLRV1_obs_box" />
    <rect
       style="opacity:0.97000002;fill:#cccccc;fill-opacity:1;stroke:#1a1a1a;stroke-width:2.33980727;stroke-miterlimit:4;stroke-dasharray:none"
       id="WLBN3_fcst_box"
       width="60.82011"
       height="25.339258"
       x="378.26343"
       y="692.05353"
       inkscape:label="#WLBN3_fcst_box" />
    <rect
       style="opacity:0.97000002;fill:#cccccc;fill-opacity:1;stroke:#1a1a1a;stroke-width:2.33980727;stroke-miterlimit:4;stroke-dasharray:none"
       id="WLBN3_obs_box"
       width="60.82011"
       height="25.339258"
       x="377.67166"
       y="661.74896"
       inkscape:label="#WLBN3_obs_box" />
    <rect
       style="opacity:0.97000002;fill:#cccccc;fill-opacity:1;stroke:#1a1a1a;stroke-width:2.33980727;stroke-miterlimit:4;stroke-dasharray:none"
       id="WEHV1_fcst_box"
       width="60.82011"
       height="25.339258"
       x="61.058502"
       y="644.56775"
       inkscape:label="#WEHV1_fcst_box" />
    <rect
       style="opacity:0.97000002;fill:#cccccc;fill-opacity:1;stroke:#1a1a1a;stroke-width:2.33980727;stroke-miterlimit:4;stroke-dasharray:none"
       id="WEHV1_obs_box"
       width="60.82011"
       height="25.339258"
       x="60.466736"
       y="614.26324"
       inkscape:label="#WEHV1_obs_box" />
    <rect
       style="opacity:0.97000002;fill:#cccccc;fill-opacity:1;stroke:#1a1a1a;stroke-width:2.33980727;stroke-miterlimit:4;stroke-dasharray:none"
       id="WCLN3_fcst_box"
       width="60.82011"
       height="25.339258"
       x="366.86685"
       y="796.52228"
       inkscape:label="#WCLN3_fcst_box" />
    <rect
       style="opacity:0.97000002;fill:#cccccc;fill-opacity:1;stroke:#1a1a1a;stroke-width:2.33980727;stroke-miterlimit:4;stroke-dasharray:none"
       id="WCLN3_obs_box"
       width="60.82011"
       height="25.339258"
       x="366.27512"
       y="766.21771"
       inkscape:label="#WCLN3_obs_box" />
    <rect
       style="opacity:0.97000002;fill:#cccccc;fill-opacity:1;stroke:#1a1a1a;stroke-width:2.33980727;stroke-miterlimit:4;stroke-dasharray:none"
       id="WLPN3_fcst_box"
       width="60.82011"
       height="25.339258"
       x="325.07938"
       y="904.78979"
       inkscape:label="#WLPN3_fcst_box" />
    <rect
       style="opacity:0.97000002;fill:#cccccc;fill-opacity:1;stroke:#1a1a1a;stroke-width:2.33980727;stroke-miterlimit:4;stroke-dasharray:none"
       id="WLPN3_obs_box"
       width="60.82011"
       height="25.339258"
       x="324.48761"
       y="874.48529"
       inkscape:label="#WLPN3_obs_box" />
    <rect
       style="opacity:0.97000002;fill:#cccccc;fill-opacity:1;stroke:#1a1a1a;stroke-width:2.33980727;stroke-miterlimit:4;stroke-dasharray:none"
       id="UVDV1_obs_box"
       width="60.82011"
       height="25.339258"
       x="398.5654"
       y="599.06775"
       inkscape:label="#UVDV1_obs_box" />
    <rect
       style="opacity:0.97000002;fill:#cccccc;fill-opacity:1;stroke:#1a1a1a;stroke-width:2.33980727;stroke-miterlimit:4;stroke-dasharray:none"
       id="NHDV1_obs_box"
       width="60.82011"
       height="25.339258"
       x="74.058624"
       y="714.88989"
       inkscape:label="#NHDV1_obs_box" />
    <rect
       style="opacity:0.97000002;fill:#cccccc;fill-opacity:1;stroke:#1a1a1a;stroke-width:2.33980727;stroke-miterlimit:4;stroke-dasharray:none"
       id="NSPV1_obs_box"
       width="60.82011"
       height="25.339258"
       x="49.366051"
       y="792.76654"
       inkscape:label="#NSPV1_obs_box" />
    <rect
       style="opacity:0.97000002;fill:#cccccc;fill-opacity:1;stroke:#1a1a1a;stroke-width:2.33980727;stroke-miterlimit:4;stroke-dasharray:none"
       id="RKGV1_obs_box"
       width="60.82011"
       height="25.339258"
       x="36.070007"
       y="880.14032"
       inkscape:label="#RKGV1_obs_box" />
    <text
       id="NSTN3"
       x="598.47406"
       y="185.07483"
       style="font-size:18px;line-height:125%;fill:#000000;font-family:Arial"
       inkscape:label="#NSTN3_STG"
       sodipodi:linespacing="125%">
      <tspan
         style="font-size:22px;font-style:normal;font-variant:normal;font-weight:normal;font-stretch:normal;text-align:start;line-height:125%;writing-mode:lr-tb;text-anchor:start;fill:#000000;font-family:Arial;-inkscape-font-specification:Arial"
         id="tspan6282-2-6-4-3-2-13-6">%LASTVALUE(NF1)%</tspan>
    </text>
    <text
       id="NSTN3CT"
       x="599.65759"
       y="213.95087"
       style="font-size:18px;line-height:125%;fill:#000000;font-family:Arial"
       inkscape:label="#NSTN3CT_SSTG"
       sodipodi:linespacing="125%">
      <tspan
         style="font-size:22px;font-style:normal;font-variant:normal;font-weight:normal;font-stretch:normal;text-align:start;line-height:125%;writing-mode:lr-tb;text-anchor:start;fill:#000000;font-family:Arial;-inkscape-font-specification:Arial"
         id="tspan163">%LASTVALUE(NF1)%</tspan>
    </text>
    <text
       id="DLTN3"
       x="564.2843"
       y="342.7276"
       style="font-size:18px;line-height:125%;fill:#000000;font-family:Arial"
       inkscape:label="#DLTN3_STG"
       sodipodi:linespacing="125%">
      <tspan
         style="font-size:22px;font-style:normal;font-variant:normal;font-weight:normal;font-stretch:normal;text-align:start;line-height:125%;writing-mode:lr-tb;text-anchor:start;fill:#000000;font-family:Arial;-inkscape-font-specification:Arial"
         id="tspan6282-2-6-4-3-2-13-6-9">%LASTVALUE(NF1)%</tspan>
    </text>
    <text
       id="DLTN3CT"
       x="565.46783"
       y="371.60361"
       style="font-size:18px;line-height:125%;fill:#000000;font-family:Arial"
       inkscape:label="#DLTN3CT_SSTG"
       sodipodi:linespacing="125%">
      <tspan
         style="font-size:22px;font-style:normal;font-variant:normal;font-weight:normal;font-stretch:normal;text-align:start;line-height:125%;writing-mode:lr-tb;text-anchor:start;fill:#000000;font-family:Arial;-inkscape-font-specification:Arial"
         id="tspan163-3">%LASTVALUE(NF1)%</tspan>
    </text>
    <text
       id="BETN3"
       x="579.47974"
       y="428.202"
       style="font-size:18px;line-height:125%;fill:#000000;font-family:Arial"
       inkscape:label="#BETN3_STG"
       sodipodi:linespacing="125%">
      <tspan
         style="font-size:22px;font-style:normal;font-variant:normal;font-weight:normal;font-stretch:normal;text-align:start;line-height:125%;writing-mode:lr-tb;text-anchor:start;fill:#000000;font-family:Arial;-inkscape-font-specification:Arial"
         id="tspan6282-2-6-4-3-2-13-6-2">%LASTVALUE(NF1)%</tspan>
    </text>
    <text
       id="BETN3CT"
       x="580.66327"
       y="457.078"
       style="font-size:18px;line-height:125%;fill:#000000;font-family:Arial"
       inkscape:label="#BETN3CT_SSTG"
       sodipodi:linespacing="125%">
      <tspan
         style="font-size:22px;font-style:normal;font-variant:normal;font-weight:normal;font-stretch:normal;text-align:start;line-height:125%;writing-mode:lr-tb;text-anchor:start;fill:#000000;font-family:Arial;-inkscape-font-specification:Arial"
         id="tspan163-0">%LASTVALUE(NF1)%</tspan>
    </text>
    <text
       id="WELV1"
       x="457.9162"
       y="492.78262"
       style="font-size:18px;line-height:125%;fill:#000000;font-family:Arial"
       inkscape:label="#WELV1_STG"
       sodipodi:linespacing="125%">
      <tspan
         style="font-size:22px;font-style:normal;font-variant:normal;font-weight:normal;font-stretch:normal;text-align:start;line-height:125%;writing-mode:lr-tb;text-anchor:start;fill:#000000;font-family:Arial;-inkscape-font-specification:Arial"
         id="tspan6282-2-6-4-3-2-13-6-6">%LASTVALUE(NF1)%</tspan>
    </text>
    <text
       id="WELV1CT"
       x="459.09967"
       y="521.65863"
       style="font-size:18px;line-height:125%;fill:#000000;font-family:Arial"
       inkscape:label="#WELV1CT_SSTG"
       sodipodi:linespacing="125%">
      <tspan
         style="font-size:22px;font-style:normal;font-variant:normal;font-weight:normal;font-stretch:normal;text-align:start;line-height:125%;writing-mode:lr-tb;text-anchor:start;fill:#000000;font-family:Arial;-inkscape-font-specification:Arial"
         id="tspan163-7">%LASTVALUE(NF1)%</tspan>
    </text>
    <text
       id="WLBN3"
       x="383.83838"
       y="682.72571"
       style="font-size:18px;line-height:125%;fill:#000000;font-family:Arial"
       inkscape:label="#WLBN3_STG"
       sodipodi:linespacing="125%">
      <tspan
         style="font-size:22px;font-style:normal;font-variant:normal;font-weight:normal;font-stretch:normal;text-align:start;line-height:125%;writing-mode:lr-tb;text-anchor:start;fill:#000000;font-family:Arial;-inkscape-font-specification:Arial"
         id="tspan6282-2-6-4-3-2-13-6-4">%LASTVALUE(NF1)%</tspan>
    </text>
    <text
       id="WLBN3CT"
       x="385.02185"
       y="711.60168"
       style="font-size:18px;line-height:125%;fill:#000000;font-family:Arial"
       inkscape:label="#WLBN3CT_SSTG"
       sodipodi:linespacing="125%">
      <tspan
         style="font-size:22px;font-style:normal;font-variant:normal;font-weight:normal;font-stretch:normal;text-align:start;line-height:125%;writing-mode:lr-tb;text-anchor:start;fill:#000000;font-family:Arial;-inkscape-font-specification:Arial"
         id="tspan163-2">%LASTVALUE(NF1)%</tspan>
    </text>
    <text
       id="WCLN3"
       x="372.4418"
       y="787.1944"
       style="font-size:18px;line-height:125%;fill:#000000;font-family:Arial"
       inkscape:label="#WCLN3_STG"
       sodipodi:linespacing="125%">
      <tspan
         style="font-size:22px;font-style:normal;font-variant:normal;font-weight:normal;font-stretch:normal;text-align:start;line-height:125%;writing-mode:lr-tb;text-anchor:start;fill:#000000;font-family:Arial;-inkscape-font-specification:Arial"
         id="tspan6282-2-6-4-3-2-13-6-1">%LASTVALUE(NF1)%</tspan>
    </text>
    <text
       id="WCLN3CT"
       x="373.62531"
       y="816.07037"
       style="font-size:18px;line-height:125%;fill:#000000;font-family:Arial"
       inkscape:label="#WCLN3CT_SSTG"
       sodipodi:linespacing="125%">
      <tspan
         style="font-size:22px;font-style:normal;font-variant:normal;font-weight:normal;font-stretch:normal;text-align:start;line-height:125%;writing-mode:lr-tb;text-anchor:start;fill:#000000;font-family:Arial;-inkscape-font-specification:Arial"
         id="tspan163-6">%LASTVALUE(NF1)%</tspan>
    </text>
    <text
       id="WLPN3"
       x="330.65433"
       y="897.36139"
       style="font-size:18px;line-height:125%;fill:#000000;font-family:Arial"
       inkscape:label="#WLPN3_STG"
       sodipodi:linespacing="125%">
      <tspan
         style="font-size:22px;font-style:normal;font-variant:normal;font-weight:normal;font-stretch:normal;text-align:start;line-height:125%;writing-mode:lr-tb;text-anchor:start;fill:#000000;font-family:Arial;-inkscape-font-specification:Arial"
         id="tspan6282-2-6-4-3-2-13-6-17">%LASTVALUE(NF1)%</tspan>
    </text>
    <text
       id="WLPN3CT"
       x="331.83783"
       y="924.33795"
       style="font-size:18px;line-height:125%;fill:#000000;font-family:Arial"
       inkscape:label="#WLPN3CT_SSTG"
       sodipodi:linespacing="125%">
      <tspan
         style="font-size:22px;font-style:normal;font-variant:normal;font-weight:normal;font-stretch:normal;text-align:start;line-height:125%;writing-mode:lr-tb;text-anchor:start;fill:#000000;font-family:Arial;-inkscape-font-specification:Arial"
         id="tspan163-73">%LASTVALUE(NF1)%</tspan>
    </text>
    <text
       id="WEHV1"
       x="66.63343"
       y="635.23987"
       style="font-size:18px;line-height:125%;fill:#000000;font-family:Arial"
       inkscape:label="#WEHV1_STG"
       sodipodi:linespacing="125%">
      <tspan
         style="font-size:22px;font-style:normal;font-variant:normal;font-weight:normal;font-stretch:normal;text-align:start;line-height:125%;writing-mode:lr-tb;text-anchor:start;fill:#000000;font-family:Arial;-inkscape-font-specification:Arial"
         id="tspan6282-2-6-4-3-2-13-6-5">%LASTVALUE(NF1)%</tspan>
    </text>
    <text
       id="WEHV1CT"
       x="67.816963"
       y="664.11591"
       style="font-size:18px;line-height:125%;fill:#000000;font-family:Arial"
       inkscape:label="#WEHV1CT_SSTG"
       sodipodi:linespacing="125%">
      <tspan
         style="font-size:22px;font-style:normal;font-variant:normal;font-weight:normal;font-stretch:normal;text-align:start;line-height:125%;writing-mode:lr-tb;text-anchor:start;fill:#000000;font-family:Arial;-inkscape-font-specification:Arial"
         id="tspan163-9">%LASTVALUE(NF1)%</tspan>
    </text>
    <text
       id="WLRV1"
       x="173.00159"
       y="447.19629"
       style="font-size:18px;line-height:125%;fill:#000000;font-family:Arial"
       inkscape:label="#WLRV1_STG"
       sodipodi:linespacing="125%">
      <tspan
         style="font-size:22px;font-style:normal;font-variant:normal;font-weight:normal;font-stretch:normal;text-align:start;line-height:125%;writing-mode:lr-tb;text-anchor:start;fill:#000000;font-family:Arial;-inkscape-font-specification:Arial"
         id="tspan6282-2-6-4-3-2-13-6-18">%LASTVALUE(NF1)%</tspan>
    </text>
    <text
       id="WLRV1CT"
       x="174.18509"
       y="476.07227"
       style="font-size:18px;line-height:125%;fill:#000000;font-family:Arial"
       inkscape:label="#WLRV1CT_SSTG"
       sodipodi:linespacing="125%">
      <tspan
         style="font-size:22px;font-style:normal;font-variant:normal;font-weight:normal;font-stretch:normal;text-align:start;line-height:125%;writing-mode:lr-tb;text-anchor:start;fill:#000000;font-family:Arial;-inkscape-font-specification:Arial"
         id="tspan163-66">%LASTVALUE(NF1)%</tspan>
    </text>
    <text
       id="PASV1"
       x="214.78905"
       y="331.33102"
       style="font-size:18px;line-height:125%;fill:#000000;font-family:Arial"
       inkscape:label="#PASV1_STG"
       sodipodi:linespacing="125%">
      <tspan
         style="font-size:22px;font-style:normal;font-variant:normal;font-weight:normal;font-stretch:normal;text-align:start;line-height:125%;writing-mode:lr-tb;text-anchor:start;fill:#000000;font-family:Arial;-inkscape-font-specification:Arial"
         id="tspan6282-2-6-4-3-2-13-6-8">%LASTVALUE(NF1)%</tspan>
    </text>
    <text
       id="PASV1CT"
       x="215.97255"
       y="360.20706"
       style="font-size:18px;line-height:125%;fill:#000000;font-family:Arial"
       inkscape:label="#PASV1CT_SSTG"
       sodipodi:linespacing="125%">
      <tspan
         style="font-size:22px;font-style:normal;font-variant:normal;font-weight:normal;font-stretch:normal;text-align:start;line-height:125%;writing-mode:lr-tb;text-anchor:start;fill:#000000;font-family:Arial;-inkscape-font-specification:Arial"
         id="tspan163-1">%LASTVALUE(NF1)%</tspan>
    </text>
    <text
       id="NHDV1"
       x="80.521225"
       y="737.0517"
       style="font-size:18px;line-height:125%;fill:#000000;font-family:Arial"
       inkscape:label="#NHDV1_STG"
       sodipodi:linespacing="125%">
      <tspan
         style="font-size:22px;font-style:normal;font-variant:normal;font-weight:normal;font-stretch:normal;text-align:start;line-height:125%;writing-mode:lr-tb;text-anchor:start;fill:#000000;font-family:Arial;-inkscape-font-specification:Arial"
         id="tspan6282-2-6-4-3-2-13-6-4-5">%LASTVALUE(NF1)%</tspan>
    </text>
    <text
       id="UVDV1"
       x="405.32388"
       y="621.1864"
       style="font-size:18px;line-height:125%;fill:#000000;font-family:Arial"
       inkscape:label="#UVDV1_STG"
       sodipodi:linespacing="125%">
      <tspan
         style="font-size:22px;font-style:normal;font-variant:normal;font-weight:normal;font-stretch:normal;text-align:start;line-height:125%;writing-mode:lr-tb;text-anchor:start;fill:#000000;font-family:Arial;-inkscape-font-specification:Arial"
         id="tspan6282-2-6-4-3-2-13-6-4-9">%LASTVALUE(NF1)%</tspan>
    </text>
    <text
       id="NSPV1"
       x="55.828613"
       y="814.92841"
       style="font-size:18px;line-height:125%;fill:#000000;font-family:Arial"
       inkscape:label="#NSPV1_STG"
       sodipodi:linespacing="125%">
      <tspan
         style="font-size:22px;font-style:normal;font-variant:normal;font-weight:normal;font-stretch:normal;text-align:start;line-height:125%;writing-mode:lr-tb;text-anchor:start;fill:#000000;font-family:Arial;-inkscape-font-specification:Arial"
         id="tspan6282-2-6-4-3-2-13-6-4-7">%LASTVALUE(NF1)%</tspan>
    </text>
    <text
       id="RKGV1"
       x="42.532608"
       y="900.40277"
       style="font-size:18px;line-height:125%;fill:#000000;font-family:Arial"
       inkscape:label="#RKGV1_STG"
       sodipodi:linespacing="125%">
      <tspan
         style="font-size:22px;font-style:normal;font-variant:normal;font-weight:normal;font-stretch:normal;text-align:start;line-height:125%;writing-mode:lr-tb;text-anchor:start;fill:#000000;font-family:Arial;-inkscape-font-specification:Arial"
         id="tspan6282-2-6-4-3-2-13-6-4-3">%LASTVALUE(NF1)%</tspan>
    </text>
    <text
       xml:space="preserve"
       style="font-size:36.20770645px;font-style:normal;font-weight:normal;line-height:125%;letter-spacing:0px;word-spacing:0px;fill:#000000;fill-opacity:1;stroke:none;font-family:Sans"
       x="411.70911"
       y="1022.806"
       id="Deviation_text-5"
       sodipodi:linespacing="125%"
       inkscape:label="#text3305"
       transform="scale(1.055761,0.94718406)"><tspan
         sodipodi:role="line"
         id="tspan3307-3"
         x="411.70911"
         y="1022.806"
         style="font-size:21.72462463px;font-style:normal;font-variant:normal;font-weight:normal;font-stretch:normal;text-align:start;line-height:125%;writing-mode:lr-tb;text-anchor:start;font-family:Sans;-inkscape-font-specification:Sans">Deviation from Forecast</tspan></text>
    <path
       transform="matrix(0.68768714,0,0,0.55685875,304.21303,635.5937)"
       sodipodi:type="arc"
       style="fill:#008000;fill-opacity:1;stroke:none"
       id="good_dot"
       sodipodi:cx="145.91983"
       sodipodi:cy="629.09808"
       sodipodi:rx="16.428059"
       sodipodi:ry="16.428061"
       d="m 162.34789,629.09808 a 16.428059,16.428061 0 1 1 -1.39421,-6.62302"
       sodipodi:start="0"
       sodipodi:end="5.8682257"
       sodipodi:open="true"
       inkscape:label="#path6199" />
    <text
       xml:space="preserve"
       style="font-size:15.80000019px;font-style:normal;font-weight:normal;line-height:125%;letter-spacing:0px;word-spacing:0px;fill:#000000;fill-opacity:1;stroke:none;font-family:Sans"
       x="392.60272"
       y="1048.0126"
       id="text3412-3"
       sodipodi:linespacing="125%"
       transform="scale(1.055761,0.94718406)"><tspan
         sodipodi:role="line"
         id="tspan3414-74"
         x="392.60272"
         y="1048.0126">&lt;0.5 ft</tspan></text>
    <text
       xml:space="preserve"
       style="font-size:15.80000019px;font-style:normal;font-weight:normal;line-height:125%;letter-spacing:0px;word-spacing:0px;fill:#000000;fill-opacity:1;stroke:none;font-family:Sans"
       x="481.9726"
       y="1049.3057"
       id="text3416-3"
       sodipodi:linespacing="125%"
       transform="scale(1.055761,0.94718406)"><tspan
         sodipodi:role="line"
         id="tspan3418-8"
         x="481.9726"
         y="1049.3057">0.5-1 ft</tspan></text>
    <path
       transform="matrix(0.68768714,0,0,0.55685875,392.81403,638.61695)"
       sodipodi:type="arc"
       style="fill:#ffff00;fill-opacity:1;stroke:none"
       id="0.5_dot"
       sodipodi:cx="145.91983"
       sodipodi:cy="629.09808"
       sodipodi:rx="16.428059"
       sodipodi:ry="16.428061"
       d="m 162.34789,629.09808 a 16.428059,16.428061 0 1 1 -1.39421,-6.62302"
       sodipodi:start="0"
       sodipodi:end="5.8682257"
       sodipodi:open="true"
       inkscape:label="#path6199" />
    <text
       xml:space="preserve"
       style="font-size:15.80000019px;font-style:normal;font-weight:normal;line-height:125%;letter-spacing:0px;word-spacing:0px;fill:#000000;fill-opacity:1;stroke:none;font-family:Sans"
       x="571.7644"
       y="1049.955"
       id="text3420-8"
       sodipodi:linespacing="125%"
       transform="scale(1.055761,0.94718406)"><tspan
         sodipodi:role="line"
         id="tspan3422-8"
         x="571.7644"
         y="1049.955">1-2 ft</tspan></text>
    <path
       transform="matrix(0.68768714,0,0,0.55685875,486.91974,638.61695)"
       sodipodi:type="arc"
       style="fill:#ff6600;fill-opacity:1;stroke:none"
       id="1.0_dot"
       sodipodi:cx="145.91983"
       sodipodi:cy="629.09808"
       sodipodi:rx="16.428059"
       sodipodi:ry="16.428061"
       d="m 162.34789,629.09808 a 16.428059,16.428061 0 1 1 -1.39421,-6.62302"
       sodipodi:start="0"
       sodipodi:end="5.8682257"
       sodipodi:open="true"
       inkscape:label="#path6199" />
    <path
       transform="matrix(0.68768714,0,0,0.55685875,562.00794,638.61696)"
       sodipodi:type="arc"
       style="fill:#ff0000;fill-opacity:1;stroke:none"
       id="2.0_dot"
       sodipodi:cx="145.91983"
       sodipodi:cy="629.09808"
       sodipodi:rx="16.428059"
       sodipodi:ry="16.428061"
       d="m 162.34789,629.09808 a 16.428059,16.428061 0 1 1 -1.39421,-6.62302"
       sodipodi:start="0"
       sodipodi:end="5.8682257"
       sodipodi:open="true"
       inkscape:label="#path6199" />
    <text
       xml:space="preserve"
       style="font-size:15.80000019px;font-style:normal;font-weight:normal;line-height:125%;letter-spacing:0px;word-spacing:0px;fill:#000000;fill-opacity:1;stroke:none;font-family:Sans"
       x="642.28339"
       y="1049.3016"
       id="text3424-8"
       sodipodi:linespacing="125%"
       transform="scale(1.055761,0.94718406)"><tspan
         sodipodi:role="line"
         id="tspan3426-1"
         x="642.28339"
         y="1049.3016">2-3 ft</tspan></text>
    <text
       xml:space="preserve"
       style="font-size:15.80000019px;font-style:normal;font-weight:normal;line-height:125%;letter-spacing:0px;word-spacing:0px;fill:#000000;fill-opacity:1;stroke:none;font-family:Sans"
       x="444.15448"
       y="1081.63"
       id="text3428-9"
       sodipodi:linespacing="125%"
       transform="scale(1.055761,0.94718406)"><tspan
         sodipodi:role="line"
         id="tspan3430-8"
         x="444.15448"
         y="1081.63">3-4 ft </tspan></text>
    <path
       transform="matrix(0.68768714,0,0,0.55685875,353.1702,669.88906)"
       sodipodi:type="arc"
       style="fill:#800000;fill-opacity:1;stroke:none"
       id="3.0_dot"
       sodipodi:cx="145.91983"
       sodipodi:cy="629.09808"
       sodipodi:rx="16.428059"
       sodipodi:ry="16.428061"
       d="m 162.34789,629.09808 a 16.428059,16.428061 0 1 1 -1.39421,-6.62302"
       sodipodi:start="0"
       sodipodi:end="5.8682257"
       sodipodi:open="true"
       inkscape:label="#path6199" />
    <path
       transform="matrix(0.68768714,0,0,0.55685875,436.44976,669.88906)"
       sodipodi:type="arc"
       style="fill:#8e35ef;fill-opacity:1;stroke:none"
       id="4.0_dot"
       sodipodi:cx="145.91983"
       sodipodi:cy="629.09808"
       sodipodi:rx="16.428059"
       sodipodi:ry="16.428061"
       d="m 162.34789,629.09808 a 16.428059,16.428061 0 1 1 -1.39421,-6.62302"
       sodipodi:start="0"
       sodipodi:end="5.8682257"
       sodipodi:open="true"
       inkscape:label="#path6199" />
    <text
       xml:space="preserve"
       style="font-size:15.80000019px;font-style:normal;font-weight:normal;line-height:125%;letter-spacing:0px;word-spacing:0px;fill:#000000;fill-opacity:1;stroke:none;font-family:Sans"
       x="519.89789"
       y="1081.6342"
       id="text3412-1-2"
       sodipodi:linespacing="125%"
       transform="scale(1.055761,0.94718406)"><tspan
         sodipodi:role="line"
         id="tspan3414-7-2"
         x="519.89789"
         y="1081.6342">&gt; 4.0 ft</tspan></text>
    <path
       transform="matrix(0.68768714,0,0,0.55685875,534.74694,669.88907)"
       sodipodi:type="arc"
       style="fill:#0000ff;fill-opacity:1;stroke:none"
       id="Ice_dot"
       sodipodi:cx="145.91983"
       sodipodi:cy="629.09808"
       sodipodi:rx="16.428059"
       sodipodi:ry="16.428061"
       d="m 162.34789,629.09808 a 16.428059,16.428061 0 1 1 -1.39421,-6.62302"
       sodipodi:start="0"
       sodipodi:end="5.8682257"
       sodipodi:open="true"
       inkscape:label="#path6199" />
    <text
       xml:space="preserve"
       style="font-size:15.80000019px;font-style:normal;font-weight:normal;line-height:125%;letter-spacing:0px;word-spacing:0px;fill:#000000;fill-opacity:1;stroke:none;font-family:Sans"
       x="619.96637"
       y="1082.1442"
       id="text3412-1-7-2"
       sodipodi:linespacing="125%"
       transform="scale(1.055761,0.94718406)"><tspan
         sodipodi:role="line"
         id="tspan3414-7-4-8"
         x="619.96637"
         y="1082.1442">Ice</tspan></text>
    <rect
       style="opacity:0.97309415;fill:#e6e6e6;fill-opacity:1;stroke:#4d4d4d;stroke-width:1.42419267;stroke-miterlimit:4;stroke-dasharray:none"
       id="labelbox"
       width="594.36603"
       height="104.06229"
       x="74.864227"
       y="20.224783"
       inkscape:label="#rect4120" />
    <text
       xml:space="preserve"
       style="font-size:48px;font-style:normal;font-weight:normal;line-height:125%;letter-spacing:0px;word-spacing:0px;fill:#000000;fill-opacity:1;stroke:none;font-family:Sans"
       x="108.24646"
       y="86.094658"
       id="labeltext"
       sodipodi:linespacing="125%"
       inkscape:label="#text4122"
       inkscape:transform-center-x="-108.57143"
       inkscape:transform-center-y="277.14286"><tspan
         sodipodi:role="line"
         id="tspan4124"
         x="100.24646"
         y="86.094658">Upper Connecticut River</tspan></text>
    <rect
       style="opacity:0.97000002;fill:#cccccc;fill-opacity:1;stroke:#4d4d4d;stroke-width:2.21285057;stroke-miterlimit:4;stroke-dasharray:none"
       id="legendbox"
       width="206.87338"
       height="81.976685"
       x="32.950272"
       y="957.16687"
       inkscape:label="#rect4363" />
    <text
       xml:space="preserve"
       style="font-size:27.84248352px;font-style:normal;font-variant:normal;font-weight:normal;font-stretch:normal;text-align:start;line-height:125%;letter-spacing:0px;word-spacing:0px;writing-mode:lr-tb;text-anchor:start;fill:#000000;fill-opacity:1;stroke:none;font-family:Sans;-inkscape-font-specification:Sans"
       x="39.442291"
       y="1006.743"
       id="legend_text"
       sodipodi:linespacing="125%"
       transform="scale(1.0143758,0.98582794)"><tspan
         sodipodi:role="line"
         id="tspan4359"
         x="39.442291"
         y="1006.743"
         style="font-size:20.88186264px">Top - obs value</tspan><tspan
         sodipodi:role="line"
         x="39.442291"
         y="1032.8455"
         id="tspan4361"
         style="font-size:20.88186264px">Bottom - sim value</tspan></text>
  </g>
</svg>
